<?xml version="1.0" encoding="UTF-8"?>
<svg width="70px" height="70px" viewBox="0 0 70 70" version="1.1" xmlns="http://www.w3.org/2000/svg" xmlns:xlink="http://www.w3.org/1999/xlink">
    <!-- Generator: Sketch 46.2 (44496) - http://www.bohemiancoding.com/sketch -->
    <title>Page 1</title>
    <desc>Created with Sketch.</desc>
    <defs>
        <linearGradient x1="50%" y1="100%" x2="50%" y2="0%" id="linearGradient-1">
            <stop stop-color="#32BDE3" offset="0%"></stop>
            <stop stop-color="#6574D7" offset="100%"></stop>
        </linearGradient>
    </defs>
    <g id="Design" stroke="none" stroke-width="1" fill="none" fill-rule="evenodd">
        <g id="Page-1">
            <path d="M35,70 C15.67,70 0,54.33 0,35 C0,15.67 15.67,0 35,0 C54.33,0 70,15.67 70,35 C70,54.33 54.33,70 35,70 Z" id="Fill-1"></path>
            <path d="M35,70 C15.67,70 0,54.33 0,35 C0,15.67 15.67,0 35,0 C54.33,0 70,15.67 70,35 C70,54.33 54.33,70 35,70 Z" id="Fill-1"></path>
            <path d="M45,52.2657 C41.704,52.0917 38.367,52.0017 35,52.0017 C31.633,52.0017 28.296,52.0917 25,52.2657 L25,27.4777 L35,19.7857 L45,27.4777 L45,52.2657 Z M51,52.6927 L51,31.5157 L52.22,32.4147 C52.756,32.8097 53.379,32.9997 53.998,32.9997 C54.918,32.9997 55.827,32.5787 56.415,31.7797 C57.398,30.4457 57.113,28.5677 55.78,27.5847 L36.78,13.5847 C36.748,13.5617 36.713,13.5477 36.68,13.5267 C36.672,13.5207 36.663,13.5147 36.654,13.5097 C36.593,13.4687 36.534,13.4267 36.47,13.3907 C36.419,13.3617 36.368,13.3357 36.316,13.3107 C36.259,13.2827 36.201,13.2607 36.143,13.2367 C36.135,13.2327 36.127,13.2297 36.119,13.2257 C36.073,13.2077 36.031,13.1837 35.985,13.1677 C35.923,13.1467 35.86,13.1337 35.797,13.1167 C35.735,13.0987 35.673,13.0837 35.611,13.0707 C35.56,13.0597 35.51,13.0447 35.46,13.0367 C35.436,13.0327 35.412,13.0337 35.388,13.0307 C35.339,13.0247 35.291,13.0227 35.242,13.0187 C35.186,13.0147 35.131,13.0067 35.075,13.0057 C35.025,13.0047 34.975,13.0047 34.925,13.0057 C34.869,13.0067 34.814,13.0147 34.759,13.0187 C34.709,13.0227 34.66,13.0247 34.611,13.0307 C34.588,13.0337 34.564,13.0327 34.541,13.0367 C34.49,13.0447 34.44,13.0597 34.389,13.0707 C34.327,13.0837 34.266,13.0987 34.204,13.1157 C34.141,13.1337 34.077,13.1467 34.015,13.1687 C33.971,13.1837 33.931,13.2057 33.888,13.2227 C33.878,13.2277 33.867,13.2317 33.857,13.2367 C33.799,13.2607 33.741,13.2827 33.685,13.3107 C33.632,13.3357 33.58,13.3627 33.529,13.3917 C33.467,13.4267 33.409,13.4677 33.35,13.5067 C33.339,13.5137 33.329,13.5197 33.319,13.5267 C33.287,13.5487 33.252,13.5617 33.22,13.5847 L14.22,27.5847 C12.887,28.5677 12.602,30.4457 13.585,31.7797 C14.173,32.5787 15.082,32.9997 16.002,32.9997 C16.621,32.9997 17.244,32.8097 17.78,32.4147 L19,31.5157 L19,52.6927 C14.501,53.0787 10.105,53.6367 5.83,54.3387 C7.116,56.2747 8.587,58.0787 10.223,59.7187 C18.127,58.5987 26.454,58.0017 35,58.0017 C43.546,58.0017 51.873,58.5987 59.777,59.7187 C61.413,58.0787 62.884,56.2747 64.17,54.3387 C59.895,53.6367 55.499,53.0787 51,52.6927 L51,52.6927 Z" id="Fill-3" fill="url(#linearGradient-1)"></path>
        </g>
    </g>
</svg>