<?xml version="1.0" encoding="UTF-8"?>
<svg width="70px" height="70px" viewBox="0 0 70 70" version="1.1" xmlns="http://www.w3.org/2000/svg" xmlns:xlink="http://www.w3.org/1999/xlink">
    <!-- Generator: Sketch 46.2 (44496) - http://www.bohemiancoding.com/sketch -->
    <title>Page 1</title>
    <desc>Created with Sketch.</desc>
    <defs>
        <linearGradient x1="50%" y1="100%" x2="50%" y2="0%" id="linearGradient-1">
            <stop stop-color="#32BDE3" offset="0%"></stop>
            <stop stop-color="#6574D7" offset="100%"></stop>
        </linearGradient>
    </defs>
    <g id="Design" stroke="none" stroke-width="1" fill="none" fill-rule="evenodd">
        <g id="Page-1">
            <path d="M70,35 C70,54.33 54.33,70 35,70 C15.67,70 0,54.33 0,35 C0,15.67 15.67,0 35,0 C54.33,0 70,15.67 70,35" id="Fill-1"></path>
            <path d="M50,51.5977 C45.418,51.2297 40.738,51.0377 36,51.0127 L36,35.9997 C36,35.4577 36.458,34.9997 37,34.9997 L49,34.9997 C49.542,34.9997 50,35.4577 50,35.9997 L50,51.5977 Z M30,35.9997 L30,51.0657 C26.966,51.1447 23.966,51.3057 21,51.5277 L21,22.9997 C21,22.4577 21.458,21.9997 22,21.9997 L39,21.9997 C39.542,21.9997 40,22.4577 40,22.9997 L40,28.9997 L37,28.9997 C33.14,28.9997 30,32.1407 30,35.9997 L30,35.9997 Z M56,52.1927 L56,35.9997 C56,32.1407 52.86,28.9997 49,28.9997 L46,28.9997 L46,22.9997 C46,19.1407 42.86,15.9997 39,15.9997 L22,15.9997 C18.14,15.9997 15,19.1407 15,22.9997 L15,52.0717 C11.683,52.4317 8.428,52.8867 5.242,53.4227 C6.447,55.3637 7.836,57.1767 9.385,58.8397 C17.538,57.6417 26.151,56.9997 35,56.9997 C43.849,56.9997 52.462,57.6417 60.615,58.8397 C62.161,57.1797 63.548,55.3697 64.751,53.4327 C61.887,52.9517 58.971,52.5327 56,52.1927 L56,52.1927 Z" id="Fill-3" fill="url(#linearGradient-1)"></path>
        </g>
    </g>
</svg>