<svg xmlns="http://www.w3.org/2000/svg" viewBox="0 0 3000 3000" xmlns:xlink="http://www.w3.org/1999/xlink"><g id="tailFur"><clipPath id="tailFurClipPath"><path d="M1942.6 1959.2c69 30 162.4 39.9 162.4 39.9s347.1 45 398.6-246c19.5-161.9-177.1-195.4-177.1-195.4s91.8-36.7 124.7-7c0 0-18.5-30.3-46.3-32.7 0 0 118.2-79.9 213.3 102.6 0 0-12.3-93-50.5-111.6 0 0 142.5 32.6 167.6 241.5 0 0 26.3-41.6 23.4-76.4 0 0 67.9 99.8-7.3 214.7 0 0 58.9-56.3 63.7-86.5 0 0 73.9 212.1-151.5 244.1 0 0 61.2 22.9 101.8 3.3 0 0-39.1 85.3-165.9 74.3 0 0 61.7 42.1 99.3 33.5 0 0-93.2 47.7-251.3 13.2 0 0 53.6 49.5 93.2 50.5l-10.5 2.6a635.5 635.5 0 0 1-345.6-16.1l-151-50.4-90.9-37.1v-161z" fill="none" stroke="#31323d" stroke-linecap="round" stroke-linejoin="round" stroke-width="12.5"></path></clipPath><g clip-path="url(#tailFurClipPath)"><path fill="#f4a792" d="M1904 1437.5h939v808.41h-939z"></path></g><g id="tailShadow"><defs><clipPath id="tailShadowClipPath"><path fill="none" d="M1942.6 1959.2c69 30 162.4 39.9 162.4 39.9s347.1 45 398.6-246c19.5-161.9-177.1-195.4-177.1-195.4s91.8-36.7 124.7-7c0 0-18.5-30.3-46.3-32.7 0 0 118.2-79.9 213.3 102.6 0 0-12.3-93-50.5-111.6 0 0 142.5 32.6 167.6 241.5 0 0 26.3-41.6 23.4-76.4 0 0 67.9 99.8-7.3 214.7 0 0 58.9-56.3 63.7-86.5 0 0 73.9 212.1-151.5 244.1 0 0 61.2 22.9 101.8 3.3 0 0-39.1 85.3-165.9 74.3 0 0 61.7 42.1 99.3 33.5 0 0-93.2 47.7-251.3 13.2 0 0 53.6 49.5 93.2 50.5l-10.5 2.6a635.5 635.5 0 0 1-345.6-16.1l-151-50.4-90.9-37.1v-161z"></path></clipPath><linearGradient id="tailShadowGradient" x1="2504.56" x2="2504.56" y1="1680.75" y2="1448.67" gradientUnits="userSpaceOnUse"><stop offset="0" stop-color="#fff" stop-opacity="0"></stop><stop offset=".72" stop-color="#fff"></stop></linearGradient><linearGradient id="tailShadowGradient2" x1="1665.26" x2="2549.1" y1="2120.22" y2="2120.22" gradientUnits="userSpaceOnUse"><stop offset="0" stop-color="gray"></stop><stop offset=".27" stop-color="#7d7d7d"></stop><stop offset=".46" stop-color="#747474"></stop><stop offset=".64" stop-color="#646464"></stop><stop offset=".8" stop-color="#4d4d4d"></stop><stop offset=".95" stop-color="#303030"></stop><stop offset="1" stop-color="#242424"></stop></linearGradient><linearGradient id="tailShadowGradient3" x1="2662.04" x2="2662.04" y1="1826.32" y2="1468.7" href="#tailShadowGradient" xlink:href="#tailShadowGradient"></linearGradient><linearGradient id="tailShadowGradient4" x1="2751.27" x2="2751.27" y1="1935.67" y2="1592.06" href="#tailShadowGradient" xlink:href="#tailShadowGradient"></linearGradient><linearGradient id="tailShadowGradient5" x1="2518.86" x2="2807.7" y1="2094.95" y2="2094.95" href="#tailShadowGradient2" xlink:href="#tailShadowGradient2"></linearGradient><linearGradient id="tailShadowGradient6" x1="2408.12" x2="2697.59" y1="2162.15" y2="2162.15" href="#tailShadowGradient2" xlink:href="#tailShadowGradient2"></linearGradient></defs><g style="isolation:isolate"><path fill="none" d="M3000 3010L0 3000V0l3000 10v3000"></path><path fill="none" d="M3000 3010L0 3000V0l3000 10v3000"></path><g clip-path="url(#tailShadowClipPath)" data-name="TAIL 02"><path fill="url(#tailShadowGradient)" d="M2413.6 1500.9c82.9 31.3 151.8 98 185.8 179.8 7.6-39.8 7.4-81.7-5-120.3s-37.8-73.7-73-93.9-80.2-24.3-116.8-6.8" opacity=".5" style="mix-blend-mode:overlay"></path><path fill="url(#tailShadowGradient3)" d="M2581.6 1513.1c86.1 76.2 125.5 201.4 98.7 313.2 49.5-46 69.9-118.6 59.7-185.4s-48.5-127.4-99.1-172.2" opacity=".5" style="mix-blend-mode:overlay"></path><path fill="url(#tailShadowGradient4)" d="M2756.9 1685.6c7.8 87.6-16 177.7-66 250.1 63.9-20.6 108-84 118-150.4s-9.7-134.4-41.9-193.3" opacity=".5" style="mix-blend-mode:overlay"></path><path fill="url(#tailShadowGradient2)" d="M2042 1944.9c13.2 65.6 41.6 120.5 90.7 149.8 128.8 76.8 266.9 119.3 416.4 131.2.7 41.4-25.3 79.9-59.4 103.5s-75.3 34.3-116.1 41.5c-194.7 34.1-402.2-7.1-567.5-115.6-56.1-36.8-109.5-84.1-131.1-147.6-20.8-61.3-7.3-133.1 34.4-182.6s110.1-75.1 174.1-64.9" opacity=".25" style="mix-blend-mode:multiply"></path><path fill="url(#tailShadowGradient5)" d="M2753.1 2055.2c-71.1 38-158.6 44.1-234.2 16.3 9.3 20.4 27.2 35.9 46.9 46.4s41.6 16.6 63.2 22.4c28.7 7.7 58 15.1 87.7 13.7s60.3-13 77.9-36.9 18.3-61.1-3.5-81.3" opacity=".25" style="mix-blend-mode:multiply"></path><path fill="url(#tailShadowGradient6)" d="M2672.3 2157.6c-91.9 11.2-187.6-11.9-264.2-63.8 7.8 45.4 43.4 81.8 83.4 104.6 52.2 29.8 116.2 41.3 173.8 24.1 13.9-4.2 29-11.8 32.3-25.9" opacity=".25" style="mix-blend-mode:multiply"></path></g></g></g></g><g id="tail"><path d="M1942.6 1959.2c69 30 162.4 39.9 162.4 39.9s347.1 45 398.6-246c19.5-161.9-177.1-195.4-177.1-195.4s91.8-36.7 124.7-7c0 0-18.5-30.3-46.3-32.7 0 0 118.2-79.9 213.3 102.6 0 0-12.3-93-50.5-111.6 0 0 142.5 32.6 167.6 241.5 0 0 26.3-41.6 23.4-76.4 0 0 67.9 99.8-7.3 214.7 0 0 58.9-56.3 63.7-86.5 0 0 73.9 212.1-151.5 244.1 0 0 61.2 22.9 101.8 3.3 0 0-39.1 85.3-165.9 74.3 0 0 61.7 42.1 99.3 33.5 0 0-93.2 47.7-251.3 13.2 0 0 53.6 49.5 93.2 50.5l-10.5 2.6a635.5 635.5 0 0 1-345.6-16.1l-151-50.4-90.9-37.1v-161z" fill="none" stroke="#31323d" stroke-linecap="round" stroke-linejoin="round" stroke-width="12.5" data-name="TAIL 02"></path></g><g id="bodyFur"><clipPath id="furClipPath"><path fill="none" d="M1211.5 866.4a240.2 240.2 0 0 1 129.5-37.8h158.2A240.5 240.5 0 0 1 1607 854c24.5-19.2 89.4-68.2 129.3-66.3a15 15 0 0 1 12.1 22.9L1684 914.8a240.5 240.5 0 0 1 47.2 89.2l295.1 960.1a248.1 248.1 0 0 1-6.4 155.9l.8.3c47.5 13.8 136.8 46.1 179.8 75.5 26.1 17.8 10.1 55.9-23.2 55.3l-261.6-5a246.8 246.8 0 0 1-65.3 28c2.8 13.3 12.3 21 28.1 21.9 18.2 1 23.7 18.6 24.5 25.5 2.3 21.2-5.8 34.7-27.9 36.9l-91.8 3a53.5 53.5 0 0 1-22.3-4 71.6 71.6 0 0 1-43.1-54.3l-3.5-20.7h-533.5l-5 26.6a71.4 71.4 0 0 1-8.8 23.9c-13.4 22.8-38.9 35.7-65.3 34.1l-84.3-5c-21.4-1.6-31.9-18.9-27.2-40.4 2.5-11.1 15.1-20.3 30.6-21.1 23.3-1.2 30.3-20.2 29.9-43.6v-3.3q-7.1-3.7-13.9-7.9L770 2251c-33.3.6-49.7-38.2-23.2-55.3 54-34.9 146.4-69.2 184.5-78.3l.6-.2a248.9 248.9 0 0 1-12.6-117.6l182.9-961.4a240.3 240.3 0 0 1 33-93.8l-60.5-108.1a15 15 0 0 1 .9-16c24.9-34.9 89.3 8.5 130.8 42.6z"></path></clipPath><g clip-path="url(#furClipPath)"><path fill="#f4a792" d="M724.1 566.5h1520.5v1874.8H724.1z"></path><path fill="#f9cfad" d="M1181.5 2294.7c-5.6-14.6 3.2-56.8 20.7-141.2 10.5-50.5 18.8-83.4 24-105 38.8-161.9 16.1-179.6 50-276 23.1-65.9 47.1-131.2 111-162 7.6-3.7 65.9-30.7 125-7s81.2 80.6 105.3 141.9c29.1 74.1 20 99.7 53 285.3 6.9 38.6 13.7 77.2 20.6 115.8 4.1 22.7 8 45.3 12 68 9.4 53.2 9.6 54.1 9.4 56.2-9.7 78.5-486.6 140.6-531 24z"></path></g></g><g id="shadow"><defs><clipPath id="shadowClipPath"><path fill="none" d="M1211.5 866.4a240.2 240.2 0 0 1 129.5-37.8h158.2A240.5 240.5 0 0 1 1607 854c24.5-19.2 89.4-68.2 129.3-66.3a15 15 0 0 1 12.1 22.9L1684 914.8a240.5 240.5 0 0 1 47.2 89.2l295.1 960.1a248.1 248.1 0 0 1-6.4 155.9l.8.3c47.5 13.8 136.8 46.1 179.8 75.5 26.1 17.8 10.1 55.9-23.2 55.3l-261.6-5a246.8 246.8 0 0 1-65.3 28c2.8 13.3 12.3 21 28.1 21.9 18.2 1 23.7 18.6 24.5 25.5 2.3 21.2-5.8 34.7-27.9 36.9l-91.8 3a53.5 53.5 0 0 1-22.3-4 71.6 71.6 0 0 1-43.1-54.3l-3.5-20.7h-533.5l-5 26.6a71.4 71.4 0 0 1-8.8 23.9c-13.4 22.8-38.9 35.7-65.3 34.1l-84.3-5c-21.4-1.6-31.9-18.9-27.2-40.4 2.5-11.1 15.1-20.3 30.6-21.1 23.3-1.2 30.3-20.2 29.9-43.6v-3.3q-7.1-3.7-13.9-7.9L770 2251c-33.3.6-49.7-38.2-23.2-55.3 54-34.9 146.4-69.2 184.5-78.3l.6-.2a248.9 248.9 0 0 1-12.6-117.6l182.9-961.4a240.3 240.3 0 0 1 33-93.8l-60.5-108.1a15 15 0 0 1 .9-16c24.9-34.9 89.3 8.5 130.8 42.6z"></path></clipPath><linearGradient id="shadowLinearGradient" x1="1180.91" x2="1714.46" y1="2153.98" y2="2153.98" gradientUnits="userSpaceOnUse"><stop offset="0" stop-color="gray"></stop><stop offset=".27" stop-color="#7d7d7d"></stop><stop offset=".46" stop-color="#747474"></stop><stop offset=".64" stop-color="#646464"></stop><stop offset=".8" stop-color="#4d4d4d"></stop><stop offset=".95" stop-color="#303030"></stop><stop offset="1" stop-color="#242424"></stop></linearGradient><linearGradient id="shadowLinearGradient2" x1="1713.27" x2="1713.27" y1="794.55" y2="927.94" gradientUnits="userSpaceOnUse"><stop offset="0" stop-color="gray"></stop><stop offset=".14" stop-color="#797979"></stop><stop offset=".35" stop-color="#646464"></stop><stop offset=".6" stop-color="#434343"></stop><stop offset=".89" stop-color="#141414"></stop><stop offset="1"></stop></linearGradient><linearGradient id="shadowLinearGradient3" x1="1028.58" x2="1028.58" y1="855.47" y2="2254.41" href="#shadowLinearGradient" xlink:href="#shadowLinearGradient"></linearGradient><linearGradient id="shadowLinearGradient4" x1="1971.82" x2="1971.82" y1="1970.17" y2="2305.13" href="#shadowLinearGradient" xlink:href="#shadowLinearGradient"></linearGradient><linearGradient id="shadowLinearGradient5" x1="1041.15" x2="1175.15" y1="888.73" y2="888.73" href="#shadowLinearGradient2" xlink:href="#shadowLinearGradient2"></linearGradient></defs><g clip-path="url(#shadowClipPath)" style="mix-blend-mode:multiply"><path fill="url(#shadowLinearGradient)" d="M1213.2 2110.7c-22.2 91.8 60.8 117.5 83.2 119.2 41.2 3.1 203.6 5.6 287.7-7.9 43.8-7 109.2-65.4 87.3-196.3l43 256.8h-533.5z" opacity=".2"></path><path fill="url(#shadowLinearGradient3)" d="M1233.2 855.5c-66 66-73.4 124.2-101.7 248-48.7 214.1-107.5 671.9-126.3 823.4a910.2 910.2 0 0 0-6.8 98.4v3.4c23.5 26 47.6 88.8 52.6 176.8l1.3 49s-31.3-.8-81-.8c-62 0-110.8-111.7-79.2-278.2 28.4-149.5-68-915.5-68-915.5l282.1-44.3s16-102.2 127-160.2z" opacity=".2"></path><path fill="url(#shadowLinearGradient4)" d="M1854.3 2157.4s29.9-91.4 66.3-124.9c-39.4 75 14.1 92.7 28.1 87.7 53.7-19.2 75-66.7 79.2-150l65.3 116.3s-55 256-204 214l-38.7-18.1z" opacity=".2"></path><path fill="url(#shadowLinearGradient2)" d="M1781.2 799.5s-38-26-102 41.5l-33.7 40.5 56.1 46.5z" opacity=".4" style="mix-blend-mode:multiply"></path><path fill="url(#shadowLinearGradient5)" d="M1041.2 839.5s27.5-18.9 71.6-.8a122.7 122.7 0 0 1 47.5 35.2l14.9 17.9-37.7 54.9z" opacity=".4" style="mix-blend-mode:multiply"></path></g></g><g id="highlight"><defs><clipPath id="highlightClipPath"><path fill="none" d="M1211.5 866.4a240.2 240.2 0 0 1 129.5-37.8h158.2A240.5 240.5 0 0 1 1607 854c24.5-19.2 89.4-68.2 129.3-66.3a15 15 0 0 1 12.1 22.9L1684 914.8a240.5 240.5 0 0 1 47.2 89.2l295.1 960.1a248.1 248.1 0 0 1-6.4 155.9l.8.3c47.5 13.8 136.8 46.1 179.8 75.5 26.1 17.8 10.1 55.9-23.2 55.3l-261.6-5a246.8 246.8 0 0 1-65.3 28c2.8 13.3 12.3 21 28.1 21.9 18.2 1 23.7 18.6 24.5 25.5 2.3 21.2-5.8 34.7-27.9 36.9l-91.8 3a53.5 53.5 0 0 1-22.3-4 71.6 71.6 0 0 1-43.1-54.3l-3.5-20.7h-533.5l-5 26.6a71.4 71.4 0 0 1-8.8 23.9c-13.4 22.8-38.9 35.7-65.3 34.1l-84.3-5c-21.4-1.6-31.9-18.9-27.2-40.4 2.5-11.1 15.1-20.3 30.6-21.1 23.3-1.2 30.3-20.2 29.9-43.6v-3.3q-7.1-3.7-13.9-7.9L770 2251c-33.3.6-49.7-38.2-23.2-55.3 54-34.9 146.4-69.2 184.5-78.3l.6-.2a248.9 248.9 0 0 1-12.6-117.6l182.9-961.4a240.3 240.3 0 0 1 33-93.8l-60.5-108.1a15 15 0 0 1 .9-16c24.9-34.9 89.3 8.5 130.8 42.6z"></path></clipPath><linearGradient id="highlightLinearGradient" x1="1844.99" x2="1844.99" y1="2256.39" y2="835.98" gradientUnits="userSpaceOnUse"><stop offset="0" stop-color="#fff" stop-opacity="0"></stop><stop offset=".72" stop-color="#fff"></stop></linearGradient></defs><g clip-path="url(#highlightClipPath)" opacity=".2" style="mix-blend-mode:overlay"><path fill="url(#highlightLinearGradient)" d="M1547.8 836.6s29 33.5 51 64.8 44.1 86.3 65.6 181c58.9 258.7 229.4 683.2 275.5 888s-51.2 286-51.2 286l61.1-35.5s63-74.8 72.5-107.6c20.8-71.9 139-33 117.2-147.7-31.7-166.5-305.7-970.5-305.7-970.5s-123.4-29.9-151.2-79.3c-20.7-36.8-73.2-64.7-124.1-79.9z"></path></g></g><g id="body"><path fill="none" stroke="#31323D" stroke-width="12.5" stroke-miterlimit="10" d="M1714.5 2282.4h-533.6m-130.2-28.7c-89.2-47.1-145.7-146.2-131.5-254.1l182.9-961.4c15.8-119.9 118-209.6 238.9-209.6h158.2c107.8 0 202.5 71.6 231.9 175.4l295.1 960.1c39 137.9-45.2 275-175.8 309.9" stroke-linecap="round"></path><path fill="#31323D" d="M1228.6 2040.8c-1.7 15.3-3.8 30.4-6 45.6l-3.5 22.7-3.8 22.6c-2.6 15.1-5.4 30.1-8.1 45.2l-8.3 45.1-16.6 90.3c-.8 4.1-2 8.2-3.5 12.1-1.5 3.9-3.3 7.8-5.4 11.4-4.2 7.3-9.6 13.9-16 19.4-12.9 11.1-29 17.6-45.9 18.8l-6.3.2h-6.1l-11.5-.7-22.9-1.3-45.8-2.8h-4.7l-1.8-.3c-2.3-.4-4.5-1-6.7-1.7-4.6-1.6-8.7-4.1-12.3-7.3-3.6-3.3-6.4-7.3-8.3-11.7-1.8-4.3-2.9-8.9-3.1-13.5-.2-4.4.1-8.9 1-13.2l.2-.8v-1.7l.3-1.1c.4-1.2.9-2.4 1.5-3.6 1.1-2.2 2.5-4.3 4.1-6.2 3.1-3.6 6.8-6.6 11-8.8 4-2.1 8.3-3.6 12.7-4.5 2.2-.4 4.4-.8 6.6-.9l2.7-.2 2.1-.3c1.5-.3 2.9-.7 4.3-1.2 1.3-.5 2.6-1.1 3.8-1.9 4.6-3 7.7-8.4 9.4-14.8 1.6-6.8 2.2-13.8 1.8-20.8l-.9-22.9-1.9-45.9c-.6-15.3-1.3-30.6-1.8-45.9v.5c-.6-5-1.3-9.9-2-14.9-.4-2.5-.8-4.9-1.2-7.4s-.9-4.9-1.4-7.3-1-4.9-1.6-7.3l-1.8-7.2c-1.3-4.8-2.7-9.5-4.4-14.2-.8-2.3-1.7-4.6-2.6-6.9s-1.8-4.6-2.9-6.8l-1.5-3.4-1.6-3.3-1.7-3.3-1.8-3.3-1.8-3.2-1.9-3.2-4-6.3c-1.4-2.1-2.8-4.1-4.3-6.2l-2.2-3-2.3-3c-.8-.9-.7-2.3.2-3.2s2.3-.7 3.2.2l5.4 5.6c1.7 1.9 3.4 3.9 5.1 5.9 1.7 2 3.3 4 4.8 6.1l2.3 3.2 2.2 3.2c1.5 2.2 2.9 4.3 4.2 6.6l2 3.4 1.9 3.4c1.3 2.3 2.4 4.6 3.5 7 1.1 2.4 2.2 4.7 3.2 7.2 2 4.8 3.8 9.7 5.4 14.7 1.6 5 3 10 4.2 15 .6 2.5 1.2 5.1 1.7 7.6s1.1 5.1 1.5 7.6c.9 5.1 1.7 10.2 2.4 15.3v.5c.9 15.3 1.6 30.6 2.4 45.8l2.3 45.8 1.1 22.9c.2 4.1.2 8.2-.1 12.3-.3 4.2-.9 8.4-1.9 12.5-.5 2.1-1.2 4.2-2 6.3-.9 2.1-1.9 4.2-3.1 6.2-2.5 4.1-5.8 7.7-9.8 10.4-4 2.6-8.5 4.5-13.2 5.3l-3.5.5-3 .2c-1.6.1-3.1.3-4.7.6-3.1.6-6 1.7-8.8 3.2-2.6 1.4-5 3.3-6.9 5.5-.9 1-1.6 2.1-2.2 3.3-.6 1.2-1 2.4-1.2 3.7-.7 3.2-.9 6.4-.7 9.6.2 3 .8 5.9 2 8.7 1.1 2.6 2.8 5 4.9 6.9 2.1 1.9 4.6 3.4 7.3 4.3 1.4.5 2.9.8 4.4 1.1l1 .2h3.9l45.8 2.7 22.9 1.4 11.5.7h10.5c13.8-.9 27-6.2 37.6-15.2 5.2-4.5 9.6-9.8 13.1-15.7 3.5-6 6-12.4 7.4-19.2l17.4-90.1 8.7-45.1c2.9-15 5.8-30 8.8-45l4.7-22.5 5-22.4c3.4-14.9 7-29.8 11-44.6.2-1.4 1.4-2.3 2.7-2.2s2.4 1.5 2.2 2.9z"></path><path fill="#31323D" d="M1095.2 2319.6h-.5l-1.7.2c-2 .3-4 1-5.8 2-2.6 1.4-4.8 3.2-6.7 5.5-1.1 1.3-2 2.6-2.9 4-.9 1.5-1.7 3-2.4 4.6l-.5 1.2-.5 1.2-.5 1.2-.4 1.3c-.5 1.7-.9 3.4-1.3 5l-.5 2.4c-.2.8-.3 1.6-.4 2.4s-.4 3-.6 4.4-.2 2.6-.3 3.7-.1 2.1-.2 2.9v2.7c.2 3.5-2.4 6.5-5.9 6.7-3.5.2-6.5-2.4-6.7-5.9 0-.5 0-1 .1-1.5 0-.3.1-.5.1-.8l.5-2.7c.2-.9.3-1.9.6-3.1s.5-2.6.9-4.1.8-3.1 1.3-4.8l.8-2.6.9-2.7c.7-1.8 1.4-3.7 2.3-5.5l.6-1.4.7-1.4.7-1.4.8-1.4c1.1-1.8 2.3-3.5 3.6-5.2 1.3-1.6 2.7-3.1 4.2-4.5 2.7-2.5 5.9-4.5 9.4-5.8 2.5-.9 5.1-1.4 7.7-1.5h3.1c1.3.1 2.3 1.3 2.2 2.7-.2 1.4-1.4 2.3-2.7 2.2zm-42.5-4.7h-.6l-1.6.4-2.5.9-.7.3-.8.4-1.6.9-1.7 1.1-1.7 1.3-.9.7-.8.8-1.6 1.7-1.5 2-.7 1-.6 1.1-1.3 2.2-1.1 2.4c-.3.8-.7 1.6-1 2.4l-.8 2.5-.8 2.4-.6 2.5c-.4 1.5-.8 3.1-1 4.7l-.6 4.3c-.2 1.2-.3 2.5-.3 3.7l-.2 2.8-.2 2.5v.4c.2 3.5-2.5 6.4-6 6.6-3.5.2-6.4-2.5-6.6-6 0-.5 0-.9.1-1.4 0-.3.1-.5.1-.8l.5-2.7.6-3.1c.3-1.2.4-2.5.9-4l1.3-4.7c.5-1.8 1.1-3.5 1.8-5.2l1-2.7 1.3-2.7 1.3-2.7c.5-.9 1.1-1.8 1.6-2.7l1.7-2.6 1.9-2.4.9-1.2 1.1-1.1 2.1-2.1 2.2-1.8 1.1-.9 1.2-.7 2.2-1.4 2.2-1.1 2.1-.8 1-.4 1-.3c1.1-.3 2.1-.5 3.2-.7l2.2-.2h.8c1.2-.1 2.3.8 2.4 2 .1 1.2-.8 2.3-2 2.4zm621-289.7l2.2 9.4c1.4 6.1 3.4 15.1 5.8 26.6 1.2 5.7 2.5 12.1 3.9 19l4.4 22.5 4.8 25.6 5 28.4 23.3 135.3c1.1 6.1 2 12.8 3.6 17.8 1.7 5.5 4.1 10.8 7.2 15.7 6.3 10 15.3 18.1 25.9 23.4l4.1 1.9 1.1.4 1 .4 2 .7c2.7.8 5.6 1.4 8.4 1.7l4.3.3h4.6l10-.3 40.1-1.4 39.4-1.2 2.5-.3 1.2-.2.9-.2 1.9-.4 1.9-.6c2.4-.8 4.5-2 6.5-3.5 1.8-1.5 3.3-3.3 4.3-5.4.2-.6.6-1.1.7-1.7l.6-1.8c.4-1.3.6-2.6.8-3.9.2-1.4.3-2.7.4-4.1v-2.1s0-1.4-.1-2.2l-.2-2.2v-.3c0 .2-.2.3-.3.2-.2 0-.3-.2-.2-.3 0-.2.2-.3.3-.2.1 0 .2.1.2.2v-1.6l-.2-.8-.2-.9c-.1-.6-.4-1.3-.6-1.9-1.7-5-4.7-9.3-8.4-11.7-2-1.2-4.1-2-6.4-2.3l-1.8-.2-2.6-.2h-1.2l-1.5-.2-2.9-.5c-3.8-.9-7.5-2.3-10.9-4.2-3.5-2-6.6-4.7-9.1-8-2.4-3.1-4.1-6.7-5.3-10.4-1-3.5-1.7-7.1-1.9-10.7-.1-.9-.1-1.7-.1-2.6v-7.2l.2-9.1.8-35.4.2-8.6v-4.6l.3-4.2.3-4.2c.1-1.4.2-2.7.4-4.2l1-8.4c1.5-10.6 3.6-21.1 6.4-31.5 2.5-9.5 5.6-18.8 9.1-28l2.7-6.4c.9-2.1 1.7-4.2 2.7-6.2l2.8-5.9c.9-1.9 1.8-3.9 2.8-5.7l2.9-5.4 1.4-2.6 1.5-2.5 2.9-4.9c.9-1.6 1.8-3.2 2.8-4.7l5.6-8.7 5.4-7.7 2.6-3.5 2.5-3.2c1.6-2.1 3.1-4.1 4.6-5.8l4.1-4.9 3.5-4 6.6-7.1c.8-.9 2.2-1.1 3.1-.3.9.8 1.1 2.2.3 3.1l-5.6 7.8c-3.6 5.1-8.8 12.6-14.9 22.5l-4.7 7.8-4.8 8.8c-.9 1.5-1.7 3.1-2.5 4.7l-2.5 4.9-1.3 2.5-1.2 2.6-2.5 5.4c-7.4 16.3-13.4 33.2-17.7 50.6l-.9 3.6-.4 1.8-.4 1.8-1.5 7.4-.4 1.9-.3 1.9-.6 3.8-.6 3.9-.3 1.9-.2 1.9-.9 7.8c-.2 1.3-.2 2.7-.3 4.1l-.3 4.2-.3 4.2v12.5l-.5 35.4v15.8s0 1.4.1 2c.2 2.5.7 5.1 1.4 7.5.7 2.2 1.8 4.3 3.2 6.2 2.7 3.6 6.9 5.8 12 6.9l1.8.3.9.2h1.2l2.2.2 3 .3c4.1.6 8.1 2 11.7 4.2 3.5 2.2 6.6 5.1 9 8.5 2.3 3.2 4.1 6.8 5.4 10.5.3.9.6 1.8.8 2.8l.4 1.4.3 1.6v2.9l.2 2.7c.1.9.1 1.8.1 2.8s.1 1.8 0 2.8c-.1 1.9-.2 3.8-.5 5.7-.3 2-.7 3.9-1.2 5.8l-1 2.9c-.3 1-.8 1.9-1.3 2.9-1.9 3.9-4.6 7.3-7.9 10.1-3.3 2.6-6.9 4.7-10.9 6l-2.8.9-3 .7-1.5.3-1.3.2-2.5.3h-5.7l-5 .2-10 .4-20.1.7-40.1 1.3-10 .3h-5.4l-5.6-.4c-3.7-.4-7.4-1.2-11-2.3l-2.7-.9-1.4-.5-1.2-.5-4.9-2.3c-12.9-6.5-23.7-16.4-31.4-28.6-3.8-6-6.7-12.4-8.7-19.2l-.7-2.6-.3-1.3c-.1-.4-.2-.9-.3-1.3l-.5-2.3-.2-1.2v-1.4l-1.5-9.3-22-135.6-4.5-28.5-3.8-25.7-3.2-22.7c-1-7-1.8-13.4-2.5-19.3-1.5-11.6-2.5-20.8-3.2-27.1l-1-9.6c.4-1.1 1.7-1.7 2.8-1.3.4.1.7.4 1 .7z"></path><path fill="#31323D" d="M1783.2 2307.4h3.2c2.7.3 5.4.8 8 1.7 1.8.6 3.5 1.3 5.1 2.1 1.9.9 3.6 2 5.3 3.3 1.8 1.3 3.5 2.9 5 4.5.7.9 1.5 1.7 2.2 2.7l1 1.4 1 1.5c1.2 1.9 2.4 4 3.3 6.1.9 2 1.7 4.1 2.4 6.2.4 1 .6 2 .9 3s.5 2 .7 2.9l.6 2.8.4 2.6c.3 1.7.4 3.2.6 4.6s.3 2.5.3 3.5l.2 3.1c-.2 3.5-3.1 6.2-6.6 6-3-.1-5.4-2.3-5.9-5.2v-1l.2-2.7c.1-.9.1-1.9.1-3.1s.1-2.6 0-4v-2.3l-.2-2.4c-.1-.8-.2-1.7-.3-2.5s-.2-1.8-.4-2.6c-.3-1.8-.8-3.6-1.3-5.3-.6-1.8-1.3-3.5-2.1-5.2l-.6-1.3-.7-1.2c-.4-.8-1-1.6-1.5-2.3-1-1.5-2.2-2.8-3.5-4.1-2.3-2.3-5-4.1-8-5.5-2.1-1-4.3-1.7-6.6-2.2l-1.9-.3h-.7c-1.3.1-2.4-1-2.5-2.3s1-2.4 2.3-2.5zm50.6-3.2h3.2c2.7.3 5.4.8 8 1.7 1.8.6 3.5 1.3 5.1 2.1 1.9.9 3.6 2 5.3 3.3 1.8 1.3 3.5 2.9 5 4.5.7.9 1.5 1.7 2.2 2.7l1 1.4 1 1.5c1.2 1.9 2.4 4 3.3 6.1.9 2 1.7 4.1 2.4 6.2.4 1 .6 2 .9 3s.5 2 .7 2.9l.6 2.8.4 2.6c.3 1.7.4 3.2.6 4.6s.3 2.5.3 3.5l.2 3.1c.5 3.4-2 6.6-5.4 7.1-3.4.5-6.6-2-7.1-5.4-.1-.5-.1-1.1 0-1.6v-.3l.2-2.7c.1-.9.1-1.9.1-3.1s.1-2.6 0-4v-2.3l-.2-2.4c-.1-.8-.2-1.7-.3-2.5s-.2-1.8-.4-2.6c-.3-1.8-.8-3.6-1.3-5.3-.6-1.8-1.3-3.5-2.1-5.2l-.6-1.3-.7-1.2c-.4-.8-1-1.6-1.5-2.3-1-1.5-2.2-2.8-3.5-4.1-2.3-2.3-5-4.1-8-5.5-2.1-1-4.3-1.7-6.6-2.2l-1.9-.3h-.7c-1.3.1-2.4-1-2.5-2.3s1-2.4 2.3-2.5z"></path><path fill="none" stroke="#31323D" stroke-width="12.5" stroke-miterlimit="10" d="M1206.2 862.9c-41.5-34.1-105.9-77.5-130.8-42.6-3.4 4.7-3.7 10.9-.9 16l60.5 108.1m472-90.4c24.5-19.2 89.4-68.2 129.3-66.3 8.3.4 14.7 7.4 14.3 15.6-.1 2.6-.9 5.1-2.2 7.3L1684 914.8M931.3 2117.4c-38.1 9.1-130.4 43.4-184.5 78.3-26.5 17.1-10.1 55.9 23.2 55.3l280.4-5.5" stroke-linecap="round"></path><path fill="#31323D" d="M840.5 2200.1l-.7.2-2 .6-3.1 1-4 1.5-4.5 2.1c-1.6.8-3.2 1.8-4.7 2.8-1.6 1.1-3 2.2-4.4 3.5-1.4 1.3-2.6 2.7-3.7 4.2l-.8 1.1-.7 1.2c-.4.8-.8 1.6-1.1 2.4-.2.4-.3.8-.4 1.2l-.3 1.2c-.2.8-.3 1.6-.4 2.4v3.6c0 .4.1.8.1 1.2 0 .7.1 1.5.3 2.2.2.7.3 1.4.5 2.1.3 1.2.7 2.4 1.2 3.6.4 1 .8 1.9 1.2 2.8l1.2 2.4.2.3c1.3 3.2-.3 6.9-3.5 8.2-2.9 1.2-6.2 0-7.8-2.7l-.3-.7-1.1-3.1c-.4-1-.7-2.2-1.1-3.7-.4-1.6-.8-3.3-1-4.9-.1-.9-.2-1.9-.3-2.9-.1-1.1-.1-2.1-.1-3.2v-1.7l.2-1.7c.1-.6.1-1.2.2-1.7l.4-1.8c.3-1.2.6-2.4 1-3.5.2-.6.4-1.1.7-1.7l.8-1.7c.6-1.1 1.3-2.2 2-3.2l1.1-1.5 1.2-1.4c1.6-1.8 3.4-3.5 5.4-4.9 1.8-1.4 3.8-2.6 5.8-3.6 1.9-1 3.8-1.8 5.7-2.6l5.2-1.8 4.4-1.2 3.5-.7 2.3-.3h.8c1.2-.2 2.4.6 2.6 1.8.2 1.2-.6 2.4-1.8 2.6h-.2zm-47.5 2h-.6l-1.7.5c-2 .7-4 1.5-5.9 2.5-1.2.7-2.4 1.4-3.6 2.2-1.2.9-2.4 1.8-3.5 2.9-1.1 1.1-2.1 2.4-2.9 3.7-.8 1.3-1.5 2.7-2 4.2-.2.7-.4 1.5-.6 2.2-.1.8-.3 1.5-.3 2.3-.1 1.5-.1 3.1.1 4.6.2 1.4.4 2.9.8 4.3s.7 2.7 1.2 3.9l.6 1.7.7 1.5.6 1.3.6 1.1 1.1 2.1v.2c1.2 3.3-.5 6.9-3.7 8.1-2.8 1-5.9 0-7.5-2.5l-.3-.8-.9-2.7-.5-1.4-.5-1.7-.5-1.9c-.2-.7-.3-1.4-.5-2.2s-.6-3.3-.8-5.1c-.2-2-.3-3.9-.2-5.9.1-2.1.3-4.2.8-6.3.2-1.1.6-2.1.9-3.2.4-1.1.8-2.1 1.3-3.1 1-2 2.2-3.9 3.6-5.6 1.4-1.6 2.9-3 4.5-4.3 1.5-1.1 3.1-2.1 4.8-3 1.5-.8 3-1.4 4.6-2 2.3-.9 4.7-1.5 7.1-2l2-.3h.8c1.2-.2 2.4.6 2.6 1.8.2 1.2-.6 2.4-1.8 2.6h-.4v.3z"></path><path fill="none" stroke="#31323D" stroke-width="12.5" stroke-miterlimit="10" d="M2020.7 2120.2c47.5 13.8 136.8 46.1 179.8 75.5 26.1 17.8 10.1 55.9-23.2 55.3l-261.6-5.1" stroke-linecap="round"></path><path fill="#31323D" d="M2107.6 2193.7h.8l2.3.4 3.5.8 4.5 1.4 5.2 2c1.9.8 3.8 1.8 5.6 2.8 2 1.1 3.9 2.4 5.7 3.8 1.9 1.5 3.7 3.2 5.3 5.1l1.2 1.5 1.1 1.6c.7 1.1 1.3 2.2 1.9 3.3.3.6.5 1.2.8 1.7s.5 1.2.7 1.8l.6 1.8.3.9.2.9c.3 1.2.5 2.3.6 3.5.1 1.1.2 2.3.2 3.4 0 2.1-.1 4.1-.4 6.2-.2 1.7-.6 3.4-1 5-.4 1.5-.7 2.8-1.1 3.7l-1.1 3.2c-1.6 3.1-5.3 4.4-8.5 2.8-2.5-1.3-3.9-4.1-3.3-6.9l.3-.7.2-.3 1.2-2.4c.4-.8.7-1.7 1.2-2.8s.8-2.3 1.2-3.7c.4-1.4.6-2.9.8-4.4.1-.8.1-1.6.1-2.4 0-.8 0-1.7-.1-2.5v-1.2l-.2-1.3c-.1-.4-.2-.8-.4-1.3-.1-.4-.2-.9-.4-1.3-.3-.9-.7-1.7-1.1-2.5l-.7-1.2-.8-1.2c-1.1-1.6-2.3-3.1-3.7-4.4-1.4-1.4-2.8-2.6-4.4-3.8-1.5-1.1-3.1-2.1-4.7-3l-4.5-2.3c-2.3-1.1-4.7-2.1-7.1-2.9l-2-.6-.7-.2h-.1c-1.2-.4-1.8-1.6-1.5-2.7.3-1 1.3-1.7 2.3-1.6zm47.5 2h.8l2.1.4c2.4.6 4.8 1.4 7.1 2.4 1.5.7 3 1.4 4.5 2.3 1.6 1 3.2 2.1 4.7 3.3 1.6 1.4 3.1 2.9 4.4 4.5 2.1 2.6 3.7 5.6 4.8 8.8.4 1.1.6 2.2.9 3.2s.4 2.2.6 3.3.3 2.2.2 3.2.1 2.1 0 3.1l-.2 2.9c-.3 1.8-.5 3.6-.8 5.2l-.5 2.3-.6 2-.5 1.8-.5 1.4-.9 2.7c-1.6 3.1-5.3 4.4-8.5 2.8-2.5-1.3-3.9-4.1-3.3-6.9l.3-.7v-.3l1.1-2.2.6-1.2.6-1.4.7-1.6.6-1.7c.5-1.2.8-2.6 1.2-4l.4-2.2c.2-.7.2-1.5.3-2.3s.1-1.5.1-2.3-.1-1.6-.1-2.4-.2-1.6-.3-2.4c-.2-.8-.4-1.5-.6-2.3-.5-1.5-1.2-3-2-4.4-.8-1.4-1.8-2.7-2.9-3.9-1.1-1.2-2.3-2.2-3.5-3.2-1.1-.9-2.4-1.7-3.6-2.4-1.9-1.1-3.9-2.1-5.9-2.9l-1.7-.6-.6-.2h-.1c-1-.6-1.4-2-.8-3 .4-.7 1.1-1.1 1.9-1.1z"></path></g><g id="eye"><defs><clipPath id="eyeClipPath"><circle cx="1696" cy="1101.3" r="129.7" fill="#fff" stroke="#31323d" stroke-width="10" stroke-miterlimit="10" transform="translate(381.9 2638.3) rotate(-82.5)" stroke-linecap="round"></circle></clipPath><clipPath id="eyeClipPath2"><circle cx="1168.9" cy="1127" r="129.7" fill="#fff" stroke="#31323d" stroke-width="10" stroke-miterlimit="10" transform="translate(-137.7 163) rotate(-7.5)" stroke-linecap="round"></circle></clipPath></defs><circle cx="1696" cy="1101.3" r="129.7" fill="#fff" transform="translate(381.9 2638.3) rotate(-82.5)"></circle><g clip-path="url(#eyeClipPath)"><circle cx="1653.5" cy="1132.4" r="87.6" fill="#7c40ff" transform="translate(-134.2 226.5) rotate(-7.5)"></circle><circle cx="1657.1" cy="1133.7" r="64.7" fill="#31323d" transform="translate(-134.3 227) rotate(-7.5)"></circle><circle cx="1679.1" cy="1078.3" r="35.2" fill="#fff" transform="translate(-126.9 229.4) rotate(-7.5)"></circle></g><circle cx="1696" cy="1101.3" r="129.7" fill="none" stroke="#31323d" stroke-width="10" stroke-miterlimit="10" transform="translate(381.9 2638.3) rotate(-82.5)" stroke-linecap="round"></circle><path fill="none" stroke="#31323d" stroke-width="30" stroke-miterlimit="10" d="M1828.1 1011.3c-65.3 5.4-115.7-35.5-151.7-66.9" stroke-linecap="round"></path><circle cx="1168.9" cy="1127" r="129.7" fill="#fff" transform="translate(-137.7 163) rotate(-7.5)"></circle><g clip-path="url(#eyeClipPath2)"><circle cx="1211.4" cy="1158.2" r="87.6" fill="#7c40ff" transform="translate(-141.4 168.8) rotate(-7.5)"></circle><circle cx="1215" cy="1159.4" r="64.7" fill="#31323d" transform="translate(-141.5 169.3) rotate(-7.5)"></circle><circle cx="1237.1" cy="1104" r="35.2" fill="#fff" transform="translate(-134 171.7) rotate(-7.5)"></circle></g><circle cx="1168.9" cy="1127" r="129.7" fill="none" stroke="#31323d" stroke-width="10" stroke-miterlimit="10" transform="translate(-137.7 163) rotate(-7.5)" stroke-linecap="round"></circle><path fill="none" stroke="#31323d" stroke-width="30" stroke-miterlimit="10" d="M1036.8 1037c65.3 5.4 115.7-35.5 151.7-66.9" stroke-linecap="round"></path></g><g id="mouth" style="isolation:isolate"><path fill="#31323d" d="M1287.7 1289.4l2.2 1.2c1.4.7 3.6 1.8 6.4 3a120.8 120.8 0 0 0 23.9 7.6c2.5.5 5.2 1 7.9 1.3a83.5 83.5 0 0 0 8.5.6 76.2 76.2 0 0 0 18.1-1.6 66.7 66.7 0 0 0 17.9-6.6 65.5 65.5 0 0 0 8.2-5.3c1.3-.9 2.6-2 3.9-3.1l1.8-1.7 1.8-1.7a96.2 96.2 0 0 0 12.5-15.4 127.5 127.5 0 0 0 9.4-17.1c2.7-5.8 4.8-11.6 6.8-17.1.9-2.8 1.8-5.5 2.6-8.2l1.2-3.9 1-3.8c.7-2.5 1.3-4.9 1.8-7.2l.8-3.3.7-3.2c.9-4.1 1.5-7.7 2.1-10.7s.4-2.8.8-4a10.2 10.2 0 0 1 1.3-2.8 8.9 8.9 0 0 1 1.4-1.6l.6-.5h.1a7.1 7.1 0 0 1 9.7 1.8l.4.7a8.9 8.9 0 0 1 .7 2.1 10.8 10.8 0 0 1 .2 3.2 31.4 31.4 0 0 1-.8 4.1c-.7 3.1-1.5 6.8-2.6 11.1l-.8 3.3-1 3.5c-.7 2.4-1.3 4.9-2.2 7.5l-1.2 4-1.4 4.1c-.9 2.8-2 5.6-3.1 8.6a192.1 192.1 0 0 1-8.1 18 139.3 139.3 0 0 1-11.1 18.1 100.7 100.7 0 0 1-14.9 16.4l-2.1 1.8-2.2 1.8c-1.5 1.1-3 2.3-4.6 3.2a74.9 74.9 0 0 1-9.7 5.5 73.1 73.1 0 0 1-20.6 6.2 76.4 76.4 0 0 1-10.2.8 78.2 78.2 0 0 1-9.7-.4 89.9 89.9 0 0 1-9-1.3c-2.9-.6-5.6-1.2-8.2-2a113.6 113.6 0 0 1-13.9-5c-4-1.7-7.4-3.4-10.2-4.9s-4.8-2.8-6.3-3.7l-2.2-1.4a1.2 1.2 0 0 1 1.4-2z"></path><path fill="#31323d" d="M1591.5 1276.6l-2 1.6c-1.3 1-3.3 2.5-5.9 4.3s-5.8 3.8-9.6 5.9a113.6 113.6 0 0 1-13.3 6.3c-2.5 1-5.2 1.9-8 2.8a89.8 89.8 0 0 1-8.9 2.2 78.2 78.2 0 0 1-9.6 1.3 76.4 76.4 0 0 1-10.2.2 73 73 0 0 1-21.1-4.1 74.9 74.9 0 0 1-10.2-4.5c-1.7-.8-3.3-1.8-4.9-2.8l-2.3-1.5-2.3-1.6a100.7 100.7 0 0 1-16.4-14.9 139.3 139.3 0 0 1-12.8-17 192.1 192.1 0 0 1-9.8-17.1c-1.3-2.8-2.7-5.5-3.9-8.2l-1.8-3.9-1.6-3.8c-1.1-2.5-2-4.9-2.9-7.2l-1.3-3.4-1.1-3.2c-1.5-4.1-2.7-7.8-3.6-10.8a31.5 31.5 0 0 1-1.2-4 10.8 10.8 0 0 1-.1-3.2 8.9 8.9 0 0 1 .5-2.1l.3-.8a7.1 7.1 0 0 1 9.5-2.7h.2l.7.5a8.9 8.9 0 0 1 1.6 1.5 10.2 10.2 0 0 1 1.6 2.7c.5 1.1.7 2.4 1.1 3.9s1.8 6.4 3.1 10.4l1 3.1 1.1 3.3c.8 2.2 1.5 4.6 2.5 7l1.4 3.7 1.5 3.8c1 2.6 2.2 5.2 3.4 7.9 2.5 5.3 5.2 10.9 8.4 16.4a127.5 127.5 0 0 0 11 16.1 96.2 96.2 0 0 0 14 14.1l2 1.5 2 1.5c1.4.9 2.7 1.9 4.1 2.7a65.5 65.5 0 0 0 8.7 4.5 66.7 66.7 0 0 0 18.5 4.8 76.2 76.2 0 0 0 18.2-.2 83.6 83.6 0 0 0 8.4-1.5c2.7-.6 5.3-1.3 7.8-2.1a120.8 120.8 0 0 0 23-9.9c2.7-1.5 4.7-2.7 6.1-3.6l2.1-1.4a1.2 1.2 0 0 1 1.5 1.8z"></path><path fill="#31323d" d="M1376.8 1171.3a12.7 12.7 0 0 1 2.4-13.7c7.2-7.8 23-19.6 53.2-21.3s45.1 8.1 52.3 15.2a12.6 12.6 0 0 1 2.8 13.6 17.7 17.7 0 0 1-15 11.2c-8.5.7-20.2 3.8-27.1 14.8a11.2 11.2 0 0 1-1.5 1.9l-.3.3a15 15 0 0 1-21.5-.1s-6.7-10.3-29.6-10.9a17.6 17.6 0 0 1-15.6-10.7v-.3zm135 163.1l-.4 1.8c-.2.6-.3 1.3-.5 2.2l-1 3-1.4 3.6c-.6 1.3-1.2 2.7-2.1 4.1a56.1 56.1 0 0 1-6.3 9.2 63 63 0 0 1-9.6 9.2l-2.9 2.1-3.1 2c-2.1 1.3-4.4 2.5-6.7 3.6s-4.8 2.1-7.3 3l-3.8 1.2-3.9 1a77.5 77.5 0 0 1-16.2 1.9 81.8 81.8 0 0 1-16.2-1.4 83.6 83.6 0 0 1-15.1-4.4l-.9-.3-.4-.2h-.5l-1.6-.7-3.3-1.6c-2.3-1.1-4.3-2.3-6.3-3.5a76.6 76.6 0 0 1-10.4-7.7 75.2 75.2 0 0 1-7.6-7.8 71.2 71.2 0 0 1-5-6.7c-.7-.9-1.2-1.8-1.6-2.6l-1.1-2-.9-1.7a2.5 2.5 0 0 1 4-2.9h.1l1.2 1.3 3.5 3.4c1.5 1.5 3.5 3.1 5.7 4.9s4.9 3.7 7.9 5.5a91.1 91.1 0 0 0 9.9 5.4l2.8 1.2 2.8 1.1 3 1.1 1.6.6 1.4.4a85.9 85.9 0 0 0 12.9 2.9 81.5 81.5 0 0 0 13.5.8 80.6 80.6 0 0 0 13.4-1.4l3.2-.7 3.2-.8c2.1-.6 4.1-1.3 6.1-2s3.9-1.6 5.7-2.5l2.7-1.4 2.6-1.5a65.7 65.7 0 0 0 8.9-6.4 60.7 60.7 0 0 0 6.7-6.6 72.4 72.4 0 0 0 4.6-5.8l1.5-2.2c.5-.6.8-1.3 1.1-1.8l1-1.6a2.5 2.5 0 0 1 5.1 1.7z"></path><path fill="#595959" d="M1379.1 1342.1s6.2 72.4 67 67.9c58.8-4.3 63-72.5 63-72.5s-20.1 31-58.2 32.8-71.8-28.2-71.8-28.2z" opacity=".2" style="mix-blend-mode:multiply"></path><path fill="#31323d" d="M1503.1 1227l7.4-1.1c4.9-.7 12-1.7 21.1-2.8a703.9 703.9 0 0 1 75.5-4.6 689 689 0 0 1 106.5 7.6c19.3 2.9 39.2 6.8 59.1 11.6s39.9 10.8 59.6 17.7 39 14.7 57.6 23.3l13.8 6.6 13.5 6.9 6.6 3.5 6.5 3.6c4.3 2.4 8.7 4.7 12.8 7.3l12.5 7.4 12 7.6 3 1.9 2.9 1.9 5.7 3.9 5.7 3.8 5.5 3.9c14.6 10.2 27.9 20.7 39.9 30.6s22.6 19.5 31.8 28.2c4.6 4.4 8.9 8.4 12.7 12.3l5.6 5.6 5 5.2c3.2 3.2 5.9 6.2 8.3 8.8l3.3 3.6 2.7 3 5 5.6-5.1-5.5-2.8-3-3.4-3.5c-2.4-2.5-5.2-5.5-8.4-8.7l-5-5.1-5.6-5.5c-3.9-3.8-8.2-7.8-12.9-12.1-9.4-8.5-20-17.9-32.2-27.6s-25.5-19.9-40.3-29.9l-5.5-3.8-5.7-3.7-5.8-3.8-2.9-1.9-3-1.8-12.1-7.4-12.5-7.2c-4.2-2.5-8.5-4.7-12.9-7l-6.5-3.5-6.7-3.4-13.5-6.7-13.8-6.3c-18.6-8.2-37.9-15.7-57.5-22.3s-39.5-12.1-59.3-16.6-39.5-8.1-58.7-10.6a681.3 681.3 0 0 0-105.4-5.9 694.9 694.9 0 0 0-74.5 5.6c-8.9 1.2-15.9 2.3-20.7 3l-7.3 1.2a5 5 0 1 1-1.6-9.9h.1zm-131 7.6l-4.7-.7c-3-.4-7.5-1-13.2-1.6a355.2 355.2 0 0 0-47.4-1.4 343.7 343.7 0 0 0-66.6 8.8 312.1 312.1 0 0 0-36.3 11 298.6 298.6 0 0 0-35.8 16 277.7 277.7 0 0 0-33.3 20.8c-5.3 3.7-10.3 7.8-15.3 11.8s-9.7 8.3-14 12.6l-3.3 3.2-3.2 3.3-6.3 6.5-5.9 6.6c-1.9 2.2-3.7 4.4-5.6 6.6a289.3 289.3 0 0 0-19 25.8c-5.4 8.3-10.1 16.2-13.8 23.3-1 1.8-1.9 3.5-2.7 5.2l-2.5 4.9c-1.5 3.2-2.9 6-4.1 8.7-2.4 5.3-4.1 9.5-5.3 12.4l-1.8 4.4 1.7-4.5c1.1-2.9 2.7-7.2 5-12.5 1.1-2.7 2.5-5.6 3.9-8.8l2.4-4.9c.8-1.7 1.7-3.5 2.6-5.3 3.6-7.3 8.1-15.2 13.3-23.7a291.4 291.4 0 0 1 18.5-26.4c1.8-2.2 3.5-4.6 5.4-6.8l5.8-6.8c2-2.3 4.1-4.5 6.2-6.7l3.2-3.4 3.3-3.3c4.4-4.5 9.1-8.7 13.9-13s9.9-8.4 15.2-12.3a282.2 282.2 0 0 1 33.3-21.9 304.1 304.1 0 0 1 36.1-17.1 318.5 318.5 0 0 1 36.8-12.1 351.3 351.3 0 0 1 67.8-10.6 364.3 364.3 0 0 1 48.7.3c5.9.4 10.5.9 13.6 1.3l4.8.6a5 5 0 0 1-1.3 9.9h-.2z"></path><path fill="#31323d" d="M738.2 1388.8l5.3-4.8c3.5-3.1 8.6-7.7 15.2-13.4 13.3-11.4 32.6-27.2 57.2-44.5a739.6 739.6 0 0 1 87.7-53c16.7-8.6 34.3-16.8 52.5-24.4s37-14.5 56.1-20.6 38.5-11.4 57.7-15.8l14.4-3.1 3.6-.8 3.6-.7 7.1-1.3 7.1-1.3 7.1-1.1 7.1-1.1 3.5-.6 3.5-.5 13.9-1.9 13.7-1.5c4.5-.5 9-.8 13.4-1.2l6.6-.6 6.5-.4 12.7-.7 12.4-.5 12-.2h22.6l10.6.3 10 .4 9.5.5 8.9.6 8.2.7 14.5 1.4 11.7 1.3 8.6 1.1 7.2 1a5 5 0 0 1-1.3 9.9h-.2l-7.1-1.1-8.5-1.2-11.5-1.5-14.3-1.6-8.1-.8-8.8-.7-9.3-.6-9.9-.6-10.4-.4-10.9-.3h-23.2l-12.2.3-12.6.5-6.4.3-6.5.5c-4.4.3-8.8.5-13.3 1l-13.5 1.3-13.8 1.6-3.5.4-3.5.5-7 1-7 1-7.1 1.2-7.1 1.2-3.6.6-3.5.7-14.3 2.9c-19.2 4-38.5 9-57.5 14.8s-37.9 12.4-56.1 19.6-35.9 15.1-52.6 23.4a737.3 737.3 0 0 0-88.2 51.5c-24.8 16.8-44.4 32.4-57.8 43.5-6.7 5.6-11.9 10.1-15.4 13.2zm790-188.9l94.1-6.2 45.6-3 24.9-1.6 12.9-.8 6.6-.4 6.6-.3 6.6-.3 6.7-.2h13.7c2.3-.1 4.6.1 6.9.1l6.9.2 7 .2 7 .5c9.3.5 18.7 1.6 28.1 2.6l14 2 3.5.5 3.5.6 7 1.3 7 1.3 6.9 1.5 6.9 1.5 3.5.8 3.4.9 13.7 3.6 13.4 4.1 3.3 1 3.3 1.1 6.6 2.3 6.5 2.2 6.4 2.5 6.4 2.5c2.1.8 4.2 1.6 6.3 2.5l12.3 5.3 6 2.8 5.9 2.8 5.9 2.8 5.7 3 11.2 5.9 10.7 6.1 10.3 6.1 10 6 18.9 11.3 80.8 48.5-81.6-47.1-19.1-11-10.1-5.8-10.4-5.9-10.8-5.9-11.2-5.7-5.7-2.9-5.9-2.7-5.9-2.7-6-2.7-12.3-5.1c-2.1-.9-4.2-1.6-6.3-2.4l-6.4-2.3-6.4-2.3-6.5-2.1-6.5-2.1-3.3-1.1-3.3-.9-13.4-3.8-13.6-3.3-3.4-.8-3.4-.7-6.9-1.4-6.9-1.4-6.9-1.2-6.9-1.1-3.5-.6-3.5-.5-13.9-1.8c-9.3-.8-18.5-1.8-27.8-2.1l-6.9-.4h-13.7c-2.3 0-4.5-.1-6.8 0l-13.4.3-6.7.3-6.6.4-6.6.4-6.5.5-12.9 1.1-24.8 2-45.5 3.7-94 7.7a5 5 0 1 1-.8-10h.1zm-170.6 56.4l-.6-.2-1.8-.4c-1.6-.4-3.9-.8-6.9-1.3a118.2 118.2 0 0 0-25.1-1.2 106.8 106.8 0 0 0-16.6 2.3 93.4 93.4 0 0 0-17.8 5.9 86.7 86.7 0 0 0-17.3 10.2l-2.1 1.6-2 1.6c-1.3 1.1-2.6 2.3-3.9 3.5a96.2 96.2 0 0 0-7.2 7.6 98.4 98.4 0 0 0-11.8 17.4 106.2 106.2 0 0 0-7.8 18.9 110.3 110.3 0 0 0-4 18.8 119.5 119.5 0 0 0-.9 17.3 117.8 117.8 0 0 0 1.2 14.6c.6 4.3 1.4 8.1 2.1 11.2s1.4 5.5 1.9 7.1l.7 2.5-.9-2.4c-.6-1.6-1.3-4-2.2-7s-1.8-6.8-2.6-11.1a119 119 0 0 1-1.8-14.7 121.6 121.6 0 0 1 .2-17.6 113.1 113.1 0 0 1 3.3-19.4 109.9 109.9 0 0 1 7.2-19.9 102.9 102.9 0 0 1 11.5-18.7 101.4 101.4 0 0 1 7.3-8.4c1.3-1.3 2.6-2.6 4-3.9l2.1-1.9 2.1-1.7a93.1 93.1 0 0 1 18.1-11.7 100.6 100.6 0 0 1 18.9-7.1 114.8 114.8 0 0 1 17.8-3.3 127.2 127.2 0 0 1 27.1.2c3.3.4 5.8.8 7.6 1.1l2 .4h.6a5 5 0 0 1-2 9.8h-.2zm168.9-8.9l2.7-.3 7.9-.6h12.3a128.9 128.9 0 0 1 15.8 1.9 121.4 121.4 0 0 1 37.3 13.4 115.4 115.4 0 0 1 18.3 12.8 106.3 106.3 0 0 1 15.7 16.8 102.7 102.7 0 0 1 6.4 9.6c.9 1.7 1.9 3.3 2.8 5l1.3 2.6 1.1 2.5c.8 1.6 1.5 3.5 2.2 5.2s1.2 3.5 1.8 5.3a103.1 103.1 0 0 1 4.6 31 114.4 114.4 0 0 1-1.5 18.3 128.7 128.7 0 0 1-7.2 26.3c-1.2 3.1-2.3 5.4-3 7l-1.2 2.4 1.1-2.5c.7-1.6 1.7-4 2.7-7.1a127.8 127.8 0 0 0 6-26.4 112.5 112.5 0 0 0 .7-18 100 100 0 0 0-5.7-29.9c-.7-1.7-1.3-3.3-2-5s-1.4-3.2-2.3-4.9a95.2 95.2 0 0 0-11.9-18.4 100.9 100.9 0 0 0-15.6-15.3 109.1 109.1 0 0 0-17.8-11.3 113.8 113.8 0 0 0-35.4-11.1 120.1 120.1 0 0 0-14.8-1.1h-6.2l-5.2.3-7.3.8-2.7.4a5 5 0 1 1-1.5-9.9h.2z"></path></g></svg>