<svg id="Слой_1" data-name="Слой 1" xmlns="http://www.w3.org/2000/svg" xmlns:xlink="http://www.w3.org/1999/xlink" viewBox="0 0 980 454"><defs><style>.cls-orange-1{fill:url(#gr_1696);}.cls-orange-2{fill:url(#gr_1636);}.cls-orange-3{fill:url(#gr_1811);}.cls-orange-4{fill:url(#gr_1820);}.cls-orange-5{fill:url(#gr_1867);}.cls-orange-6{fill:url(#gr_1872);}.cls-orange-7{fill:url(#gr_1773);}.cls-orange-8{fill:url(#gr_1779);}.cls-orange-9{fill:url(#gr_1757);}.cls-orange-10{fill:url(#gr_1685);}.cls-orange-11{fill:url(#gr_1914);}.cls-orange-12{fill:url(#gr_1685-2);}.cls-orange-13{fill:url(#gr_1758);}.cls-orange-14{fill:url(#gr_1874);}.cls-orange-15{fill:url(#gr_1907);}.cls-orange-16{fill:url(#gr_1784);}.cls-orange-17{fill:url(#gr_1784-2);}.cls-orange-18{fill:url(#gr_1784-3);}.cls-orange-19{fill:url(#gr_1784-4);}.cls-orange-20{fill:url(#gr_1784-5);}.cls-orange-21{fill:url(#gr_1784-6);}.cls-orange-22{fill:url(#gr_1784-7);}.cls-orange-23{fill:url(#gr_1925);}.cls-orange-24{fill:url(#gr_431);}.cls-orange-25{fill:url(#gr_1934);}.cls-orange-26{fill:url(#gr_1043);}.cls-orange-27{fill:url(#gr_1048);}.cls-orange-28{fill:url(#gr_1048-2);}.cls-orange-29{fill:url(#gr_1034);}.cls-orange-30{fill:url(#gr_1031);}.cls-orange-31{fill:url(#gr_1089);}.cls-orange-32{fill:url(#gr_1750);}.cls-orange-33{fill:url(#gr_1013);}.cls-orange-34{fill:url(#gr_1013-2);}.cls-orange-35{fill:url(#gr_1013-3);}.cls-orange-36{fill:url(#gr_1013-4);}.cls-orange-37{fill:url(#gr_1013-5);}.cls-orange-38{fill:url(#gr_1013-6);}.cls-orange-39{fill:#e4718b;}.cls-orange-40{opacity:0.1;}.cls-orange-41{fill:#e189bd;}.cls-orange-42{fill:url(#gr_1013-7);}.cls-orange-43{fill:url(#gr_1013-8);}.cls-orange-44{fill:url(#gr_1711);}.cls-orange-45{fill:#e09eed;}.cls-orange-46{fill:url(#gr_1784-8);}.cls-orange-47{fill:url(#gr_1731);}.cls-orange-48{fill:#a595f5;}.cls-orange-49{fill:#a587f5;}.cls-orange-50{fill:url(#gr_1735);}.cls-orange-51{fill:url(#gr_1763);}.cls-orange-52{fill:#6a60da;}.cls-orange-53{fill:url(#gr_1799);}.cls-orange-54{fill:url(#gr_1799-2);}.cls-orange-55{fill:url(#gr_1799-3);}.cls-orange-56{fill:#8081f4;}.cls-orange-57{fill:url(#gr_2556);}.cls-orange-58{fill:url(#gr_2552);}.cls-orange-59{fill:url(#gr_2547);}.cls-orange-60{fill:url(#gr_941);}.cls-orange-61{fill:url(#gr_2);}.cls-orange-62{fill:url(#gr_1850);}.cls-orange-63{fill:url(#gr_1846);}.cls-orange-64{fill:url(#gr_1960);}.cls-orange-65{fill:url(#gr_1325);}.cls-orange-66{fill:url(#gr_1325-2);}.cls-orange-67{fill:url(#gr_1645);}.cls-orange-68{fill:url(#gr_1664);}.cls-orange-69{fill:url(#gr_868);}.cls-orange-70{fill:url(#gr_1918);}.cls-orange-71{fill:#cd5da1;}.cls-orange-72{fill:url(#gr_1942);}.cls-orange-73{fill:#fff;opacity:0.5;}.cls-orange-74{opacity:0.4;}.cls-orange-75{fill:url(#gr_1853);}.cls-orange-76{fill:url(#gr_1096);}.cls-orange-77{fill:url(#gr_1103);}.cls-orange-78{opacity:0.52;}.cls-orange-79{fill:url(#gr_978);}.cls-orange-80{fill:url(#gr_1792);}</style><linearGradient id="gr_1696" x1="735" y1="448.95" x2="735" y2="357.83" gradientUnits="userSpaceOnUse"><stop offset="0" stop-color="#f9b0bd" stop-opacity="0"/><stop offset="0.23" stop-color="#f9b0bd" stop-opacity="0.01"/><stop offset="0.37" stop-color="#f8afbd" stop-opacity="0.05"/><stop offset="0.49" stop-color="#f7adbe" stop-opacity="0.11"/><stop offset="0.59" stop-color="#f5aabe" stop-opacity="0.2"/><stop offset="0.69" stop-color="#f3a7bf" stop-opacity="0.31"/><stop offset="0.78" stop-color="#f0a3bf" stop-opacity="0.45"/><stop offset="0.86" stop-color="#ed9fc0" stop-opacity="0.62"/><stop offset="0.93" stop-color="#ea99c1" stop-opacity="0.81"/><stop offset="1" stop-color="#e694c2"/></linearGradient><linearGradient id="gr_1636" x1="698.79" y1="-682.13" x2="698.79" y2="-773.25" gradientTransform="matrix(1, 0, 0, -1, 0, -319)" gradientUnits="userSpaceOnUse"><stop offset="0" stop-color="#d681b2"/><stop offset="0.04" stop-color="#d987b8" stop-opacity="0.87"/><stop offset="0.12" stop-color="#dd90c2" stop-opacity="0.67"/><stop offset="0.21" stop-color="#e198ca" stop-opacity="0.49"/><stop offset="0.3" stop-color="#e49ed1" stop-opacity="0.34"/><stop offset="0.39" stop-color="#e7a4d7" stop-opacity="0.21"/><stop offset="0.5" stop-color="#e9a8db" stop-opacity="0.12"/><stop offset="0.62" stop-color="#eaabdf" stop-opacity="0.05"/><stop offset="0.76" stop-color="#ebace0" stop-opacity="0.01"/><stop offset="1" stop-color="#ebade1" stop-opacity="0"/></linearGradient><linearGradient id="gr_1811" x1="410.95" y1="-681.13" x2="410.95" y2="-772.25" gradientTransform="matrix(1, 0, 0, -1, 0, -318)" gradientUnits="userSpaceOnUse"><stop offset="0" stop-color="#c390ec"/><stop offset="0" stop-color="#c390ec"/><stop offset="0.07" stop-color="#c393f0" stop-opacity="0.79"/><stop offset="0.15" stop-color="#c396f4" stop-opacity="0.6"/><stop offset="0.23" stop-color="#c298f7" stop-opacity="0.44"/><stop offset="0.32" stop-color="#c29af9" stop-opacity="0.3"/><stop offset="0.41" stop-color="#c29cfb" stop-opacity="0.19"/><stop offset="0.51" stop-color="#c29dfd" stop-opacity="0.11"/><stop offset="0.63" stop-color="#c29efe" stop-opacity="0.05"/><stop offset="0.77" stop-color="#c29fff" stop-opacity="0.01"/><stop offset="1" stop-color="#c29fff" stop-opacity="0"/></linearGradient><linearGradient id="gr_1820" x1="378.97" y1="-681.13" x2="378.97" y2="-772.25" gradientTransform="matrix(1, 0, 0, -1, 0, -318)" gradientUnits="userSpaceOnUse"><stop offset="0" stop-color="#b280ee"/><stop offset="0" stop-color="#b381ee" stop-opacity="0.99"/><stop offset="0.08" stop-color="#bc8ef2" stop-opacity="0.78"/><stop offset="0.15" stop-color="#c49af5" stop-opacity="0.6"/><stop offset="0.23" stop-color="#cba5f8" stop-opacity="0.44"/><stop offset="0.32" stop-color="#d1aefa" stop-opacity="0.3"/><stop offset="0.41" stop-color="#d6b5fc" stop-opacity="0.19"/><stop offset="0.51" stop-color="#dabbfd" stop-opacity="0.11"/><stop offset="0.63" stop-color="#ddbffe" stop-opacity="0.05"/><stop offset="0.77" stop-color="#dfc1ff" stop-opacity="0.01"/><stop offset="1" stop-color="#dfc2ff" stop-opacity="0"/></linearGradient><linearGradient id="gr_1867" x1="280.6" y1="-727.13" x2="280.6" y2="-818.25" gradientTransform="matrix(1, 0, 0, -1, 0, -364)" gradientUnits="userSpaceOnUse"><stop offset="0" stop-color="#dca7e8"/><stop offset="0.07" stop-color="#e3ade8" stop-opacity="0.8"/><stop offset="0.14" stop-color="#e9b3e9" stop-opacity="0.61"/><stop offset="0.23" stop-color="#efb9e9" stop-opacity="0.45"/><stop offset="0.31" stop-color="#f4bde9" stop-opacity="0.31"/><stop offset="0.41" stop-color="#f8c1ea" stop-opacity="0.2"/><stop offset="0.51" stop-color="#fbc4ea" stop-opacity="0.11"/><stop offset="0.63" stop-color="#fdc5ea" stop-opacity="0.05"/><stop offset="0.77" stop-color="#ffc7ea" stop-opacity="0.01"/><stop offset="1" stop-color="#ffc7ea" stop-opacity="0"/></linearGradient><linearGradient id="gr_1872" x1="241.98" y1="-727.13" x2="241.98" y2="-818.25" gradientTransform="matrix(1, 0, 0, -1, 0, -364)" gradientUnits="userSpaceOnUse"><stop offset="0" stop-color="#e397e0"/><stop offset="0.06" stop-color="#e89fe6" stop-opacity="0.82"/><stop offset="0.14" stop-color="#eda8ec" stop-opacity="0.63"/><stop offset="0.22" stop-color="#f2b0f1" stop-opacity="0.46"/><stop offset="0.31" stop-color="#f6b7f5" stop-opacity="0.32"/><stop offset="0.4" stop-color="#f9bdf9" stop-opacity="0.2"/><stop offset="0.51" stop-color="#fcc1fc" stop-opacity="0.11"/><stop offset="0.62" stop-color="#fec4fe" stop-opacity="0.05"/><stop offset="0.76" stop-color="#ffc5ff" stop-opacity="0.01"/><stop offset="1" stop-color="#ffc6ff" stop-opacity="0"/></linearGradient><linearGradient id="gr_1773" x1="574.48" y1="-377.13" x2="574.48" y2="-468.25" gradientTransform="matrix(1, 0, 0, -1, 0, -14)" gradientUnits="userSpaceOnUse"><stop offset="0" stop-color="#7b93ee"/><stop offset="0" stop-color="#7c93ee" stop-opacity="0.99"/><stop offset="0.08" stop-color="#8c93ed" stop-opacity="0.78"/><stop offset="0.15" stop-color="#9a94ed" stop-opacity="0.6"/><stop offset="0.23" stop-color="#a694ec" stop-opacity="0.44"/><stop offset="0.32" stop-color="#b194ec" stop-opacity="0.3"/><stop offset="0.41" stop-color="#b995ec" stop-opacity="0.19"/><stop offset="0.51" stop-color="#c095eb" stop-opacity="0.11"/><stop offset="0.63" stop-color="#c495eb" stop-opacity="0.05"/><stop offset="0.77" stop-color="#c795eb" stop-opacity="0.01"/><stop offset="1" stop-color="#c895eb" stop-opacity="0"/></linearGradient><linearGradient id="gr_1779" x1="538.28" y1="-377.13" x2="538.28" y2="-468.25" gradientTransform="matrix(1, 0, 0, -1, 0, -14)" gradientUnits="userSpaceOnUse"><stop offset="0" stop-color="#6f8be8"/><stop offset="0.07" stop-color="#7c8eed" stop-opacity="0.8"/><stop offset="0.14" stop-color="#8990f1" stop-opacity="0.61"/><stop offset="0.23" stop-color="#9493f5" stop-opacity="0.45"/><stop offset="0.31" stop-color="#9e95f8" stop-opacity="0.31"/><stop offset="0.41" stop-color="#a696fa" stop-opacity="0.2"/><stop offset="0.51" stop-color="#ac97fc" stop-opacity="0.11"/><stop offset="0.63" stop-color="#b098fe" stop-opacity="0.05"/><stop offset="0.77" stop-color="#b299ff" stop-opacity="0.01"/><stop offset="1" stop-color="#b399ff" stop-opacity="0"/></linearGradient><linearGradient id="gr_1757" x1="645.09" y1="415.11" x2="942.88" y2="415.11" gradientUnits="userSpaceOnUse"><stop offset="0" stop-color="#fff" stop-opacity="0"/><stop offset="0.5" stop-color="#fff" stop-opacity="0.7"/><stop offset="1" stop-color="#fff" stop-opacity="0"/></linearGradient><linearGradient id="gr_1685" x1="-2519.55" y1="-637.13" x2="-2519.55" y2="-728.25" gradientTransform="translate(3421.1 1086.08)" gradientUnits="userSpaceOnUse"><stop offset="0" stop-color="#c0aef5"/><stop offset="0.01" stop-color="#c0aff4" stop-opacity="0.96"/><stop offset="0.08" stop-color="#bdb3f1" stop-opacity="0.76"/><stop offset="0.16" stop-color="#bbb7ee" stop-opacity="0.58"/><stop offset="0.24" stop-color="#b9baec" stop-opacity="0.43"/><stop offset="0.33" stop-color="#b8bdea" stop-opacity="0.29"/><stop offset="0.42" stop-color="#b6bfe8" stop-opacity="0.19"/><stop offset="0.52" stop-color="#b5c1e7" stop-opacity="0.1"/><stop offset="0.63" stop-color="#b5c2e6" stop-opacity="0.04"/><stop offset="0.77" stop-color="#b4c3e5" stop-opacity="0.01"/><stop offset="1" stop-color="#b4c3e5" stop-opacity="0"/></linearGradient><linearGradient id="gr_1914" x1="-4221.28" y1="-249.13" x2="-4221.28" y2="-340.25" gradientTransform="translate(4374.55 698.08)" gradientUnits="userSpaceOnUse"><stop offset="0" stop-color="#ac9bff"/><stop offset="0.02" stop-color="#ae9cff" stop-opacity="0.93"/><stop offset="0.09" stop-color="#b5a0ff" stop-opacity="0.74"/><stop offset="0.17" stop-color="#bba4ff" stop-opacity="0.56"/><stop offset="0.25" stop-color="#c0a7ff" stop-opacity="0.41"/><stop offset="0.33" stop-color="#c4a9ff" stop-opacity="0.28"/><stop offset="0.43" stop-color="#c8abff" stop-opacity="0.18"/><stop offset="0.53" stop-color="#cbadff" stop-opacity="0.1"/><stop offset="0.64" stop-color="#cdaeff" stop-opacity="0.04"/><stop offset="0.77" stop-color="#ceafff" stop-opacity="0.01"/><stop offset="1" stop-color="#ceafff" stop-opacity="0"/></linearGradient><linearGradient id="gr_1685-2" x1="-1739.29" y1="-637.13" x2="-1739.29" y2="-728.25" gradientTransform="translate(1860.59 1086.08)" xlink:href="#gr_1685"/><linearGradient id="gr_1758" x1="0.36" y1="415.11" x2="605.58" y2="415.11" gradientUnits="userSpaceOnUse"><stop offset="0" stop-color="#fff" stop-opacity="0"/><stop offset="0.5" stop-color="#fff" stop-opacity="0.3"/><stop offset="1" stop-color="#fff" stop-opacity="0"/></linearGradient><linearGradient id="gr_1874" x1="138.79" y1="357.02" x2="138.79" y2="282.57" gradientUnits="userSpaceOnUse"><stop offset="0" stop-color="#8a8dff"/><stop offset="1" stop-color="#bd73f5" stop-opacity="0"/></linearGradient><linearGradient id="gr_1907" x1="153.28" y1="352.58" x2="153.28" y2="197.94" gradientUnits="userSpaceOnUse"><stop offset="0" stop-color="#8f75ff"/><stop offset="1" stop-color="#bd89ff" stop-opacity="0"/></linearGradient><linearGradient id="gr_1784" x1="153.28" y1="162.19" x2="153.28" y2="252.82" gradientTransform="translate(306.55 387.08) rotate(-180)" gradientUnits="userSpaceOnUse"><stop offset="0" stop-color="#7e6eff"/><stop offset="1" stop-color="#bd73f5" stop-opacity="0"/></linearGradient><linearGradient id="gr_1784-2" x1="153.28" y1="162.19" x2="153.28" y2="252.82" gradientTransform="translate(306.55 358.14) rotate(-180)" xlink:href="#gr_1784"/><linearGradient id="gr_1784-3" x1="153.28" y1="162.19" x2="153.28" y2="252.82" gradientTransform="translate(306.55 329.2) rotate(-180)" xlink:href="#gr_1784"/><linearGradient id="gr_1784-4" x1="153.28" y1="162.19" x2="153.28" y2="252.82" gradientTransform="translate(306.55 444.96) rotate(-180)" xlink:href="#gr_1784"/><linearGradient id="gr_1784-5" x1="153.28" y1="162.19" x2="153.28" y2="252.82" gradientTransform="translate(306.55 416.02) rotate(-180)" xlink:href="#gr_1784"/><linearGradient id="gr_1784-6" x1="153.28" y1="162.19" x2="153.28" y2="252.82" gradientTransform="translate(306.55 502.84) rotate(-180)" xlink:href="#gr_1784"/><linearGradient id="gr_1784-7" x1="153.28" y1="162.19" x2="153.28" y2="252.82" gradientTransform="translate(306.55 473.9) rotate(-180)" xlink:href="#gr_1784"/><linearGradient id="gr_1925" x1="827.33" y1="351.95" x2="827.33" y2="185.85" gradientUnits="userSpaceOnUse"><stop offset="0" stop-color="#1a43ff"/><stop offset="1" stop-color="#9073d6" stop-opacity="0"/></linearGradient><linearGradient id="gr_431" x1="379.57" y1="351.41" x2="379.57" y2="175.57" gradientUnits="userSpaceOnUse"><stop offset="0" stop-color="#6020ff"/><stop offset="1" stop-color="#bd73f5" stop-opacity="0"/></linearGradient><linearGradient id="gr_1934" x1="623.97" y1="348.46" x2="623.97" y2="119.36" gradientUnits="userSpaceOnUse"><stop offset="0" stop-color="#741eec"/><stop offset="1" stop-color="#5f73f5" stop-opacity="0"/></linearGradient><linearGradient id="gr_1043" x1="298.1" y1="361.86" x2="298.1" y2="260.67" gradientUnits="userSpaceOnUse"><stop offset="0" stop-color="#a567d7"/><stop offset="1" stop-color="#ac92f0"/></linearGradient><linearGradient id="gr_1048" x1="258.28" y1="361.57" x2="258.28" y2="260.67" gradientUnits="userSpaceOnUse"><stop offset="0" stop-color="#8360d7"/><stop offset="1" stop-color="#9a86f0"/></linearGradient><linearGradient id="gr_1048-2" x1="281.81" y1="361.57" x2="281.81" y2="260.67" xlink:href="#gr_1048"/><linearGradient id="gr_1034" y1="284.58" x2="392.24" y2="284.58" gradientUnits="userSpaceOnUse"><stop offset="0" stop-color="#d874a7" stop-opacity="0"/><stop offset="1" stop-color="#e684a2"/></linearGradient><linearGradient id="gr_1031" x1="50.84" y1="192.8" x2="340.2" y2="192.8" gradientUnits="userSpaceOnUse"><stop offset="0" stop-color="#e684a2" stop-opacity="0.1"/><stop offset="1" stop-color="#e684a2"/></linearGradient><linearGradient id="gr_1089" x1="693.97" y1="362.36" x2="693.97" y2="70.5" gradientUnits="userSpaceOnUse"><stop offset="0" stop-color="#8a4bdd"/><stop offset="1" stop-color="#b782ff"/></linearGradient><linearGradient id="gr_1750" x1="693.97" y1="78.38" x2="693.97" y2="185.72" gradientUnits="userSpaceOnUse"><stop offset="0" stop-color="#ac6aff"/><stop offset="1" stop-color="#855eff" stop-opacity="0"/></linearGradient><linearGradient id="gr_1013" x1="383.79" y1="382.25" x2="383.79" y2="85" gradientUnits="userSpaceOnUse"><stop offset="0" stop-color="#c96cc3"/><stop offset="0.02" stop-color="#cb6dc0"/><stop offset="0.53" stop-color="#ed7e82"/><stop offset="0.71" stop-color="#e784a1"/><stop offset="0.89" stop-color="#e288b9"/><stop offset="1" stop-color="#e08ac2"/></linearGradient><linearGradient id="gr_1013-2" x1="340.34" y1="382.25" x2="340.34" y2="85" xlink:href="#gr_1013"/><linearGradient id="gr_1013-3" x1="339.14" y1="382.25" x2="339.14" y2="85" xlink:href="#gr_1013"/><linearGradient id="gr_1013-4" x1="337.93" y1="382.25" x2="337.93" y2="85" xlink:href="#gr_1013"/><linearGradient id="gr_1013-5" x1="382.59" y1="382.25" x2="382.59" y2="85" xlink:href="#gr_1013"/><linearGradient id="gr_1013-6" x1="381.38" y1="382.25" x2="381.38" y2="85" xlink:href="#gr_1013"/><linearGradient id="gr_1013-7" x1="337.93" y1="359.55" x2="337.93" y2="96.26" xlink:href="#gr_1013"/><linearGradient id="gr_1013-8" x1="383.79" y1="359.55" x2="383.79" y2="96.26" xlink:href="#gr_1013"/><linearGradient id="gr_1711" x1="809.22" y1="346.84" x2="809.22" y2="88.53" gradientUnits="userSpaceOnUse"><stop offset="0" stop-color="#5775f6"/><stop offset="1" stop-color="#9988f5"/></linearGradient><linearGradient id="gr_1784-8" x1="494.53" y1="349.66" x2="494.53" y2="142.33" gradientTransform="matrix(1, 0, 0, 1, 0, 0)" xlink:href="#gr_1784"/><linearGradient id="gr_1731" x1="770.6" y1="346.84" x2="770.6" y2="88.53" gradientUnits="userSpaceOnUse"><stop offset="0" stop-color="#4f70eb"/><stop offset="1" stop-color="#8f7dff"/></linearGradient><linearGradient id="gr_1735" x1="940.78" y1="351.95" x2="940.78" y2="185.85" gradientUnits="userSpaceOnUse"><stop offset="0" stop-color="#825be4"/><stop offset="1" stop-color="#9f7aff"/></linearGradient><linearGradient id="gr_1763" x1="910.6" y1="351.95" x2="910.6" y2="185.85" gradientUnits="userSpaceOnUse"><stop offset="0" stop-color="#5b4acd"/><stop offset="1" stop-color="#9074eb"/></linearGradient><linearGradient id="gr_1799" x1="604.05" y1="80.79" x2="604.05" y2="163.61" gradientTransform="translate(481.66 726.44) rotate(-90)" gradientUnits="userSpaceOnUse"><stop offset="0" stop-color="#c87dda"/><stop offset="1" stop-color="#c87dda" stop-opacity="0"/></linearGradient><linearGradient id="gr_1799-2" x1="589.57" y1="80.79" x2="589.57" y2="163.61" gradientTransform="translate(467.18 711.96) rotate(-90)" xlink:href="#gr_1799"/><linearGradient id="gr_1799-3" x1="575.09" y1="80.79" x2="575.09" y2="163.61" gradientTransform="translate(452.69 697.48) rotate(-90)" xlink:href="#gr_1799"/><linearGradient id="gr_2556" x1="840" y1="209.82" x2="840" y2="86.61" gradientTransform="translate(691.08 988.92) rotate(-90)" gradientUnits="userSpaceOnUse"><stop offset="0" stop-color="#ffa7da" stop-opacity="0"/><stop offset="1" stop-color="#ffa7da"/></linearGradient><linearGradient id="gr_2552" x1="825.52" y1="130.65" x2="825.52" y2="88.33" gradientTransform="translate(715.79 935.25) rotate(-90)" xlink:href="#gr_2556"/><linearGradient id="gr_2547" x1="854.48" y1="271.94" x2="854.48" y2="85.26" gradientTransform="translate(674.81 1034.15) rotate(-90)" xlink:href="#gr_2556"/><linearGradient id="gr_941" x1="410.95" y1="357.53" x2="410.95" y2="292.24" gradientUnits="userSpaceOnUse"><stop offset="0" stop-color="#a87fd3"/><stop offset="1" stop-color="#c27af4"/></linearGradient><linearGradient id="gr_2" x1="378.97" y1="357.53" x2="378.97" y2="292.24" gradientUnits="userSpaceOnUse"><stop offset="0" stop-color="#9862d3"/><stop offset="1" stop-color="#bd6df4"/></linearGradient><linearGradient id="gr_1850" x1="280.6" y1="358.93" x2="280.6" y2="318.84" gradientUnits="userSpaceOnUse"><stop offset="0" stop-color="#dc92e8"/><stop offset="1" stop-color="#f2b7e3"/></linearGradient><linearGradient id="gr_1846" x1="241.98" y1="358.93" x2="241.98" y2="318.84" gradientUnits="userSpaceOnUse"><stop offset="0" stop-color="#dc89d5"/><stop offset="1" stop-color="#ffa7d3"/></linearGradient><linearGradient id="gr_1960" x1="270.17" y1="272.78" x2="270.17" y2="349.96" gradientUnits="userSpaceOnUse"><stop offset="0" stop-color="#ffe6cb"/><stop offset="1" stop-color="#ffb4e1"/></linearGradient><linearGradient id="gr_1325" x1="247.83" y1="160.57" x2="247.83" y2="93.19" gradientUnits="userSpaceOnUse"><stop offset="0" stop-color="#ffbdc5"/><stop offset="1" stop-color="#ffe7ff"/></linearGradient><linearGradient id="gr_1325-2" x1="192.5" y1="97.03" x2="192.5" y2="49.07" xlink:href="#gr_1325"/><linearGradient id="gr_1645" x1="901.55" y1="358.61" x2="901.55" y2="312.79" gradientUnits="userSpaceOnUse"><stop offset="0" stop-color="#988ce5"/><stop offset="1" stop-color="#d19df3"/></linearGradient><linearGradient id="gr_1664" x1="901.55" y1="312.28" x2="901.55" y2="300.83" gradientUnits="userSpaceOnUse"><stop offset="0" stop-color="#dca6ff"/><stop offset="1" stop-color="#ffc3cc"/></linearGradient><linearGradient id="gr_868" x1="735" y1="357.53" x2="735" y2="292.24" gradientUnits="userSpaceOnUse"><stop offset="0" stop-color="#d47faa"/><stop offset="1" stop-color="#cc6fd6"/></linearGradient><linearGradient id="gr_1918" x1="698.79" y1="357.53" x2="698.79" y2="292.24" gradientUnits="userSpaceOnUse"><stop offset="0" stop-color="#ce6688"/><stop offset="1" stop-color="#dc69c2"/></linearGradient><linearGradient id="gr_1942" x1="121.29" y1="357.02" x2="121.29" y2="282.57" gradientUnits="userSpaceOnUse"><stop offset="0" stop-color="#c88fff"/><stop offset="1" stop-color="#e6bdff"/></linearGradient><linearGradient id="gr_1853" x1="31.38" y1="355.31" x2="31.38" y2="-604.4" gradientUnits="userSpaceOnUse"><stop offset="0" stop-color="#c96cc3"/><stop offset="0.53" stop-color="#ed7e82"/><stop offset="0.71" stop-color="#e784a1"/><stop offset="0.89" stop-color="#e288b9"/><stop offset="1" stop-color="#e08ac2"/></linearGradient><linearGradient id="gr_1096" x1="574.48" y1="351.95" x2="574.48" y2="185.85" gradientUnits="userSpaceOnUse"><stop offset="0" stop-color="#3e60cd"/><stop offset="1" stop-color="#9267eb"/></linearGradient><linearGradient id="gr_1103" x1="538.28" y1="351.95" x2="538.28" y2="185.85" gradientUnits="userSpaceOnUse"><stop offset="0" stop-color="#3c5ed7"/><stop offset="1" stop-color="#8d53d6"/></linearGradient><linearGradient id="gr_978" x1="589.57" y1="203.11" x2="589.57" y2="361.68" gradientUnits="userSpaceOnUse"><stop offset="0" stop-color="#81eaff"/><stop offset="0.77" stop-color="#90acff"/><stop offset="0.99" stop-color="#9499ff"/></linearGradient><linearGradient id="gr_1792" x1="589.57" y1="246.21" x2="589.57" y2="311.42" gradientUnits="userSpaceOnUse"><stop offset="0" stop-color="#b6ffff"/><stop offset="0.78" stop-color="#78e1ff"/><stop offset="0.99" stop-color="#66d9ff"/></linearGradient></defs><title>Cities</title><rect class="cls-orange-1" x="683.71" y="358.08" width="102.59" height="95.92"/><rect class="cls-orange-2" x="683.71" y="358.08" width="30.17" height="95.92"/><rect class="cls-orange-3" x="365.69" y="358.08" width="90.52" height="95.92"/><rect class="cls-orange-4" x="365.69" y="358.08" width="26.55" height="95.92"/><rect class="cls-orange-5" x="231.72" y="358.08" width="97.76" height="95.92"/><rect class="cls-orange-6" x="231.72" y="358.08" width="20.52" height="95.92"/><rect class="cls-orange-7" x="523.19" y="358.08" width="102.59" height="95.92"/><rect class="cls-orange-8" x="523.19" y="358.08" width="30.17" height="95.92"/><polygon class="cls-orange-9" points="932.33 411.8 649.19 411.8 645.09 418.43 927.5 418.43 932.33 411.8"/><rect class="cls-orange-10" x="865.34" y="358.08" width="72.41" height="95.92" transform="translate(1803.1 812.08) rotate(180)"/><rect class="cls-orange-11" x="108.02" y="358.08" width="90.52" height="95.92" transform="translate(306.55 812.08) rotate(180)"/><rect class="cls-orange-12" x="85.09" y="358.08" width="72.41" height="95.92" transform="translate(242.59 812.08) rotate(180)"/><polygon class="cls-orange-13" points="584.14 411.8 4.47 411.8 0.36 418.43 579.31 418.43 584.14 411.8"/><rect class="cls-orange-14" x="45.86" y="282.77" width="185.86" height="78.38"/><rect class="cls-orange-15" x="108.02" y="198.36" width="90.52" height="162.79"/><rect class="cls-orange-16" x="108.02" y="191.13" width="90.52" height="4.82" transform="translate(306.55 387.08) rotate(180)"/><rect class="cls-orange-17" x="108.02" y="176.66" width="90.52" height="4.82" transform="translate(306.55 358.14) rotate(180)"/><rect class="cls-orange-18" x="108.02" y="162.19" width="90.52" height="4.82" transform="translate(306.55 329.2) rotate(180)"/><rect class="cls-orange-19" x="108.02" y="220.07" width="90.52" height="4.82" transform="translate(306.55 444.96) rotate(180)"/><rect class="cls-orange-20" x="108.02" y="205.6" width="90.52" height="4.82" transform="translate(306.55 416.02) rotate(180)"/><rect class="cls-orange-21" x="108.02" y="249.01" width="90.52" height="4.82" transform="translate(306.55 502.84) rotate(180)"/><rect class="cls-orange-22" x="108.02" y="234.54" width="90.52" height="4.82" transform="translate(306.55 473.9) rotate(180)"/><rect class="cls-orange-23" x="701.81" y="186.3" width="251.03" height="174.85"/><rect class="cls-orange-24" x="334.31" y="176.05" width="90.52" height="185.1"/><rect class="cls-orange-25" x="572.67" y="119.98" width="102.59" height="241.17"/><rect class="cls-orange-26" x="252.24" y="258.65" width="91.72" height="102.5"/><rect class="cls-orange-27" x="252.24" y="258.65" width="12.07" height="102.2"/><rect class="cls-orange-28" x="275.78" y="258.65" width="12.07" height="102.2"/><rect class="cls-orange-29" y="282.77" width="392.24" height="3.62"/><path class="cls-orange-30" d="M334.46,136.6c-0.88,2.91-1.86,5.84-2.92,8.71a153.29,153.29,0,0,1-39.67,59.63,144.2,144.2,0,0,1-62,33.81,140.42,140.42,0,0,1-76.51-2.2,145.17,145.17,0,0,1-59.79-37,153.23,153.23,0,0,1-33.23-51.92v15a158,158,0,0,0,28.94,41.15,151.19,151.19,0,0,0,62.28,38.49,146.43,146.43,0,0,0,79.77,2.29,150.23,150.23,0,0,0,64.62-35.21,159.33,159.33,0,0,0,41.24-62c1.1-3,2.12-6,3-9Z"/><polygon class="cls-orange-31" points="693.97 0 643.28 361.15 744.65 361.15 693.97 0"/><rect class="cls-orange-31" x="669.83" y="68.73" width="48.28" height="292.42"/><rect class="cls-orange-32" x="681.9" y="78.38" width="24.14" height="4.82"/><rect class="cls-orange-32" x="681.9" y="92.85" width="24.14" height="4.82"/><rect class="cls-orange-32" x="681.9" y="107.32" width="24.14" height="4.82"/><rect class="cls-orange-32" x="681.9" y="121.79" width="24.14" height="4.82"/><rect class="cls-orange-32" x="681.9" y="136.26" width="24.14" height="4.82"/><rect class="cls-orange-32" x="681.9" y="150.73" width="24.14" height="4.82"/><rect class="cls-orange-32" x="681.9" y="165.2" width="24.14" height="4.82"/><rect class="cls-orange-32" x="681.9" y="179.67" width="24.14" height="4.82"/><rect class="cls-orange-33" x="375.34" y="175.45" width="16.9" height="110.94"/><rect class="cls-orange-34" x="334.31" y="93.45" width="12.07" height="41"/><rect class="cls-orange-35" x="331.9" y="134.45" width="14.48" height="41"/><rect class="cls-orange-36" x="329.48" y="175.45" width="16.9" height="110.94"/><rect class="cls-orange-37" x="375.34" y="134.45" width="14.48" height="41"/><rect class="cls-orange-38" x="375.34" y="93.45" width="12.07" height="41"/><rect class="cls-orange-39" x="346.38" y="175.45" width="28.97" height="18.09"/><rect class="cls-orange-39" x="346.38" y="228.51" width="28.97" height="18.09"/><rect class="cls-orange-39" x="346.38" y="134.45" width="28.97" height="18.09"/><rect class="cls-orange-39" x="346.38" y="93.45" width="28.97" height="18.09"/><g class="cls-orange-40"><rect x="369.31" y="179.67" width="2.41" height="9.65"/><rect x="364.48" y="179.67" width="2.41" height="9.65"/><rect x="359.66" y="179.67" width="2.41" height="9.65"/><rect x="354.83" y="179.67" width="2.41" height="9.65"/><rect x="350" y="179.67" width="2.41" height="9.65"/></g><g class="cls-orange-40"><rect x="369.31" y="232.73" width="2.41" height="9.65"/><rect x="364.48" y="232.73" width="2.41" height="9.65"/><rect x="359.66" y="232.73" width="2.41" height="9.65"/><rect x="354.83" y="232.73" width="2.41" height="9.65"/><rect x="350" y="232.73" width="2.41" height="9.65"/></g><g class="cls-orange-40"><rect x="369.31" y="138.67" width="2.41" height="9.65"/><rect x="364.48" y="138.67" width="2.41" height="9.65"/><rect x="359.66" y="138.67" width="2.41" height="9.65"/><rect x="354.83" y="138.67" width="2.41" height="9.65"/><rect x="350" y="138.67" width="2.41" height="9.65"/></g><g class="cls-orange-40"><rect x="369.31" y="97.67" width="2.41" height="9.65"/><rect x="364.48" y="97.67" width="2.41" height="9.65"/><rect x="359.66" y="97.67" width="2.41" height="9.65"/><rect x="354.83" y="97.67" width="2.41" height="9.65"/><rect x="350" y="97.67" width="2.41" height="9.65"/></g><rect class="cls-orange-41" x="336.72" y="88.63" width="7.24" height="4.82"/><rect class="cls-orange-41" x="377.76" y="88.63" width="7.24" height="4.82"/><rect class="cls-orange-42" x="329.48" y="286.39" width="16.9" height="74.76"/><rect class="cls-orange-43" x="375.34" y="286.39" width="16.9" height="74.76"/><rect class="cls-orange-44" x="761.55" y="89.23" width="95.34" height="271.92"/><rect class="cls-orange-45" x="456.75" y="109.13" width="96.62" height="4.82"/><rect class="cls-orange-45" x="456.75" y="123.6" width="96.62" height="4.82"/><rect class="cls-orange-45" x="456.75" y="138.07" width="96.62" height="4.82"/><rect class="cls-orange-45" x="456.75" y="152.54" width="96.62" height="4.82"/><rect class="cls-orange-45" x="456.75" y="167.01" width="96.62" height="4.82"/><rect class="cls-orange-45" x="456.75" y="181.48" width="96.62" height="4.82"/><rect class="cls-orange-45" x="456.75" y="195.95" width="96.62" height="4.82"/><rect class="cls-orange-45" x="456.75" y="210.42" width="96.62" height="4.82"/><rect class="cls-orange-45" x="456.75" y="224.89" width="96.62" height="4.82"/><rect class="cls-orange-45" x="456.75" y="239.36" width="96.62" height="4.82"/><rect class="cls-orange-45" x="456.75" y="253.83" width="96.62" height="4.82"/><rect class="cls-orange-45" x="456.75" y="268.3" width="96.62" height="4.82"/><rect class="cls-orange-45" x="456.75" y="282.77" width="96.62" height="4.82"/><rect class="cls-orange-45" x="456.75" y="297.24" width="96.62" height="4.82"/><rect class="cls-orange-46" x="435.69" y="142.89" width="117.67" height="218.26"/><rect class="cls-orange-47" x="761.55" y="89.23" width="18.1" height="271.92"/><rect class="cls-orange-48" x="773.02" y="68.73" width="72.41" height="20.5"/><rect class="cls-orange-49" x="773.02" y="68.73" width="18.1" height="20.5"/><rect class="cls-orange-50" x="901.55" y="186.3" width="78.45" height="174.85"/><rect class="cls-orange-51" x="901.55" y="186.3" width="18.1" height="174.85"/><rect class="cls-orange-52" x="891.96" y="269.5" width="144.7" height="4.83" transform="translate(1236.23 -692.39) rotate(90)"/><rect class="cls-orange-52" x="877.48" y="269.5" width="144.7" height="4.83" transform="translate(1221.75 -677.91) rotate(90)"/><rect class="cls-orange-52" x="862.99" y="269.5" width="144.7" height="4.83" transform="translate(1207.26 -663.43) rotate(90)"/><rect class="cls-orange-53" x="561.85" y="119.98" width="84.41" height="4.83" transform="translate(726.44 -481.66) rotate(90)"/><rect class="cls-orange-54" x="547.36" y="119.98" width="84.41" height="4.83" transform="translate(711.96 -467.18) rotate(90)"/><rect class="cls-orange-55" x="532.88" y="119.98" width="84.41" height="4.83" transform="translate(697.48 -452.69) rotate(90)"/><rect class="cls-orange-56" x="718.52" y="222.78" width="271.92" height="4.83" transform="translate(1079.67 -629.29) rotate(90)"/><rect class="cls-orange-56" x="704.04" y="222.78" width="271.92" height="4.83" transform="translate(1065.19 -614.81) rotate(90)"/><rect class="cls-orange-56" x="689.56" y="222.78" width="271.92" height="4.83" transform="translate(1050.71 -600.33) rotate(90)"/><rect class="cls-orange-56" x="675.08" y="222.78" width="271.92" height="4.83" transform="translate(1036.23 -585.84) rotate(90)"/><rect class="cls-orange-56" x="660.59" y="222.78" width="271.92" height="4.83" transform="translate(1021.74 -571.36) rotate(90)"/><rect class="cls-orange-56" x="646.11" y="222.78" width="271.92" height="4.83" transform="translate(1007.26 -556.88) rotate(90)"/><rect class="cls-orange-57" x="780.31" y="146.51" width="119.38" height="4.83" transform="translate(988.92 -691.08) rotate(90)"/><rect class="cls-orange-58" x="805.02" y="107.32" width="41" height="4.83" transform="translate(935.25 -715.79) rotate(90)"/><rect class="cls-orange-59" x="764.04" y="177.26" width="180.88" height="4.83" transform="translate(1034.15 -674.81) rotate(90)"/><rect class="cls-orange-60" x="365.69" y="292.42" width="90.52" height="68.73"/><rect class="cls-orange-61" x="365.69" y="292.42" width="26.55" height="68.73"/><rect class="cls-orange-62" x="231.72" y="318.95" width="97.76" height="42.2"/><rect class="cls-orange-63" x="231.72" y="318.95" width="20.52" height="42.2"/><polygon class="cls-orange-64" points="252.24 318.95 252.24 350.3 288.1 318.95 252.24 318.95"/><path class="cls-orange-65" d="M247.83,142.69c2.85-13.14,15.54-23,30.78-23a34,34,0,0,1,11.09,1.84c-7.23-6.74-19.84-7.65-30.82-1.51a31.66,31.66,0,0,0-11,10.15,31.66,31.66,0,0,0-11-10.15c-11-6.14-23.59-5.23-30.82,1.51a34,34,0,0,1,11.09-1.84C232.29,119.64,245,129.55,247.83,142.69Z"/><path class="cls-orange-66" d="M192.5,84.3c2-9.35,11.06-16.4,21.9-16.4a24.17,24.17,0,0,1,7.89,1.31c-5.14-4.79-14.12-5.44-21.93-1.07a22.53,22.53,0,0,0-7.86,7.22,22.53,22.53,0,0,0-7.86-7.22c-7.81-4.37-16.79-3.72-21.93,1.07a24.17,24.17,0,0,1,7.89-1.31C181.44,67.9,190.47,75,192.5,84.3Z"/><rect class="cls-orange-67" x="865.34" y="312.92" width="72.41" height="48.23"/><rect class="cls-orange-68" x="874.4" y="300.86" width="54.31" height="12.06"/><rect class="cls-orange-69" x="683.71" y="292.42" width="102.59" height="68.73"/><rect class="cls-orange-70" x="683.71" y="292.42" width="30.17" height="68.73"/><rect class="cls-orange-71" x="754.91" y="302.06" width="12.07" height="4.82"/><rect class="cls-orange-71" x="754.91" y="316.53" width="12.07" height="4.82"/><rect class="cls-orange-71" x="754.91" y="331" width="12.07" height="4.82"/><rect class="cls-orange-71" x="754.91" y="345.47" width="12.07" height="4.82"/><rect class="cls-orange-72" x="85.09" y="282.77" width="72.41" height="78.38"/><path class="cls-orange-73" d="M902.17,239.49c1.51-6.95,8.22-12.19,16.28-12.19a18,18,0,0,1,5.86,1c-3.82-3.56-10.49-4-16.3-.8a16.74,16.74,0,0,0-5.84,5.37,16.74,16.74,0,0,0-5.84-5.37c-5.81-3.25-12.48-2.77-16.3.8a18,18,0,0,1,5.86-1C894,227.3,900.66,232.54,902.17,239.49Z"/><g class="cls-orange-74"><path class="cls-orange-75" d="M60.34,175.45v-41H57.93v-41H55.52V88.63H48.28v4.82H14.48V88.63H7.24v4.82H4.83v41H2.41v41H0v185.7H16.9V246.59h29V361.15h16.9V175.45H60.34ZM16.9,111.54h29v22.91h-29V111.54Zm0,41h29v22.91h-29V152.54Zm0,76v-35h29v35h-29Z"/><g class="cls-orange-40"><rect x="39.83" y="179.67" width="2.41" height="9.65"/><rect x="35" y="179.67" width="2.41" height="9.65"/><rect x="30.17" y="179.67" width="2.41" height="9.65"/><rect x="25.34" y="179.67" width="2.41" height="9.65"/><rect x="20.52" y="179.67" width="2.41" height="9.65"/></g><g class="cls-orange-40"><rect x="39.83" y="232.73" width="2.41" height="9.65"/><rect x="35" y="232.73" width="2.41" height="9.65"/><rect x="30.17" y="232.73" width="2.41" height="9.65"/><rect x="25.34" y="232.73" width="2.41" height="9.65"/><rect x="20.52" y="232.73" width="2.41" height="9.65"/></g><g class="cls-orange-40"><rect x="39.83" y="138.67" width="2.41" height="9.65"/><rect x="35" y="138.67" width="2.41" height="9.65"/><rect x="30.17" y="138.67" width="2.41" height="9.65"/><rect x="25.34" y="138.67" width="2.41" height="9.65"/><rect x="20.52" y="138.67" width="2.41" height="9.65"/></g><g class="cls-orange-40"><rect x="39.83" y="97.67" width="2.41" height="9.65"/><rect x="35" y="97.67" width="2.41" height="9.65"/><rect x="30.17" y="97.67" width="2.41" height="9.65"/><rect x="25.34" y="97.67" width="2.41" height="9.65"/><rect x="20.52" y="97.67" width="2.41" height="9.65"/></g></g><rect class="cls-orange-76" x="523.19" y="186.3" width="102.59" height="174.85"/><rect class="cls-orange-77" x="523.19" y="186.3" width="30.17" height="174.85"/><g class="cls-orange-78"><polygon class="cls-orange-79" points="625.78 361.15 625.78 202.58 553.36 266.49 553.36 361.15 625.78 361.15"/></g><polygon class="cls-orange-80" points="625.78 248.4 553.36 311.71 553.36 309.3 625.78 245.99 625.78 248.4"/></svg>
