<svg id="Слой_1" data-name="Слой 1" xmlns="http://www.w3.org/2000/svg" xmlns:xlink="http://www.w3.org/1999/xlink" viewBox="0 0 980 397"><defs><style>.cls-why-1{fill:url(#gr_2725);}.cls-why-2{fill:url(#gr_1413);}.cls-why-3{fill:url(#gr_1341);}.cls-why-4{fill:url(#gr_1341-2);}.cls-why-5{fill:url(#gr_2851);}.cls-why-6{fill:url(#gr_2728);}.cls-why-7{fill:url(#gr_2794);}.cls-why-8{fill:url(#gr_2754);}.cls-why-9{fill:url(#gr_2687);}.cls-why-10{fill:url(#gr_922);}.cls-why-11{fill:url(#gr_931);}.cls-why-12{fill:#6a60da;}.cls-why-13{fill:url(#gr_922-2);}.cls-why-14{fill:url(#gr_931-2);}.cls-why-15{fill:url(#gr_1139);}.cls-why-16{fill:url(#gr_2720);}.cls-why-17{fill:url(#gr_2648);}.cls-why-18{fill:url(#gr_2784);}.cls-why-19{fill:url(#gr_2787);}.cls-why-20{fill:#c6c8ff;}.cls-why-21{fill:#c6a8ff;}.cls-why-22{fill:url(#gr_252);}.cls-why-23{fill:url(#gr_252-2);}.cls-why-24{fill:url(#gr_252-3);}.cls-why-25{fill:url(#gr_252-4);}.cls-why-26{fill:url(#gr_252-5);}.cls-why-27{fill:url(#gr_252-6);}.cls-why-28{fill:url(#gr_252-7);}.cls-why-29{fill:url(#gr_252-8);}.cls-why-30{fill:url(#gr_252-9);}.cls-why-31{fill:url(#gr_252-10);}.cls-why-32{fill:url(#gr_252-11);}.cls-why-33{fill:url(#gr_252-12);}.cls-why-34{fill:url(#gr_252-13);}.cls-why-35{fill:url(#gr_252-14);}.cls-why-36{fill:url(#gr_252-15);}.cls-why-37{fill:url(#gr_252-16);}.cls-why-38{fill:url(#gr_252-17);}.cls-why-39{fill:url(#gr_252-18);}.cls-why-40{fill:url(#gr_252-19);}.cls-why-41{fill:url(#gr_252-20);}.cls-why-42{fill:url(#gr_252-21);}.cls-why-43{fill:url(#gr_252-22);}.cls-why-44{fill:url(#gr_252-23);}.cls-why-45{fill:url(#gr_252-24);}.cls-why-46{fill:url(#gr_252-25);}.cls-why-47{fill:url(#gr_252-26);}.cls-why-48{fill:url(#gr_252-27);}.cls-why-49{fill:url(#gr_252-28);}.cls-why-50{fill:url(#gr_252-29);}.cls-why-51{fill:url(#gr_252-30);}.cls-why-52{fill:url(#gr_252-31);}.cls-why-53{fill:url(#gr_252-32);}.cls-why-54{fill:url(#gr_2862);}.cls-why-55{fill:url(#gr_2868);}.cls-why-56{fill:url(#gr_2695);}.cls-why-57{fill:url(#gr_2699);}.cls-why-58{fill:url(#gr_2699-2);}.cls-why-59{fill:url(#gr_1308);}.cls-why-60{fill:url(#gr_2798);}.cls-why-61{fill:url(#gr_1383);}.cls-why-62{fill:url(#gr_1143);}.cls-why-63{fill:url(#gr_2667);}.cls-why-64{fill:url(#gr_2624);}.cls-why-65{fill:#d95466;}.cls-why-66{fill:url(#gr_2808);}.cls-why-67{fill:url(#gr_2808-2);}.cls-why-68{fill:url(#gr_2808-3);}.cls-why-69{fill:url(#gr_2808-4);}.cls-why-70{fill:url(#gr_2808-5);}.cls-why-71{fill:url(#gr_2808-6);}.cls-why-72{fill:url(#gr_2808-7);}.cls-why-73{fill:url(#gr_2808-8);}.cls-why-74{fill:url(#gr_2808-9);}.cls-why-75{fill:url(#gr_1367);}.cls-why-76{fill:url(#gr_1367-2);}.cls-why-77{fill:url(#gr_1367-3);}.cls-why-78{fill:url(#gr_1367-4);}.cls-why-79{fill:url(#gr_1367-5);}.cls-why-80{fill:url(#gr_1367-6);}.cls-why-81{fill:url(#gr_1367-7);}.cls-why-82{fill:url(#gr_1367-8);}.cls-why-83{fill:url(#gr_1367-9);}.cls-why-84{fill:url(#gr_1367-10);}.cls-why-85{fill:url(#gr_1367-11);}.cls-why-86{fill:url(#gr_1367-12);}.cls-why-87{fill:url(#gr_1367-13);}.cls-why-88{fill:url(#gr_1367-14);}.cls-why-89{fill:url(#gr_1367-15);}.cls-why-90{fill:url(#gr_1367-16);}.cls-why-91{fill:url(#gr_1367-17);}.cls-why-92{fill:url(#gr_1367-18);}.cls-why-93{fill:url(#gr_1367-19);}.cls-why-94{fill:url(#gr_1367-20);}.cls-why-95{fill:url(#gr_1367-21);}.cls-why-96{fill:url(#gr_1367-22);}.cls-why-97{fill:url(#gr_1367-23);}.cls-why-98{fill:url(#gr_1367-24);}.cls-why-99{fill:url(#gr_1367-25);}.cls-why-100{fill:url(#gr_1367-26);}.cls-why-101{fill:url(#gr_1367-27);}.cls-why-102{fill:url(#gr_1367-28);}.cls-why-103{fill:url(#gr_1367-29);}.cls-why-104{fill:url(#gr_1367-30);}.cls-why-105{fill:url(#gr_1367-31);}.cls-why-106{fill:url(#gr_1367-32);}.cls-why-107{fill:url(#gr_1367-33);}.cls-why-108{fill:url(#gr_1367-34);}.cls-why-109{fill:url(#gr_1367-35);}.cls-why-110{fill:url(#gr_1367-36);}.cls-why-111{fill:url(#gr_1367-37);}.cls-why-112{fill:url(#gr_1367-38);}.cls-why-113{fill:url(#gr_2800);}.cls-why-114{fill:url(#gr_2740);}.cls-why-115{fill:url(#gr_1251);}.cls-why-116{fill:url(#gr_1210);}.cls-why-117{fill:#de6534;}.cls-why-118{fill:url(#gr_1268);}.cls-why-119{fill:url(#gr_1241);}.cls-why-120{fill:url(#gr_1421);}.cls-why-121{fill:#eaa421;}.cls-why-122{fill:url(#gr_877);}.cls-why-123{fill:url(#gr_877-2);}.cls-why-124{fill:url(#gr_1431);}.cls-why-125{fill:url(#gr_1251-2);}.cls-why-126{fill:#e9be7b;}.cls-why-127{fill:#ffabb1;}.cls-why-128{fill:url(#gr_877-3);}.cls-why-129{fill:url(#gr_877-4);}.cls-why-130{fill:url(#gr_868);}.cls-why-131{fill:#e74f75;}.cls-why-132{fill:url(#gr_1251-3);}.cls-why-133{fill:url(#gr_1425);}.cls-why-134{fill:url(#gr_2711);}.cls-why-135{fill:url(#gr_2722);}.cls-why-136{fill:#9d93ff;}.cls-why-137{fill:#9d85ff;}.cls-why-138{fill:url(#gr_2740-2);}.cls-why-139{fill:url(#gr_2746);}</style><linearGradient id="gr_2725" x1="61.25" y1="325.12" x2="61.25" y2="147.71" gradientUnits="userSpaceOnUse"><stop offset="0" stop-color="#6a8dff"/><stop offset="1" stop-color="#bd73f5" stop-opacity="0"/></linearGradient><linearGradient id="gr_1413" x1="886.47" y1="328.35" x2="886.47" y2="209.32" gradientUnits="userSpaceOnUse"><stop offset="0" stop-color="#b667b1"/><stop offset="1" stop-color="#bd73f5" stop-opacity="0"/></linearGradient><linearGradient id="gr_1341" x1="197.33" y1="320.05" x2="197.33" y2="51.07" gradientUnits="userSpaceOnUse"><stop offset="0" stop-color="#a77aec"/><stop offset="1" stop-color="#5f73f5" stop-opacity="0"/></linearGradient><linearGradient id="gr_1341-2" x1="808.02" y1="320.05" x2="808.02" y2="51.07" xlink:href="#gr_1341"/><linearGradient id="gr_2851" x1="411.55" y1="317.32" x2="411.55" y2="-0.87" gradientUnits="userSpaceOnUse"><stop offset="0" stop-color="#3d45ff"/><stop offset="0.72" stop-color="#b37ef5"/><stop offset="0.74" stop-color="#b37ef5" stop-opacity="0.97"/><stop offset="0.78" stop-color="#b380f5" stop-opacity="0.89"/><stop offset="0.83" stop-color="#b382f5" stop-opacity="0.76"/><stop offset="0.88" stop-color="#b385f5" stop-opacity="0.58"/><stop offset="0.93" stop-color="#b389f5" stop-opacity="0.35"/><stop offset="0.99" stop-color="#b38ef5" stop-opacity="0.07"/><stop offset="1" stop-color="#b38ff5" stop-opacity="0"/></linearGradient><linearGradient id="gr_2728" x1="582.93" y1="320.08" x2="582.93" y2="62.55" gradientUnits="userSpaceOnUse"><stop offset="0" stop-color="#8164ec"/><stop offset="1" stop-color="#bb82ff" stop-opacity="0"/></linearGradient><linearGradient id="gr_2794" x1="166.55" y1="325.12" x2="166.55" y2="147.71" gradientUnits="userSpaceOnUse"><stop offset="0" stop-color="#4b35f5"/><stop offset="1" stop-color="#56b8e2"/></linearGradient><linearGradient id="gr_2754" x1="649.31" y1="321.95" x2="649.31" y2="87.31" gradientUnits="userSpaceOnUse"><stop offset="0" stop-color="#7272ff"/><stop offset="1" stop-color="#c577ff"/></linearGradient><linearGradient id="gr_2687" x1="607.07" y1="321.95" x2="607.07" y2="87.31" gradientUnits="userSpaceOnUse"><stop offset="0" stop-color="#7257ff"/><stop offset="1" stop-color="#c567ff"/></linearGradient><linearGradient id="gr_922" x1="760.34" y1="326.45" x2="760.34" y2="173.08" gradientUnits="userSpaceOnUse"><stop offset="0" stop-color="#6a60da"/><stop offset="1" stop-color="#9073d6"/></linearGradient><linearGradient id="gr_931" x1="730.17" y1="326.45" x2="730.17" y2="173.08" gradientUnits="userSpaceOnUse"><stop offset="0" stop-color="#5b4acd"/><stop offset="1" stop-color="#9065d6"/></linearGradient><linearGradient id="gr_922-2" x1="62.16" y1="332.1" x2="62.16" y2="280.59" xlink:href="#gr_922"/><linearGradient id="gr_931-2" x1="28.97" y1="332.1" x2="28.97" y2="280.59" xlink:href="#gr_931"/><linearGradient id="gr_1139" x1="735" y1="331.34" x2="735" y2="266.09" gradientUnits="userSpaceOnUse"><stop offset="0" stop-color="#d47faa"/><stop offset="1" stop-color="#e87f71"/></linearGradient><linearGradient id="gr_2720" x1="480.95" y1="321.57" x2="480.95" y2="80.07" gradientUnits="userSpaceOnUse"><stop offset="0" stop-color="#924fd8"/><stop offset="1" stop-color="#8e77ff"/></linearGradient><linearGradient id="gr_2648" x1="444.74" y1="321.57" x2="444.74" y2="80.07" gradientUnits="userSpaceOnUse"><stop offset="0" stop-color="#7745b5"/><stop offset="1" stop-color="#7d60ff"/></linearGradient><linearGradient id="gr_2784" x1="480.95" y1="83.74" x2="480.95" y2="49.98" gradientUnits="userSpaceOnUse"><stop offset="0" stop-color="#925eff"/><stop offset="1" stop-color="#9482ff"/></linearGradient><linearGradient id="gr_2787" x1="451.68" y1="80.73" x2="451.68" y2="51.41" gradientUnits="userSpaceOnUse"><stop offset="0" stop-color="#7e5eff"/><stop offset="1" stop-color="#8382ff"/></linearGradient><linearGradient id="gr_252" x1="515.95" y1="280.13" x2="515.95" y2="93.96" gradientTransform="translate(420.16 611.73) rotate(-90)" gradientUnits="userSpaceOnUse"><stop offset="0.17" stop-color="#ff9ca5" stop-opacity="0"/><stop offset="0.25" stop-color="#ff9ca5" stop-opacity="0.02"/><stop offset="0.36" stop-color="#ff9ca5" stop-opacity="0.08"/><stop offset="0.47" stop-color="#ff9ca5" stop-opacity="0.19"/><stop offset="0.59" stop-color="#ff9ca5" stop-opacity="0.33"/><stop offset="0.72" stop-color="#ff9ca5" stop-opacity="0.51"/><stop offset="0.86" stop-color="#ff9ca5" stop-opacity="0.73"/><stop offset="1" stop-color="#ff9ca5" stop-opacity="0.99"/><stop offset="1" stop-color="#ff9ca5"/></linearGradient><linearGradient id="gr_252-2" x1="500.86" y1="280.13" x2="500.86" y2="93.96" gradientTransform="translate(405.08 596.65) rotate(-90)" xlink:href="#gr_252"/><linearGradient id="gr_252-3" x1="515.95" y1="280.13" x2="515.95" y2="93.96" gradientTransform="translate(408.11 623.78) rotate(-90)" xlink:href="#gr_252"/><linearGradient id="gr_252-4" x1="500.86" y1="280.13" x2="500.86" y2="93.96" gradientTransform="translate(393.03 608.7) rotate(-90)" xlink:href="#gr_252"/><linearGradient id="gr_252-5" x1="515.95" y1="280.13" x2="515.95" y2="93.96" gradientTransform="translate(396.07 635.83) rotate(-90)" xlink:href="#gr_252"/><linearGradient id="gr_252-6" x1="500.86" y1="280.13" x2="500.86" y2="93.96" gradientTransform="translate(380.98 620.75) rotate(-90)" xlink:href="#gr_252"/><linearGradient id="gr_252-7" x1="515.95" y1="280.13" x2="515.95" y2="93.96" gradientTransform="translate(384.02 647.88) rotate(-90)" xlink:href="#gr_252"/><linearGradient id="gr_252-8" x1="500.86" y1="280.13" x2="500.86" y2="93.96" gradientTransform="translate(368.93 632.79) rotate(-90)" xlink:href="#gr_252"/><linearGradient id="gr_252-9" x1="515.95" y1="280.13" x2="515.95" y2="93.96" gradientTransform="translate(371.97 659.93) rotate(-90)" xlink:href="#gr_252"/><linearGradient id="gr_252-10" x1="500.86" y1="280.13" x2="500.86" y2="93.96" gradientTransform="translate(356.88 644.84) rotate(-90)" xlink:href="#gr_252"/><linearGradient id="gr_252-11" x1="515.95" y1="280.13" x2="515.95" y2="93.96" gradientTransform="translate(359.92 671.98) rotate(-90)" xlink:href="#gr_252"/><linearGradient id="gr_252-12" x1="500.86" y1="280.13" x2="500.86" y2="93.96" gradientTransform="translate(344.83 656.89) rotate(-90)" xlink:href="#gr_252"/><linearGradient id="gr_252-13" x1="515.95" y1="280.13" x2="515.95" y2="93.96" gradientTransform="translate(347.87 684.03) rotate(-90)" xlink:href="#gr_252"/><linearGradient id="gr_252-14" x1="500.86" y1="280.13" x2="500.86" y2="93.96" gradientTransform="translate(332.78 668.94) rotate(-90)" xlink:href="#gr_252"/><linearGradient id="gr_252-15" x1="515.95" y1="280.13" x2="515.95" y2="93.96" gradientTransform="translate(335.82 696.07) rotate(-90)" xlink:href="#gr_252"/><linearGradient id="gr_252-16" x1="500.86" y1="280.13" x2="500.86" y2="93.96" gradientTransform="translate(320.74 680.99) rotate(-90)" xlink:href="#gr_252"/><linearGradient id="gr_252-17" x1="515.95" y1="280.13" x2="515.95" y2="93.96" gradientTransform="translate(323.77 708.12) rotate(-90)" xlink:href="#gr_252"/><linearGradient id="gr_252-18" x1="500.86" y1="280.13" x2="500.86" y2="93.96" gradientTransform="translate(308.69 693.04) rotate(-90)" xlink:href="#gr_252"/><linearGradient id="gr_252-19" x1="515.95" y1="280.13" x2="515.95" y2="93.96" gradientTransform="translate(311.73 720.17) rotate(-90)" xlink:href="#gr_252"/><linearGradient id="gr_252-20" x1="500.86" y1="280.13" x2="500.86" y2="93.96" gradientTransform="translate(296.64 705.09) rotate(-90)" xlink:href="#gr_252"/><linearGradient id="gr_252-21" x1="515.95" y1="280.13" x2="515.95" y2="93.96" gradientTransform="translate(299.68 732.22) rotate(-90)" xlink:href="#gr_252"/><linearGradient id="gr_252-22" x1="500.86" y1="280.13" x2="500.86" y2="93.96" gradientTransform="translate(284.59 717.13) rotate(-90)" xlink:href="#gr_252"/><linearGradient id="gr_252-23" x1="515.95" y1="280.13" x2="515.95" y2="93.96" gradientTransform="translate(287.63 744.27) rotate(-90)" xlink:href="#gr_252"/><linearGradient id="gr_252-24" x1="500.86" y1="280.13" x2="500.86" y2="93.96" gradientTransform="translate(272.54 729.18) rotate(-90)" xlink:href="#gr_252"/><linearGradient id="gr_252-25" x1="515.95" y1="280.13" x2="515.95" y2="93.96" gradientTransform="translate(275.58 756.32) rotate(-90)" xlink:href="#gr_252"/><linearGradient id="gr_252-26" x1="500.86" y1="280.13" x2="500.86" y2="93.96" gradientTransform="translate(260.49 741.23) rotate(-90)" xlink:href="#gr_252"/><linearGradient id="gr_252-27" x1="515.95" y1="280.13" x2="515.95" y2="93.96" gradientTransform="translate(263.53 768.37) rotate(-90)" xlink:href="#gr_252"/><linearGradient id="gr_252-28" x1="500.86" y1="280.13" x2="500.86" y2="93.96" gradientTransform="translate(248.44 753.28) rotate(-90)" xlink:href="#gr_252"/><linearGradient id="gr_252-29" x1="515.95" y1="280.13" x2="515.95" y2="93.96" gradientTransform="translate(251.48 780.41) rotate(-90)" xlink:href="#gr_252"/><linearGradient id="gr_252-30" x1="500.86" y1="280.13" x2="500.86" y2="93.96" gradientTransform="translate(236.4 765.33) rotate(-90)" xlink:href="#gr_252"/><linearGradient id="gr_252-31" x1="515.95" y1="280.13" x2="515.95" y2="93.96" gradientTransform="translate(239.43 792.46) rotate(-90)" xlink:href="#gr_252"/><linearGradient id="gr_252-32" x1="500.86" y1="280.13" x2="500.86" y2="93.96" gradientTransform="translate(224.35 777.38) rotate(-90)" xlink:href="#gr_252"/><linearGradient id="gr_2862" x1="170.17" y1="334.43" x2="171.38" y2="257.32" gradientUnits="userSpaceOnUse"><stop offset="0" stop-color="#b751aa"/><stop offset="1" stop-color="#cb6ce6"/></linearGradient><linearGradient id="gr_2868" x1="121.9" y1="330.83" x2="121.9" y2="256.43" gradientUnits="userSpaceOnUse"><stop offset="0" stop-color="#b7339a"/><stop offset="1" stop-color="#cb59e1"/></linearGradient><linearGradient id="gr_2695" x1="544.31" y1="335.66" x2="544.31" y2="234.55" gradientUnits="userSpaceOnUse"><stop offset="0" stop-color="#915bb9"/><stop offset="1" stop-color="#cd76cd"/></linearGradient><linearGradient id="gr_2699" x1="502.67" y1="335.66" x2="502.67" y2="234.55" gradientUnits="userSpaceOnUse"><stop offset="0" stop-color="#913db9"/><stop offset="1" stop-color="#b86bcd"/></linearGradient><linearGradient id="gr_2699-2" x1="526.21" y1="335.66" x2="526.21" y2="234.55" xlink:href="#gr_2699"/><linearGradient id="gr_1308" x1="298.1" y1="322.14" x2="298.1" y2="90.94" gradientUnits="userSpaceOnUse"><stop offset="0" stop-color="#6d8bff"/><stop offset="1" stop-color="#5f73f5" stop-opacity="0"/></linearGradient><linearGradient id="gr_2798" x1="264.91" y1="322.14" x2="264.91" y2="90.94" gradientUnits="userSpaceOnUse"><stop offset="0" stop-color="#655bff"/><stop offset="1" stop-color="#5f73f5" stop-opacity="0"/></linearGradient><linearGradient id="gr_1383" x1="310.17" y1="93.98" x2="310.17" y2="283.14" gradientUnits="userSpaceOnUse"><stop offset="0" stop-color="#e09eed"/><stop offset="1" stop-color="#e09eed" stop-opacity="0"/></linearGradient><linearGradient id="gr_1143" x1="698.79" y1="331.34" x2="698.79" y2="266.09" gradientUnits="userSpaceOnUse"><stop offset="0" stop-color="#cc62a3"/><stop offset="1" stop-color="#ce6688"/></linearGradient><linearGradient id="gr_2667" x1="353.62" y1="331.34" x2="353.62" y2="266.09" gradientUnits="userSpaceOnUse"><stop offset="0" stop-color="#7748ff"/><stop offset="1" stop-color="#9462ff"/></linearGradient><linearGradient id="gr_2624" x1="304.14" y1="331.34" x2="304.14" y2="266.09" gradientUnits="userSpaceOnUse"><stop offset="0" stop-color="#612eff"/><stop offset="1" stop-color="#7b62ff"/></linearGradient><linearGradient id="gr_2808" x1="130.34" y1="148.2" x2="130.34" y2="237.43" gradientTransform="translate(-26.89 287.58) rotate(-90)" gradientUnits="userSpaceOnUse"><stop offset="0" stop-color="#30a7f7"/><stop offset="1" stop-color="#4382e2" stop-opacity="0"/></linearGradient><linearGradient id="gr_2808-2" x1="130.34" y1="148.2" x2="130.34" y2="237.43" gradientTransform="translate(-63.03 323.72) rotate(-90)" xlink:href="#gr_2808"/><linearGradient id="gr_2808-3" x1="130.34" y1="148.2" x2="130.34" y2="237.43" gradientTransform="translate(-99.18 359.87) rotate(-90)" xlink:href="#gr_2808"/><linearGradient id="gr_2808-4" x1="166.55" y1="148.2" x2="166.55" y2="237.43" gradientTransform="translate(9.32 323.79) rotate(-90)" xlink:href="#gr_2808"/><linearGradient id="gr_2808-5" x1="166.55" y1="148.2" x2="166.55" y2="237.43" gradientTransform="translate(-26.83 359.93) rotate(-90)" xlink:href="#gr_2808"/><linearGradient id="gr_2808-6" x1="166.55" y1="148.2" x2="166.55" y2="237.43" gradientTransform="translate(-62.97 396.08) rotate(-90)" xlink:href="#gr_2808"/><linearGradient id="gr_2808-7" x1="202.76" y1="148.2" x2="202.76" y2="237.43" gradientTransform="translate(45.52 359.99) rotate(-90)" xlink:href="#gr_2808"/><linearGradient id="gr_2808-8" x1="202.76" y1="148.2" x2="202.76" y2="237.43" gradientTransform="translate(9.38 396.14) rotate(-90)" xlink:href="#gr_2808"/><linearGradient id="gr_2808-9" x1="202.76" y1="148.2" x2="202.76" y2="237.43" gradientTransform="translate(-26.77 432.28) rotate(-90)" xlink:href="#gr_2808"/><linearGradient id="gr_1367" x1="398.28" y1="9.64" x2="398.28" y2="237.47" gradientTransform="translate(382.01 414.54) rotate(-90)" gradientUnits="userSpaceOnUse"><stop offset="0" stop-color="#a57df7"/><stop offset="1" stop-color="#4382e2" stop-opacity="0"/></linearGradient><linearGradient id="gr_1367-2" x1="380.17" y1="9.64" x2="380.17" y2="237.47" gradientTransform="translate(363.91 396.44) rotate(-90)" xlink:href="#gr_1367"/><linearGradient id="gr_1367-3" x1="398.28" y1="9.64" x2="398.28" y2="237.47" gradientTransform="translate(369.96 426.59) rotate(-90)" xlink:href="#gr_1367"/><linearGradient id="gr_1367-4" x1="380.17" y1="9.64" x2="380.17" y2="237.47" gradientTransform="translate(351.86 408.49) rotate(-90)" xlink:href="#gr_1367"/><linearGradient id="gr_1367-5" x1="398.28" y1="9.64" x2="398.28" y2="237.47" gradientTransform="translate(357.91 438.64) rotate(-90)" xlink:href="#gr_1367"/><linearGradient id="gr_1367-6" x1="380.17" y1="9.64" x2="380.17" y2="237.47" gradientTransform="translate(339.81 420.54) rotate(-90)" xlink:href="#gr_1367"/><linearGradient id="gr_1367-7" x1="398.28" y1="9.64" x2="398.28" y2="237.47" gradientTransform="translate(345.86 450.69) rotate(-90)" xlink:href="#gr_1367"/><linearGradient id="gr_1367-8" x1="380.17" y1="9.64" x2="380.17" y2="237.47" gradientTransform="translate(327.76 432.58) rotate(-90)" xlink:href="#gr_1367"/><linearGradient id="gr_1367-9" x1="398.28" y1="9.64" x2="398.28" y2="237.47" gradientTransform="translate(333.82 462.74) rotate(-90)" xlink:href="#gr_1367"/><linearGradient id="gr_1367-10" x1="380.17" y1="9.64" x2="380.17" y2="237.47" gradientTransform="translate(315.71 444.63) rotate(-90)" xlink:href="#gr_1367"/><linearGradient id="gr_1367-11" x1="398.28" y1="9.64" x2="398.28" y2="237.47" gradientTransform="translate(321.77 474.78) rotate(-90)" xlink:href="#gr_1367"/><linearGradient id="gr_1367-12" x1="380.17" y1="9.64" x2="380.17" y2="237.47" gradientTransform="translate(303.66 456.68) rotate(-90)" xlink:href="#gr_1367"/><linearGradient id="gr_1367-13" x1="398.28" y1="9.64" x2="398.28" y2="237.47" gradientTransform="translate(309.72 486.83) rotate(-90)" xlink:href="#gr_1367"/><linearGradient id="gr_1367-14" x1="380.17" y1="9.64" x2="380.17" y2="237.47" gradientTransform="translate(291.62 468.73) rotate(-90)" xlink:href="#gr_1367"/><linearGradient id="gr_1367-15" x1="398.28" y1="9.64" x2="398.28" y2="237.47" gradientTransform="translate(297.67 498.88) rotate(-90)" xlink:href="#gr_1367"/><linearGradient id="gr_1367-16" x1="380.17" y1="9.64" x2="380.17" y2="237.47" gradientTransform="translate(279.57 480.78) rotate(-90)" xlink:href="#gr_1367"/><linearGradient id="gr_1367-17" x1="398.28" y1="9.64" x2="398.28" y2="237.47" gradientTransform="translate(285.62 510.93) rotate(-90)" xlink:href="#gr_1367"/><linearGradient id="gr_1367-18" x1="380.17" y1="9.64" x2="380.17" y2="237.47" gradientTransform="translate(267.52 492.83) rotate(-90)" xlink:href="#gr_1367"/><linearGradient id="gr_1367-19" x1="398.28" y1="9.64" x2="398.28" y2="237.47" gradientTransform="translate(273.57 522.98) rotate(-90)" xlink:href="#gr_1367"/><linearGradient id="gr_1367-20" x1="380.17" y1="9.64" x2="380.17" y2="237.47" gradientTransform="translate(255.47 504.87) rotate(-90)" xlink:href="#gr_1367"/><linearGradient id="gr_1367-21" x1="398.28" y1="9.64" x2="398.28" y2="237.47" gradientTransform="translate(261.52 535.03) rotate(-90)" xlink:href="#gr_1367"/><linearGradient id="gr_1367-22" x1="380.17" y1="9.64" x2="380.17" y2="237.47" gradientTransform="translate(243.42 516.92) rotate(-90)" xlink:href="#gr_1367"/><linearGradient id="gr_1367-23" x1="398.28" y1="9.64" x2="398.28" y2="237.47" gradientTransform="translate(249.48 547.08) rotate(-90)" xlink:href="#gr_1367"/><linearGradient id="gr_1367-24" x1="380.17" y1="9.64" x2="380.17" y2="237.47" gradientTransform="translate(231.37 528.97) rotate(-90)" xlink:href="#gr_1367"/><linearGradient id="gr_1367-25" x1="398.28" y1="9.64" x2="398.28" y2="237.47" gradientTransform="translate(237.43 559.12) rotate(-90)" xlink:href="#gr_1367"/><linearGradient id="gr_1367-26" x1="380.17" y1="9.64" x2="380.17" y2="237.47" gradientTransform="translate(219.32 541.02) rotate(-90)" xlink:href="#gr_1367"/><linearGradient id="gr_1367-27" x1="398.28" y1="9.64" x2="398.28" y2="237.47" gradientTransform="translate(225.38 571.17) rotate(-90)" xlink:href="#gr_1367"/><linearGradient id="gr_1367-28" x1="380.17" y1="9.64" x2="380.17" y2="237.47" gradientTransform="translate(207.28 553.07) rotate(-90)" xlink:href="#gr_1367"/><linearGradient id="gr_1367-29" x1="398.28" y1="9.64" x2="398.28" y2="237.47" gradientTransform="translate(213.33 583.22) rotate(-90)" xlink:href="#gr_1367"/><linearGradient id="gr_1367-30" x1="380.17" y1="9.64" x2="380.17" y2="237.47" gradientTransform="translate(195.23 565.12) rotate(-90)" xlink:href="#gr_1367"/><linearGradient id="gr_1367-31" x1="398.28" y1="9.64" x2="398.28" y2="237.47" gradientTransform="translate(201.28 595.27) rotate(-90)" xlink:href="#gr_1367"/><linearGradient id="gr_1367-32" x1="380.17" y1="9.64" x2="380.17" y2="237.47" gradientTransform="translate(183.18 577.17) rotate(-90)" xlink:href="#gr_1367"/><linearGradient id="gr_1367-33" x1="398.28" y1="9.64" x2="398.28" y2="237.47" gradientTransform="translate(189.23 607.32) rotate(-90)" xlink:href="#gr_1367"/><linearGradient id="gr_1367-34" x1="380.17" y1="9.64" x2="380.17" y2="237.47" gradientTransform="translate(171.13 589.21) rotate(-90)" xlink:href="#gr_1367"/><linearGradient id="gr_1367-35" x1="398.28" y1="9.64" x2="398.28" y2="237.47" gradientTransform="translate(177.18 619.37) rotate(-90)" xlink:href="#gr_1367"/><linearGradient id="gr_1367-36" x1="380.17" y1="9.64" x2="380.17" y2="237.47" gradientTransform="translate(159.08 601.26) rotate(-90)" xlink:href="#gr_1367"/><linearGradient id="gr_1367-37" x1="398.28" y1="9.64" x2="398.28" y2="237.47" gradientTransform="translate(165.14 631.42) rotate(-90)" xlink:href="#gr_1367"/><linearGradient id="gr_1367-38" x1="380.17" y1="9.64" x2="380.17" y2="237.47" gradientTransform="translate(147.03 613.31) rotate(-90)" xlink:href="#gr_1367"/><linearGradient id="gr_2800" x1="664.4" y1="98.08" x2="664.4" y2="244.34" gradientUnits="userSpaceOnUse"><stop offset="0" stop-color="#cd7cff"/><stop offset="1" stop-color="#ff95aa"/></linearGradient><linearGradient id="gr_2740" x1="130.86" y1="310.63" x2="170.05" y2="266.22" gradientUnits="userSpaceOnUse"><stop offset="0" stop-color="#cd85e2"/><stop offset="1" stop-color="#ff95aa"/></linearGradient><linearGradient id="gr_1251" x1="520.78" y1="393.69" x2="674.05" y2="393.69" gradientUnits="userSpaceOnUse"><stop offset="0" stop-color="#fff" stop-opacity="0"/><stop offset="1" stop-color="#fff"/></linearGradient><linearGradient id="gr_1210" x1="654.23" y1="380.13" x2="810.19" y2="380.13" gradientUnits="userSpaceOnUse"><stop offset="0" stop-color="#b676b5"/><stop offset="1" stop-color="#d78b93"/></linearGradient><linearGradient id="gr_1268" x1="734.4" y1="397" x2="734.4" y2="390.36" gradientUnits="userSpaceOnUse"><stop offset="0" stop-color="#de8693" stop-opacity="0.1"/><stop offset="1" stop-color="#de8693"/></linearGradient><linearGradient id="gr_1241" x1="700.6" y1="369.29" x2="700.6" y2="346.99" gradientUnits="userSpaceOnUse"><stop offset="0" stop-color="#e2c6f2"/><stop offset="1" stop-color="#ebeeea"/></linearGradient><linearGradient id="gr_1421" x1="718.1" y1="369.51" x2="718.1" y2="355.56" gradientUnits="userSpaceOnUse"><stop offset="0" stop-color="#e2d4ff"/><stop offset="1" stop-color="#ffffea"/></linearGradient><linearGradient id="gr_877" x1="383.19" y1="357.3" x2="383.19" y2="304.08" gradientUnits="userSpaceOnUse"><stop offset="0" stop-color="#e2efff"/><stop offset="1" stop-color="#fff"/></linearGradient><linearGradient id="gr_877-2" x1="-1333.71" y1="357.81" x2="-1333.71" y2="313.74" gradientTransform="matrix(-1, 0, 0, 1, -930, 0)" xlink:href="#gr_877"/><linearGradient id="gr_1431" x1="367.7" y1="368.69" x2="416.78" y2="368.69" gradientUnits="userSpaceOnUse"><stop offset="0" stop-color="#d47faa"/><stop offset="1" stop-color="#ff847b"/></linearGradient><linearGradient id="gr_1251-2" x1="322.84" y1="372.6" x2="371.12" y2="372.6" xlink:href="#gr_1251"/><linearGradient id="gr_877-3" x1="185.26" y1="371.57" x2="185.26" y2="293.17" xlink:href="#gr_877"/><linearGradient id="gr_877-4" x1="-1149.05" y1="372.78" x2="-1149.05" y2="316.12" gradientTransform="matrix(-1, 0, 0, 1, -930, 0)" xlink:href="#gr_877"/><linearGradient id="gr_868" x1="159.31" y1="387.06" x2="233.54" y2="387.06" gradientUnits="userSpaceOnUse"><stop offset="0" stop-color="#d47faa"/><stop offset="1" stop-color="#cc6fd6"/></linearGradient><linearGradient id="gr_1251-3" x1="91.12" y1="395.19" x2="160.52" y2="395.19" xlink:href="#gr_1251"/><linearGradient id="gr_1425" x1="195.22" y1="396.7" x2="195.22" y2="393.83" gradientUnits="userSpaceOnUse"><stop offset="0" stop-color="#de8693" stop-opacity="0.1"/><stop offset="1" stop-color="#ff9e9a"/></linearGradient><linearGradient id="gr_2711" x1="899.74" y1="334.21" x2="899.74" y2="68.55" gradientUnits="userSpaceOnUse"><stop offset="0" stop-color="#5d7fff"/><stop offset="1" stop-color="#9d76ff"/></linearGradient><linearGradient id="gr_2722" x1="884.66" y1="328.93" x2="884.66" y2="70.99" gradientUnits="userSpaceOnUse"><stop offset="0.01" stop-color="#5d4bff"/><stop offset="1" stop-color="#9d76ff"/></linearGradient><linearGradient id="gr_2740-2" x1="889.48" y1="332.41" x2="889.48" y2="286.63" xlink:href="#gr_2740"/><linearGradient id="gr_2746" x1="840" y1="332.41" x2="840" y2="286.63" gradientUnits="userSpaceOnUse"><stop offset="0" stop-color="#c172e2"/><stop offset="1" stop-color="#ec87aa"/></linearGradient></defs><title>Cities</title><rect class="cls-why-1" y="148.2" width="122.5" height="186.75"/><rect class="cls-why-2" x="792.93" y="209.64" width="187.07" height="125.31"/><rect class="cls-why-3" x="157.5" y="51.81" width="79.66" height="283.14"/><rect class="cls-why-4" x="766.98" y="51.81" width="82.07" height="283.14"/><rect class="cls-why-5" x="363.28" width="96.55" height="334.95"/><rect class="cls-why-6" x="543.71" y="63.25" width="78.45" height="271.09"/><rect class="cls-why-7" x="121.29" y="148.2" width="90.52" height="186.75"/><rect class="cls-why-8" x="591.98" y="87.95" width="114.66" height="247"/><rect class="cls-why-9" x="591.98" y="87.95" width="30.17" height="247"/><rect class="cls-why-10" x="721.12" y="173.5" width="78.45" height="161.45"/><rect class="cls-why-11" x="721.12" y="173.5" width="18.1" height="161.45"/><rect class="cls-why-12" x="718.21" y="250" width="131.33" height="4.83" transform="translate(1036.3 -531.46) rotate(90)"/><rect class="cls-why-12" x="703.73" y="250" width="131.33" height="4.83" transform="translate(1021.81 -516.98) rotate(90)"/><rect class="cls-why-12" x="689.25" y="250" width="131.33" height="4.83" transform="translate(1007.33 -502.5) rotate(90)"/><rect class="cls-why-13" x="19.91" y="280.73" width="84.48" height="54.22"/><rect class="cls-why-14" x="19.91" y="280.73" width="18.1" height="54.22"/><rect class="cls-why-15" x="683.71" y="266.27" width="102.59" height="68.68"/><rect class="cls-why-16" x="429.66" y="80.73" width="102.59" height="254.22"/><rect class="cls-why-17" x="429.66" y="80.73" width="30.17" height="254.22"/><rect class="cls-why-18" x="443.53" y="50.6" width="74.83" height="30.12"/><rect class="cls-why-19" x="443.53" y="50.6" width="16.29" height="30.12"/><polygon class="cls-why-20" points="518.36 50.6 443.53 50.6 480.95 24.1 518.36 50.6"/><polygon class="cls-why-21" points="459.83 50.6 443.53 50.6 480.95 24.1 459.83 50.6"/><rect class="cls-why-22" x="512.94" y="91.56" width="6.02" height="8.45" transform="translate(611.73 -420.16) rotate(90)"/><rect class="cls-why-23" x="497.85" y="91.56" width="6.02" height="8.45" transform="translate(596.65 -405.08) rotate(90)"/><rect class="cls-why-24" x="512.94" y="103.61" width="6.02" height="8.45" transform="translate(623.78 -408.11) rotate(90)"/><rect class="cls-why-25" x="497.85" y="103.61" width="6.02" height="8.45" transform="translate(608.7 -393.03) rotate(90)"/><rect class="cls-why-26" x="512.94" y="115.66" width="6.02" height="8.45" transform="translate(635.83 -396.07) rotate(90)"/><rect class="cls-why-27" x="497.85" y="115.66" width="6.02" height="8.45" transform="translate(620.75 -380.98) rotate(90)"/><rect class="cls-why-28" x="512.94" y="127.71" width="6.02" height="8.45" transform="translate(647.88 -384.02) rotate(90)"/><rect class="cls-why-29" x="497.85" y="127.71" width="6.02" height="8.45" transform="translate(632.79 -368.93) rotate(90)"/><rect class="cls-why-30" x="512.94" y="139.76" width="6.02" height="8.45" transform="translate(659.93 -371.97) rotate(90)"/><rect class="cls-why-31" x="497.85" y="139.76" width="6.02" height="8.45" transform="translate(644.84 -356.88) rotate(90)"/><rect class="cls-why-32" x="512.94" y="151.8" width="6.02" height="8.45" transform="translate(671.98 -359.92) rotate(90)"/><rect class="cls-why-33" x="497.85" y="151.8" width="6.02" height="8.45" transform="translate(656.89 -344.83) rotate(90)"/><rect class="cls-why-34" x="512.94" y="163.85" width="6.02" height="8.45" transform="translate(684.03 -347.87) rotate(90)"/><rect class="cls-why-35" x="497.85" y="163.85" width="6.02" height="8.45" transform="translate(668.94 -332.78) rotate(90)"/><rect class="cls-why-36" x="512.94" y="175.9" width="6.02" height="8.45" transform="translate(696.07 -335.82) rotate(90)"/><rect class="cls-why-37" x="497.85" y="175.9" width="6.02" height="8.45" transform="translate(680.99 -320.74) rotate(90)"/><rect class="cls-why-38" x="512.94" y="187.95" width="6.02" height="8.45" transform="translate(708.12 -323.77) rotate(90)"/><rect class="cls-why-39" x="497.85" y="187.95" width="6.02" height="8.45" transform="translate(693.04 -308.69) rotate(90)"/><rect class="cls-why-40" x="512.94" y="200" width="6.02" height="8.45" transform="translate(720.17 -311.73) rotate(90)"/><rect class="cls-why-41" x="497.85" y="200" width="6.02" height="8.45" transform="translate(705.09 -296.64) rotate(90)"/><rect class="cls-why-42" x="512.94" y="212.05" width="6.02" height="8.45" transform="translate(732.22 -299.68) rotate(90)"/><rect class="cls-why-43" x="497.85" y="212.05" width="6.02" height="8.45" transform="translate(717.13 -284.59) rotate(90)"/><rect class="cls-why-44" x="512.94" y="224.1" width="6.02" height="8.45" transform="translate(744.27 -287.63) rotate(90)"/><rect class="cls-why-45" x="497.85" y="224.1" width="6.02" height="8.45" transform="translate(729.18 -272.54) rotate(90)"/><rect class="cls-why-46" x="512.94" y="236.14" width="6.02" height="8.45" transform="translate(756.32 -275.58) rotate(90)"/><rect class="cls-why-47" x="497.85" y="236.14" width="6.02" height="8.45" transform="translate(741.23 -260.49) rotate(90)"/><rect class="cls-why-48" x="512.94" y="248.19" width="6.02" height="8.45" transform="translate(768.37 -263.53) rotate(90)"/><rect class="cls-why-49" x="497.85" y="248.19" width="6.02" height="8.45" transform="translate(753.28 -248.44) rotate(90)"/><rect class="cls-why-50" x="512.94" y="260.24" width="6.02" height="8.45" transform="translate(780.41 -251.48) rotate(90)"/><rect class="cls-why-51" x="497.85" y="260.24" width="6.02" height="8.45" transform="translate(765.33 -236.4) rotate(90)"/><rect class="cls-why-52" x="512.94" y="272.29" width="6.02" height="8.45" transform="translate(792.46 -239.43) rotate(90)"/><rect class="cls-why-53" x="497.85" y="272.29" width="6.02" height="8.45" transform="translate(777.38 -224.35) rotate(90)"/><rect class="cls-why-54" x="104.4" y="256.63" width="132.76" height="78.32"/><rect class="cls-why-55" x="104.4" y="256.63" width="35" height="78.32"/><rect class="cls-why-56" x="496.64" y="232.54" width="95.34" height="102.41"/><rect class="cls-why-57" x="496.64" y="232.54" width="12.07" height="102.41"/><rect class="cls-why-58" x="520.17" y="232.54" width="12.07" height="102.41"/><rect class="cls-why-59" x="252.84" y="91.57" width="90.52" height="243.38"/><rect class="cls-why-60" x="252.84" y="91.57" width="24.14" height="243.38"/><rect class="cls-why-61" x="276.98" y="92.77" width="66.38" height="4.82"/><rect class="cls-why-61" x="276.98" y="107.23" width="66.38" height="4.82"/><rect class="cls-why-61" x="276.98" y="121.69" width="66.38" height="4.82"/><rect class="cls-why-61" x="276.98" y="136.15" width="66.38" height="4.82"/><rect class="cls-why-61" x="276.98" y="150.61" width="66.38" height="4.82"/><rect class="cls-why-61" x="276.98" y="165.07" width="66.38" height="4.82"/><rect class="cls-why-61" x="276.98" y="179.52" width="66.38" height="4.82"/><rect class="cls-why-61" x="276.98" y="193.98" width="66.38" height="4.82"/><rect class="cls-why-61" x="276.98" y="208.44" width="66.38" height="4.82"/><rect class="cls-why-61" x="276.98" y="222.9" width="66.38" height="4.82"/><rect class="cls-why-61" x="276.98" y="237.36" width="66.38" height="4.82"/><rect class="cls-why-61" x="276.98" y="251.81" width="66.38" height="4.82"/><rect class="cls-why-61" x="276.98" y="266.27" width="66.38" height="4.82"/><rect class="cls-why-61" x="276.98" y="280.73" width="66.38" height="4.82"/><rect class="cls-why-62" x="683.71" y="266.27" width="30.17" height="68.68"/><rect class="cls-why-63" x="289.05" y="266.27" width="129.14" height="68.68"/><rect class="cls-why-64" x="289.05" y="266.27" width="30.17" height="68.68"/><rect class="cls-why-65" x="742.84" y="275.91" width="6.03" height="4.82"/><rect class="cls-why-65" x="742.84" y="290.37" width="6.03" height="4.82"/><rect class="cls-why-65" x="742.84" y="304.83" width="6.03" height="4.82"/><rect class="cls-why-65" x="742.84" y="319.29" width="6.03" height="4.82"/><rect class="cls-why-65" x="754.91" y="275.91" width="6.03" height="4.82"/><rect class="cls-why-65" x="754.91" y="290.37" width="6.03" height="4.82"/><rect class="cls-why-65" x="754.91" y="304.83" width="6.03" height="4.82"/><rect class="cls-why-65" x="754.91" y="319.29" width="6.03" height="4.82"/><rect class="cls-why-65" x="766.98" y="275.91" width="6.03" height="4.82"/><rect class="cls-why-65" x="766.98" y="290.37" width="6.03" height="4.82"/><rect class="cls-why-65" x="766.98" y="304.83" width="6.03" height="4.82"/><rect class="cls-why-65" x="766.98" y="319.29" width="6.03" height="4.82"/><rect class="cls-why-66" x="121.31" y="148.18" width="18.07" height="18.1" transform="translate(287.58 26.89) rotate(90)"/><rect class="cls-why-67" x="121.31" y="184.33" width="18.07" height="18.1" transform="translate(323.72 63.03) rotate(90)"/><rect class="cls-why-68" x="121.31" y="220.47" width="18.07" height="18.1" transform="translate(359.87 99.18) rotate(90)"/><rect class="cls-why-69" x="157.52" y="148.18" width="18.07" height="18.1" transform="translate(323.79 -9.32) rotate(90)"/><rect class="cls-why-70" x="157.52" y="184.33" width="18.07" height="18.1" transform="translate(359.93 26.83) rotate(90)"/><rect class="cls-why-71" x="157.52" y="220.47" width="18.07" height="18.1" transform="translate(396.08 62.97) rotate(90)"/><rect class="cls-why-72" x="193.72" y="148.18" width="18.07" height="18.1" transform="translate(359.99 -45.52) rotate(90)"/><rect class="cls-why-73" x="193.72" y="184.33" width="18.07" height="18.1" transform="translate(396.14 -9.38) rotate(90)"/><rect class="cls-why-74" x="193.72" y="220.47" width="18.07" height="18.1" transform="translate(432.28 26.77) rotate(90)"/><rect class="cls-why-75" x="395.26" y="12.04" width="6.02" height="8.45" transform="translate(414.54 -382.01) rotate(90)"/><rect class="cls-why-76" x="377.16" y="12.04" width="6.02" height="8.45" transform="translate(396.44 -363.91) rotate(90)"/><rect class="cls-why-77" x="395.26" y="24.09" width="6.02" height="8.45" transform="translate(426.59 -369.96) rotate(90)"/><rect class="cls-why-78" x="377.16" y="24.09" width="6.02" height="8.45" transform="translate(408.49 -351.86) rotate(90)"/><rect class="cls-why-79" x="395.26" y="36.14" width="6.02" height="8.45" transform="translate(438.64 -357.91) rotate(90)"/><rect class="cls-why-80" x="377.16" y="36.14" width="6.02" height="8.45" transform="translate(420.54 -339.81) rotate(90)"/><rect class="cls-why-81" x="395.26" y="48.19" width="6.02" height="8.45" transform="translate(450.69 -345.86) rotate(90)"/><rect class="cls-why-82" x="377.16" y="48.19" width="6.02" height="8.45" transform="translate(432.58 -327.76) rotate(90)"/><rect class="cls-why-83" x="395.26" y="60.24" width="6.02" height="8.45" transform="translate(462.74 -333.82) rotate(90)"/><rect class="cls-why-84" x="377.16" y="60.24" width="6.02" height="8.45" transform="translate(444.63 -315.71) rotate(90)"/><rect class="cls-why-85" x="395.26" y="72.28" width="6.02" height="8.45" transform="translate(474.78 -321.77) rotate(90)"/><rect class="cls-why-86" x="377.16" y="72.28" width="6.02" height="8.45" transform="translate(456.68 -303.66) rotate(90)"/><rect class="cls-why-87" x="395.26" y="84.33" width="6.02" height="8.45" transform="translate(486.83 -309.72) rotate(90)"/><rect class="cls-why-88" x="377.16" y="84.33" width="6.02" height="8.45" transform="translate(468.73 -291.62) rotate(90)"/><rect class="cls-why-89" x="395.26" y="96.38" width="6.02" height="8.45" transform="translate(498.88 -297.67) rotate(90)"/><rect class="cls-why-90" x="377.16" y="96.38" width="6.02" height="8.45" transform="translate(480.78 -279.57) rotate(90)"/><rect class="cls-why-91" x="395.26" y="108.43" width="6.02" height="8.45" transform="translate(510.93 -285.62) rotate(90)"/><rect class="cls-why-92" x="377.16" y="108.43" width="6.02" height="8.45" transform="translate(492.83 -267.52) rotate(90)"/><rect class="cls-why-93" x="395.26" y="120.48" width="6.02" height="8.45" transform="translate(522.98 -273.57) rotate(90)"/><rect class="cls-why-94" x="377.16" y="120.48" width="6.02" height="8.45" transform="translate(504.87 -255.47) rotate(90)"/><rect class="cls-why-95" x="395.26" y="132.53" width="6.02" height="8.45" transform="translate(535.03 -261.52) rotate(90)"/><rect class="cls-why-96" x="377.16" y="132.53" width="6.02" height="8.45" transform="translate(516.92 -243.42) rotate(90)"/><rect class="cls-why-97" x="395.26" y="144.58" width="6.02" height="8.45" transform="translate(547.08 -249.48) rotate(90)"/><rect class="cls-why-98" x="377.16" y="144.58" width="6.02" height="8.45" transform="translate(528.97 -231.37) rotate(90)"/><rect class="cls-why-99" x="395.26" y="156.62" width="6.02" height="8.45" transform="translate(559.12 -237.43) rotate(90)"/><rect class="cls-why-100" x="377.16" y="156.62" width="6.02" height="8.45" transform="translate(541.02 -219.32) rotate(90)"/><rect class="cls-why-101" x="395.26" y="168.67" width="6.02" height="8.45" transform="translate(571.17 -225.38) rotate(90)"/><rect class="cls-why-102" x="377.16" y="168.67" width="6.02" height="8.45" transform="translate(553.07 -207.28) rotate(90)"/><rect class="cls-why-103" x="395.26" y="180.72" width="6.02" height="8.45" transform="translate(583.22 -213.33) rotate(90)"/><rect class="cls-why-104" x="377.16" y="180.72" width="6.02" height="8.45" transform="translate(565.12 -195.23) rotate(90)"/><rect class="cls-why-105" x="395.26" y="192.77" width="6.02" height="8.45" transform="translate(595.27 -201.28) rotate(90)"/><rect class="cls-why-106" x="377.16" y="192.77" width="6.02" height="8.45" transform="translate(577.17 -183.18) rotate(90)"/><rect class="cls-why-107" x="395.26" y="204.82" width="6.02" height="8.45" transform="translate(607.32 -189.23) rotate(90)"/><rect class="cls-why-108" x="377.16" y="204.82" width="6.02" height="8.45" transform="translate(589.21 -171.13) rotate(90)"/><rect class="cls-why-109" x="395.26" y="216.87" width="6.02" height="8.45" transform="translate(619.37 -177.18) rotate(90)"/><rect class="cls-why-110" x="377.16" y="216.87" width="6.02" height="8.45" transform="translate(601.26 -159.08) rotate(90)"/><rect class="cls-why-111" x="395.26" y="228.92" width="6.02" height="8.45" transform="translate(631.42 -165.14) rotate(90)"/><rect class="cls-why-112" x="377.16" y="228.92" width="6.02" height="8.45" transform="translate(613.31 -147.03) rotate(90)"/><polygon class="cls-why-113" points="706.64 171.09 622.15 244.99 622.15 171.49 706.64 97.59 706.64 171.09"/><polygon class="cls-why-114" points="162.33 299.2 139.4 319.39 139.4 276.72 162.33 256.53 162.33 299.2"/><polygon class="cls-why-115" points="668.62 390.37 524.88 390.37 520.78 397 663.79 397 668.62 390.37"/><polygon class="cls-why-116" points="800.17 390.37 668.62 390.37 655.35 369.89 813.45 369.89 800.17 390.37"/><polygon class="cls-why-117" points="664.4 383.75 668.5 390.37 800.29 390.37 804.4 383.75 664.4 383.75"/><polygon class="cls-why-118" points="804.4 397 800.29 390.37 668.5 390.37 664.4 397 804.4 397"/><rect class="cls-why-119" x="683.71" y="344.59" width="33.79" height="25.3"/><rect class="cls-why-117" x="683.71" y="351.22" width="33.79" height="3.61"/><rect class="cls-why-120" x="710.86" y="354.83" width="14.48" height="15.06"/><rect class="cls-why-121" x="751.29" y="363.87" width="16.9" height="6.02"/><rect class="cls-why-117" x="776.03" y="363.87" width="16.9" height="6.02"/><polygon class="cls-why-122" points="395.26 304.23 395.26 360.25 371.12 360.25 395.26 304.23"/><polygon class="cls-why-123" points="397.07 313.87 397.07 360.25 410.35 360.25 397.07 313.87"/><polygon class="cls-why-124" points="365.69 365.67 369.31 371.7 415.78 371.7 418.19 365.67 365.69 365.67"/><polygon class="cls-why-125" points="322.85 371.7 324.65 373.5 371.12 373.5 369.31 371.7 322.85 371.7"/><rect class="cls-why-126" x="387.41" y="360.25" width="18.1" height="5.42"/><polygon class="cls-why-127" points="369.31 371.7 367.5 373.5 417.59 373.5 415.78 371.7 369.31 371.7"/><polygon class="cls-why-128" points="203.97 293.38 203.97 375.92 166.55 375.92 203.97 293.38"/><polygon class="cls-why-129" points="205.78 316.27 205.78 375.92 232.33 375.92 205.78 316.27"/><polygon class="cls-why-130" points="153.28 380.73 160.52 393.38 229.91 393.38 237.16 380.73 153.28 380.73"/><polygon class="cls-why-131" points="158.46 389.77 160.53 393.38 229.91 393.38 231.99 389.77 158.46 389.77"/><polygon class="cls-why-132" points="91.12 393.38 95.34 397 157.5 397 160.52 393.38 91.12 393.38"/><rect class="cls-why-126" x="192.5" y="375.92" width="24.14" height="4.82"/><polygon class="cls-why-133" points="160.52 393.38 157.5 397 232.93 397 229.91 393.38 160.52 393.38"/><polygon class="cls-why-134" points="920.26 171.09 920.26 128.92 899.74 68.07 879.22 128.92 879.22 171.09 869.57 171.09 869.57 334.95 875.6 334.95 923.88 334.95 929.91 334.95 929.91 171.09 920.26 171.09"/><polygon class="cls-why-135" points="899.74 128.92 879.22 128.92 879.22 171.09 869.57 171.09 869.57 334.95 899.74 334.95 899.74 128.92"/><polygon class="cls-why-136" points="920.26 128.92 879.22 128.92 899.74 68.07 920.26 128.92"/><polygon class="cls-why-137" points="899.74 128.92 879.22 128.92 899.74 68.07 899.74 128.92"/><rect class="cls-why-138" x="830.95" y="286.76" width="117.07" height="48.19"/><rect class="cls-why-139" x="830.95" y="286.76" width="18.1" height="48.19"/></svg>
