<svg id="Слой_1" data-name="Слой 1" xmlns="http://www.w3.org/2000/svg" xmlns:xlink="http://www.w3.org/1999/xlink" viewBox="0 0 1400 406"><defs><style>.cls-1{fill:url(#gr_2133);}.cls-2{fill:url(#gr_2354);}.cls-3{fill:url(#gr_2216);}.cls-4{fill:#3f7dff;}.cls-5{fill:url(#gr_416);}.cls-6{fill:url(#gr_18);}.cls-7{fill:url(#gr_2589);}.cls-8{fill:url(#gr_2586);}.cls-9{fill:url(#gr_308);}.cls-10{fill:url(#gr_356);}.cls-11{fill:url(#gr_2943);}.cls-12{fill:url(#gr_1480);}.cls-13{fill:url(#gr_42);}.cls-14{fill:url(#gr_374);}.cls-15{fill:url(#gr_377);}.cls-16{fill:url(#gr_318);}.cls-17{fill:url(#gr_2185);}.cls-18{fill:url(#gr_20);}.cls-19{fill:#00acd5;}.cls-20{fill:url(#gr_2169);}.cls-21{fill:url(#gr_2169-2);}.cls-22{fill:url(#gr_2169-3);}.cls-23{fill:url(#gr_2169-4);}.cls-24{fill:#00b9d3;}.cls-25{fill:url(#gr_2169-5);}.cls-26{fill:url(#gr_2169-6);}.cls-27{fill:url(#gr_2169-7);}.cls-28{fill:url(#gr_2169-8);}.cls-29{fill:url(#gr_2918);}.cls-30{fill:url(#gr_99);}.cls-31{fill:url(#gr_2945);}.cls-32{fill:url(#gr_31);}.cls-33{fill:url(#gr_31-2);}.cls-34{fill:url(#gr_31-3);}.cls-35{fill:url(#gr_31-4);}.cls-36{fill:url(#gr_31-5);}.cls-37{fill:url(#gr_369);}.cls-38{fill:#f5bbdf;}.cls-39{fill:url(#gr_2243);}.cls-40{fill:url(#gr_2243-2);}.cls-41{fill:url(#gr_2182);}.cls-42{opacity:0.15;}.cls-43{fill:#f5abc2;}.cls-44{fill:url(#gr_95);}.cls-45{fill:url(#gr_2231);}.cls-46{fill:url(#gr_22);}.cls-47{fill:#9d92f4;}.cls-48{fill:url(#gr_2547);}.cls-49{fill:url(#gr_2547-2);}.cls-50{opacity:0.35;}.cls-51{fill:#fff;}.cls-52{fill:#00a3db;}.cls-53{fill:url(#gr_357);}.cls-54{fill:#00a3d7;}.cls-55{fill:url(#gr_2169-9);}.cls-56{fill:url(#gr_2169-10);}.cls-57{fill:url(#gr_2169-11);}.cls-58{fill:url(#gr_2169-12);}.cls-59{fill:#02a4d6;}.cls-60{fill:url(#gr_2169-13);}.cls-61{fill:url(#gr_2169-14);}.cls-62{fill:url(#gr_2169-15);}.cls-63{fill:url(#gr_2169-16);}</style><linearGradient id="gr_2133" x1="700" y1="392.89" x2="700" y2="-52.17" gradientUnits="userSpaceOnUse"><stop offset="0" stop-color="#006ecb"/><stop offset="0.23" stop-color="#5d85f0"/><stop offset="0.26" stop-color="#5f86ef" stop-opacity="0.93"/><stop offset="0.37" stop-color="#648aee" stop-opacity="0.69"/><stop offset="0.49" stop-color="#698eec" stop-opacity="0.48"/><stop offset="0.6" stop-color="#6e91ea" stop-opacity="0.31"/><stop offset="0.71" stop-color="#7193e9" stop-opacity="0.17"/><stop offset="0.82" stop-color="#7395e9" stop-opacity="0.08"/><stop offset="0.91" stop-color="#7596e8" stop-opacity="0.02"/><stop offset="1" stop-color="#7596e8" stop-opacity="0"/></linearGradient><linearGradient id="gr_2354" x1="431.47" y1="406.76" x2="431.47" y2="111.59" gradientUnits="userSpaceOnUse"><stop offset="0" stop-color="#853ad4"/><stop offset="0.55" stop-color="#8289ff"/><stop offset="1" stop-color="#e197a7"/></linearGradient><linearGradient id="gr_2216" x1="383.19" y1="406.76" x2="383.19" y2="111.59" gradientUnits="userSpaceOnUse"><stop offset="0" stop-color="#2061d4"/><stop offset="0.55" stop-color="#6489ff"/><stop offset="1" stop-color="#e186a7"/></linearGradient><linearGradient id="gr_416" x1="833.36" y1="406.76" x2="833.36" y2="111.59" gradientUnits="userSpaceOnUse"><stop offset="0.01" stop-color="#7600d4"/><stop offset="0.57" stop-color="#5934e3" stop-opacity="0.42"/><stop offset="1" stop-color="#445bee" stop-opacity="0"/></linearGradient><linearGradient id="gr_18" x1="1065.09" y1="34.11" x2="1065.09" y2="402" gradientUnits="userSpaceOnUse"><stop offset="0" stop-color="#dcb2da"/><stop offset="0.39" stop-color="#a089e0"/><stop offset="1" stop-color="#474cea"/></linearGradient><linearGradient id="gr_2589" x1="348.79" y1="117.85" x2="348.79" y2="402.9" gradientUnits="userSpaceOnUse"><stop offset="0" stop-color="#a193ff"/><stop offset="1" stop-color="#5b4be8"/></linearGradient><linearGradient id="gr_2586" x1="274.57" y1="117.85" x2="274.57" y2="402.9" gradientUnits="userSpaceOnUse"><stop offset="0" stop-color="#887aff"/><stop offset="0.99" stop-color="#4d3be8"/></linearGradient><linearGradient id="gr_308" x1="277.59" y1="290.74" x2="277.59" y2="404.76" gradientUnits="userSpaceOnUse"><stop offset="0" stop-color="#9b5cff"/><stop offset="0.96" stop-color="#9103b8"/><stop offset="0.99" stop-color="#9100b6"/></linearGradient><linearGradient id="gr_356" x1="219.05" y1="290.74" x2="219.05" y2="404.76" gradientUnits="userSpaceOnUse"><stop offset="0" stop-color="#9b0aff"/><stop offset="0.99" stop-color="#7d00a3"/></linearGradient><linearGradient id="gr_2943" x1="761.55" y1="16.1" x2="761.55" y2="401.8" gradientUnits="userSpaceOnUse"><stop offset="0" stop-color="#c675ff"/><stop offset="0.06" stop-color="#c072fd"/><stop offset="1" stop-color="#6742e3"/></linearGradient><linearGradient id="gr_1480" x1="761.55" y1="149.99" x2="761.55" y2="337.24" gradientUnits="userSpaceOnUse"><stop offset="0" stop-color="#4191ff"/><stop offset="0.64" stop-color="#4191ff" stop-opacity="0.35"/><stop offset="1" stop-color="#4191ff" stop-opacity="0"/></linearGradient><linearGradient id="gr_42" x1="1132.67" y1="288.42" x2="1132.67" y2="404.62" gradientUnits="userSpaceOnUse"><stop offset="0" stop-color="#e583cb"/><stop offset="0.41" stop-color="#9668d6"/><stop offset="1" stop-color="#2a43e4"/></linearGradient><linearGradient id="gr_374" x1="1095.86" y1="288.42" x2="1095.86" y2="404.62" gradientUnits="userSpaceOnUse"><stop offset="0" stop-color="#a368cb"/><stop offset="0.15" stop-color="#905ece"/><stop offset="1" stop-color="#2323e2"/></linearGradient><linearGradient id="gr_377" x1="1095.86" y1="295.77" x2="1095.86" y2="406.6" gradientUnits="userSpaceOnUse"><stop offset="0" stop-color="#a356cb"/><stop offset="0.07" stop-color="#9b50cc"/><stop offset="1" stop-color="#2e00df"/></linearGradient><linearGradient id="gr_318" x1="286.64" y1="405.4" x2="286.64" y2="331.31" gradientUnits="userSpaceOnUse"><stop offset="0.01" stop-color="#7d00a3"/><stop offset="1" stop-color="#9b0aff"/></linearGradient><linearGradient id="gr_2185" x1="518.97" y1="171.88" x2="518.97" y2="403.48" gradientUnits="userSpaceOnUse"><stop offset="0" stop-color="#c891ea"/><stop offset="0.99" stop-color="#8144d9"/></linearGradient><linearGradient id="gr_20" x1="479.74" y1="171.88" x2="479.74" y2="403.48" gradientUnits="userSpaceOnUse"><stop offset="0" stop-color="#c87dd3"/><stop offset="0.85" stop-color="#6f34e1"/><stop offset="0.99" stop-color="#5f27e3"/></linearGradient><linearGradient id="gr_2169" x1="1005.65" y1="278.33" x2="968.27" y2="309.68" gradientUnits="userSpaceOnUse"><stop offset="0" stop-color="#00a1d7"/><stop offset="1" stop-color="#00dcce"/></linearGradient><linearGradient id="gr_2169-2" x1="1021.74" y1="276.34" x2="1056.71" y2="314.93" xlink:href="#gr_2169"/><linearGradient id="gr_2169-3" x1="994.09" y1="280.1" x2="994.09" y2="237.9" xlink:href="#gr_2169"/><linearGradient id="gr_2169-4" x1="1029.87" y1="280.1" x2="1029.87" y2="237.9" xlink:href="#gr_2169"/><linearGradient id="gr_2169-5" x1="381.44" y1="338.15" x2="381.44" y2="278.95" xlink:href="#gr_2169"/><linearGradient id="gr_2169-6" x1="411.49" y1="338.15" x2="411.49" y2="278.95" xlink:href="#gr_2169"/><linearGradient id="gr_2169-7" x1="383.69" y1="338.15" x2="383.69" y2="278.95" xlink:href="#gr_2169"/><linearGradient id="gr_2169-8" x1="409.24" y1="338.15" x2="409.24" y2="278.95" xlink:href="#gr_2169"/><linearGradient id="gr_2918" x1="1012.59" y1="402.39" x2="1012.59" y2="337.15" gradientUnits="userSpaceOnUse"><stop offset="0" stop-color="#b656aa"/><stop offset="1" stop-color="#a073e5"/></linearGradient><linearGradient id="gr_99" x1="982.41" y1="402.39" x2="982.41" y2="337.15" gradientUnits="userSpaceOnUse"><stop offset="0" stop-color="#a923aa"/><stop offset="1" stop-color="#925ae5"/></linearGradient><linearGradient id="gr_2945" x1="722.33" y1="16.1" x2="722.33" y2="401.8" gradientUnits="userSpaceOnUse"><stop offset="0" stop-color="#c675ff"/><stop offset="0.06" stop-color="#c070fd"/><stop offset="1" stop-color="#672ae3"/></linearGradient><linearGradient id="gr_31" x1="519.87" y1="402.39" x2="519.87" y2="181.15" gradientUnits="userSpaceOnUse"><stop offset="0" stop-color="#0097d7"/><stop offset="1" stop-color="#00d3ce"/></linearGradient><linearGradient id="gr_31-2" x1="498.53" y1="372.87" x2="498.53" y2="188.51" xlink:href="#gr_31"/><linearGradient id="gr_31-3" x1="540.6" y1="372.87" x2="540.6" y2="188.51" xlink:href="#gr_31"/><linearGradient id="gr_31-4" x1="501.68" y1="225.59" x2="501.68" y2="184.86" xlink:href="#gr_31"/><linearGradient id="gr_31-5" x1="537.46" y1="225.59" x2="537.46" y2="184.86" xlink:href="#gr_31"/><linearGradient id="gr_369" x1="289.13" y1="310.27" x2="330.11" y2="234.34" gradientUnits="userSpaceOnUse"><stop offset="0" stop-color="#556aff"/><stop offset="0.32" stop-color="#5189f8"/><stop offset="1" stop-color="#48c7e9"/></linearGradient><linearGradient id="gr_2243" x1="615.52" y1="160.84" x2="615.52" y2="111.07" gradientUnits="userSpaceOnUse"><stop offset="0" stop-color="#c38aff"/><stop offset="1" stop-color="#e9a3e1"/></linearGradient><linearGradient id="gr_2243-2" x1="615.52" y1="210.83" x2="615.52" y2="158.2" xlink:href="#gr_2243"/><linearGradient id="gr_2182" x1="615.52" y1="406.49" x2="615.52" y2="213.74" gradientUnits="userSpaceOnUse"><stop offset="0" stop-color="#c35aff"/><stop offset="1" stop-color="#cf99e1"/></linearGradient><linearGradient id="gr_95" x1="622.76" y1="226.14" x2="622.76" y2="391.71" gradientUnits="userSpaceOnUse"><stop offset="0.01" stop-color="#ffa4ff"/><stop offset="0.14" stop-color="#faa3f8" stop-opacity="0.86"/><stop offset="0.74" stop-color="#e29cdc" stop-opacity="0.25"/><stop offset="1" stop-color="#d99ad0" stop-opacity="0"/></linearGradient><linearGradient id="gr_2231" x1="895.52" y1="406.49" x2="895.52" y2="213.73" gradientUnits="userSpaceOnUse"><stop offset="0" stop-color="#7ca8ff"/><stop offset="0.15" stop-color="#8ca5fa"/><stop offset="1" stop-color="#e595de"/></linearGradient><linearGradient id="gr_22" x1="856.9" y1="406.49" x2="856.9" y2="213.73" gradientUnits="userSpaceOnUse"><stop offset="0" stop-color="#7c61ff"/><stop offset="1" stop-color="#c795de"/></linearGradient><linearGradient id="gr_2547" x1="942.59" y1="404.8" x2="942.59" y2="214.42" gradientTransform="translate(632.97 1252.21) rotate(-90)" gradientUnits="userSpaceOnUse"><stop offset="0" stop-color="#ffa7da" stop-opacity="0"/><stop offset="1" stop-color="#ffa7da"/></linearGradient><linearGradient id="gr_2547-2" x1="913.62" y1="404.8" x2="913.62" y2="214.42" gradientTransform="translate(604 1223.24) rotate(-90)" xlink:href="#gr_2547"/><linearGradient id="gr_357" x1="1082.89" y1="156.62" x2="1082.89" y2="283.14" gradientUnits="userSpaceOnUse"><stop offset="0" stop-color="#00dcce"/><stop offset="1" stop-color="#00a1d7"/></linearGradient><linearGradient id="gr_2169-9" x1="666.24" y1="303.92" x2="642.73" y2="329.24" xlink:href="#gr_2169"/><linearGradient id="gr_2169-10" x1="679.82" y1="302.52" x2="706.95" y2="329.05" xlink:href="#gr_2169"/><linearGradient id="gr_2169-11" x1="677.77" y1="301.8" x2="651.84" y2="275.27" xlink:href="#gr_2169"/><linearGradient id="gr_2169-12" x1="669.96" y1="300.77" x2="697.09" y2="277.26" xlink:href="#gr_2169"/><linearGradient id="gr_2169-13" x1="606.12" y1="327.35" x2="578.68" y2="353.28" xlink:href="#gr_2169"/><linearGradient id="gr_2169-14" x1="616.64" y1="327.39" x2="642.26" y2="354.22" xlink:href="#gr_2169"/><linearGradient id="gr_2169-15" x1="613.89" y1="325.88" x2="588.27" y2="300.86" xlink:href="#gr_2169"/><linearGradient id="gr_2169-16" x1="606.56" y1="326.72" x2="633.39" y2="300.8" xlink:href="#gr_2169"/></defs><title>Cities</title><polygon class="cls-1" points="1132.17 99.75 997.28 112.87 753.81 50.53 523.5 20.34 501.79 7.88 435.99 0 414.27 11.81 374.13 14.44 347.15 10.5 0 38.56 0 406 1400 406 1400 134.51 1132.17 99.75"/><rect class="cls-2" x="371.12" y="110.84" width="120.69" height="295.16"/><rect class="cls-3" x="371.12" y="110.84" width="24.14" height="295.16"/><rect class="cls-4" x="448.36" y="120.47" width="4.83" height="4.82"/><rect class="cls-4" x="448.36" y="134.93" width="4.83" height="4.82"/><rect class="cls-4" x="448.36" y="149.39" width="4.83" height="4.82"/><rect class="cls-4" x="448.36" y="163.85" width="4.83" height="4.82"/><rect class="cls-4" x="448.36" y="178.3" width="4.83" height="4.82"/><rect class="cls-4" x="448.36" y="192.76" width="4.83" height="4.82"/><rect class="cls-4" x="448.36" y="207.22" width="4.83" height="4.82"/><rect class="cls-4" x="448.36" y="221.67" width="4.83" height="4.82"/><rect class="cls-4" x="448.36" y="236.13" width="4.83" height="4.82"/><rect class="cls-4" x="462.84" y="120.47" width="4.83" height="4.82"/><rect class="cls-4" x="462.84" y="134.93" width="4.83" height="4.82"/><rect class="cls-4" x="462.84" y="149.39" width="4.83" height="4.82"/><rect class="cls-4" x="462.84" y="163.85" width="4.83" height="4.82"/><rect class="cls-4" x="462.84" y="178.3" width="4.83" height="4.82"/><rect class="cls-4" x="462.84" y="192.76" width="4.83" height="4.82"/><rect class="cls-4" x="462.84" y="207.22" width="4.83" height="4.82"/><rect class="cls-4" x="462.84" y="221.67" width="4.83" height="4.82"/><rect class="cls-4" x="462.84" y="236.13" width="4.83" height="4.82"/><rect class="cls-4" x="477.33" y="120.47" width="4.83" height="4.82"/><rect class="cls-4" x="477.33" y="134.93" width="4.83" height="4.82"/><rect class="cls-4" x="477.33" y="149.39" width="4.83" height="4.82"/><rect class="cls-4" x="477.33" y="163.85" width="4.83" height="4.82"/><rect class="cls-4" x="477.33" y="178.3" width="4.83" height="4.82"/><rect class="cls-4" x="477.33" y="192.76" width="4.83" height="4.82"/><rect class="cls-4" x="477.33" y="207.22" width="4.83" height="4.82"/><rect class="cls-4" x="477.33" y="221.67" width="4.83" height="4.82"/><rect class="cls-4" x="477.33" y="236.13" width="4.83" height="4.82"/><rect class="cls-4" x="477.33" y="250.59" width="4.83" height="4.82"/><rect class="cls-4" x="477.33" y="265.04" width="4.83" height="4.82"/><rect class="cls-4" x="477.33" y="279.5" width="4.83" height="4.82"/><rect class="cls-4" x="477.33" y="293.96" width="4.83" height="4.82"/><rect class="cls-5" x="773.02" y="110.84" width="120.69" height="295.16"/><rect class="cls-6" x="1013.79" y="157.22" width="102.59" height="248.78"/><rect class="cls-7" x="259.48" y="213.24" width="178.62" height="192.76"/><rect class="cls-8" x="259.48" y="213.24" width="30.17" height="192.76"/><rect class="cls-9" x="210" y="328.9" width="135.17" height="77.1"/><rect class="cls-10" x="210" y="328.9" width="18.1" height="77.1"/><rect class="cls-11" x="710.26" y="145.17" width="102.59" height="260.83"/><rect class="cls-12" x="710.26" y="145.17" width="102.59" height="4.82"/><rect class="cls-12" x="710.26" y="159.63" width="102.59" height="4.82"/><rect class="cls-12" x="710.26" y="174.09" width="102.59" height="4.82"/><rect class="cls-12" x="710.26" y="188.54" width="102.59" height="4.82"/><rect class="cls-12" x="710.26" y="203" width="102.59" height="4.82"/><rect class="cls-12" x="710.26" y="217.46" width="102.59" height="4.82"/><rect class="cls-12" x="710.26" y="231.91" width="102.59" height="4.82"/><rect class="cls-12" x="710.26" y="246.37" width="102.59" height="4.82"/><rect class="cls-12" x="710.26" y="260.83" width="102.59" height="4.82"/><rect class="cls-12" x="710.26" y="275.28" width="102.59" height="4.82"/><rect class="cls-12" x="710.26" y="289.74" width="102.59" height="4.82"/><rect class="cls-12" x="710.26" y="304.2" width="102.59" height="4.82"/><rect class="cls-12" x="710.26" y="318.66" width="102.59" height="4.82"/><rect class="cls-12" x="710.26" y="333.11" width="102.59" height="4.82"/><rect class="cls-13" x="1075.34" y="285.53" width="114.66" height="120.47"/><rect class="cls-14" x="1075.34" y="285.53" width="41.03" height="120.47"/><rect class="cls-15" x="1075.34" y="293.36" width="41.03" height="4.82"/><rect class="cls-15" x="1075.34" y="307.81" width="41.03" height="4.82"/><rect class="cls-15" x="1075.34" y="322.27" width="41.03" height="4.82"/><rect class="cls-15" x="1075.34" y="336.73" width="41.03" height="4.82"/><rect class="cls-15" x="1075.34" y="351.18" width="41.03" height="4.82"/><rect class="cls-15" x="1075.34" y="365.64" width="41.03" height="4.82"/><rect class="cls-15" x="1075.34" y="380.1" width="41.03" height="4.82"/><rect class="cls-15" x="1075.34" y="394.55" width="41.03" height="4.82"/><rect class="cls-16" x="228.1" y="328.9" width="117.07" height="4.82"/><rect class="cls-16" x="228.1" y="343.35" width="117.07" height="4.82"/><rect class="cls-16" x="228.1" y="357.81" width="117.07" height="4.82"/><rect class="cls-16" x="228.1" y="372.27" width="117.07" height="4.82"/><rect class="cls-16" x="228.1" y="386.72" width="117.07" height="4.82"/><rect class="cls-16" x="228.1" y="401.18" width="117.07" height="4.82"/><rect class="cls-17" x="467.67" y="249.38" width="102.59" height="156.62"/><rect class="cls-18" x="467.67" y="249.38" width="24.14" height="156.62"/><rect class="cls-19" x="1010.78" y="281.91" width="3.02" height="124.09"/><path class="cls-20" d="M976.46,305.28l8.73,3.15,4.64-4.61-3.17-8.68,8.73,3.15,4.64-4.61L996.86,285l8.73,3.15,6.57-6.53a29.22,29.22,0,0,0-34,5.07,28.76,28.76,0,0,0-5.1,33.78l6.57-6.53Z"/><path class="cls-21" d="M1047.51,305.28l-8.73,3.15-4.64-4.61,3.17-8.68-8.73,3.15-4.64-4.61,3.17-8.68-8.73,3.15-6.57-6.53a29.22,29.22,0,0,1,34,5.07,28.76,28.76,0,0,1,5.1,33.78l-6.57-6.53Z"/><path class="cls-22" d="M988.19,247.65L985,256.32l4.64,4.61,8.73-3.15-3.17,8.68,4.64,4.61,8.73-3.15-3.17,8.68,6.57,6.53a28.76,28.76,0,0,0-5.1-33.78,29.22,29.22,0,0,0-34-5.07l6.57,6.53Z"/><path class="cls-23" d="M1035.78,247.65l3.17,8.68-4.64,4.61-8.73-3.15,3.17,8.68-4.64,4.61-8.73-3.15,3.17,8.68-6.57,6.53a28.76,28.76,0,0,1,5.1-33.78,29.22,29.22,0,0,1,34-5.07l-6.57,6.53Z"/><rect class="cls-24" x="395.26" y="292.15" width="3.02" height="113.85"/><path class="cls-25" d="M371.09,323.49l6.24,2.24,3.31-3.28-2.26-6.18,6.24,2.24,3.31-3.28-2.26-6.18,6.24,2.24,4.69-4.65a20.92,20.92,0,0,0-24.28,3.61,20.43,20.43,0,0,0-3.64,24.06l4.69-4.65Z"/><path class="cls-26" d="M421.84,323.49l-6.24,2.24-3.31-3.28,2.26-6.18-6.24,2.24L405,315.24l2.26-6.18L401,311.3l-4.69-4.65a20.92,20.92,0,0,1,24.28,3.61,20.43,20.43,0,0,1,3.64,24.06l-4.69-4.65Z"/><path class="cls-27" d="M379.47,282.45l-2.26,6.18,3.31,3.28,6.24-2.24-2.26,6.18,3.31,3.28,6.24-2.24-2.26,6.18,4.69,4.65a20.43,20.43,0,0,0-3.64-24.06A20.92,20.92,0,0,0,368.54,280l4.69,4.65Z"/><path class="cls-28" d="M413.46,282.45l2.26,6.18-3.31,3.28-6.24-2.24,2.26,6.18-3.31,3.28-6.24-2.24,2.26,6.18-4.69,4.65a20.43,20.43,0,0,1,3.64-24.06A20.92,20.92,0,0,1,424.39,280l-4.69,4.65Z"/><rect class="cls-29" x="967.33" y="337.33" width="90.52" height="68.67"/><rect class="cls-30" x="967.33" y="337.33" width="30.17" height="68.67"/><rect class="cls-31" x="710.26" y="145.17" width="24.14" height="260.83"/><rect class="cls-32" x="518.36" y="225.29" width="3.02" height="180.71"/><path class="cls-33" d="M484,248.64l8.73,3.15,4.64-4.61-3.17-8.68,8.73,3.15,4.64-4.61-3.17-8.68,8.73,3.15,6.57-6.53a29.22,29.22,0,0,0-34,5.07,28.76,28.76,0,0,0-5.1,33.78l6.57-6.53Z"/><path class="cls-34" d="M555.09,248.64l-8.73,3.15-4.64-4.61,3.17-8.68-8.73,3.15L531.53,237l3.17-8.68L526,231.52,519.4,225a29.22,29.22,0,0,1,34,5.07,28.76,28.76,0,0,1,5.1,33.78l-6.57-6.53Z"/><path class="cls-35" d="M495.77,191l-3.17,8.68,4.64,4.61,8.73-3.15-3.17,8.68,4.64,4.61,8.73-3.15L513,219.95l6.57,6.53a28.76,28.76,0,0,0-5.1-33.78,29.22,29.22,0,0,0-34-5.07l6.57,6.53Z"/><path class="cls-36" d="M543.37,191l3.17,8.68-4.64,4.61-8.73-3.15,3.17,8.68-4.64,4.61L523,211.27l3.17,8.68-6.57,6.53a28.76,28.76,0,0,1,5.1-33.78,29.22,29.22,0,0,1,34-5.07l-6.57,6.53Z"/><polygon class="cls-37" points="331.9 276.49 289.65 314.44 289.65 263.84 331.9 225.89 331.9 276.49"/><rect class="cls-38" x="582.33" y="96.38" width="66.38" height="24.09"/><rect class="cls-39" x="573.28" y="113.25" width="84.48" height="48.19"/><rect class="cls-40" x="564.22" y="156.62" width="102.59" height="56.62"/><rect class="cls-41" x="558.19" y="213.24" width="114.66" height="192.76"/><rect class="cls-42" x="558.19" y="213.24" width="14.48" height="192.76"/><rect class="cls-42" x="564.22" y="156.62" width="14.48" height="56.62"/><rect class="cls-42" x="573.28" y="113.25" width="14.48" height="43.37"/><rect class="cls-43" x="582.33" y="96.38" width="14.48" height="16.87"/><polygon class="cls-44" points="672.85 302.09 572.67 392.45 572.67 315.94 672.85 225.59 672.85 302.09"/><rect class="cls-45" x="838.79" y="213.24" width="113.45" height="192.76"/><rect class="cls-46" x="838.79" y="213.24" width="36.21" height="192.76"/><rect class="cls-47" x="853.45" y="307.21" width="192.76" height="4.83" transform="translate(1259.45 -640.21) rotate(90)"/><rect class="cls-47" x="838.97" y="307.21" width="192.76" height="4.83" transform="translate(1244.96 -625.72) rotate(90)"/><rect class="cls-47" x="824.48" y="307.21" width="192.76" height="4.83" transform="translate(1230.48 -611.24) rotate(90)"/><rect class="cls-47" x="810" y="307.21" width="192.76" height="4.83" transform="translate(1216 -596.76) rotate(90)"/><rect class="cls-47" x="795.52" y="307.21" width="192.76" height="4.83" transform="translate(1201.52 -582.28) rotate(90)"/><rect class="cls-47" x="781.03" y="307.21" width="192.76" height="4.83" transform="translate(1187.03 -567.79) rotate(90)"/><rect class="cls-48" x="846.21" y="304.79" width="192.76" height="9.66" transform="translate(1252.21 -632.97) rotate(90)"/><rect class="cls-49" x="817.24" y="304.79" width="192.76" height="9.66" transform="translate(1223.24 -604) rotate(90)"/><g class="cls-50"><path class="cls-51" d="M254.81,150.33A52.53,52.53,0,0,1,245,160.49a6.32,6.32,0,0,1,4.3,2.72q0.66-.77,1.25-1.6A23.75,23.75,0,0,0,254.81,150.33Z"/><path class="cls-52" d="M249,163.54h0l-0.2.23Z"/><path class="cls-51" d="M249.43,165.26a5.47,5.47,0,0,0-1.07-2.08h0a5.6,5.6,0,0,0-4.2-2h0A52.11,52.11,0,0,1,218.42,150a14.17,14.17,0,0,0-.49,3.72v0a23.75,23.75,0,0,0,8.37,5.91,22.55,22.55,0,0,1-8.05-3,14.24,14.24,0,0,0,13.92,11.23h0a51.83,51.83,0,0,1-8.56,2.62,24,24,0,0,0,23.69-5.26h2.12Z"/><path class="cls-51" d="M245.79,163.09a0.61,0.61,0,1,1-.61-0.61,0.61,0.61,0,0,1,.61.61"/></g><rect class="cls-53" x="1075.34" y="157.22" width="15.09" height="3.61"/><rect class="cls-53" x="1075.34" y="164.45" width="15.09" height="3.61"/><rect class="cls-53" x="1075.34" y="171.68" width="15.09" height="3.61"/><rect class="cls-53" x="1075.34" y="178.91" width="15.09" height="3.61"/><rect class="cls-53" x="1075.34" y="186.13" width="15.09" height="3.61"/><rect class="cls-53" x="1075.34" y="193.36" width="15.09" height="3.61"/><rect class="cls-53" x="1075.34" y="200.59" width="15.09" height="3.61"/><rect class="cls-53" x="1075.34" y="207.82" width="15.09" height="3.61"/><rect class="cls-53" x="1075.34" y="215.05" width="15.09" height="3.61"/><rect class="cls-53" x="1075.34" y="222.28" width="15.09" height="3.61"/><rect class="cls-53" x="1075.34" y="229.5" width="15.09" height="3.61"/><rect class="cls-53" x="1075.34" y="236.73" width="15.09" height="3.61"/><rect class="cls-53" x="1075.34" y="243.96" width="15.09" height="3.61"/><rect class="cls-53" x="1075.34" y="251.19" width="15.09" height="3.61"/><rect class="cls-53" x="1075.34" y="258.42" width="15.09" height="3.61"/><rect class="cls-53" x="1075.34" y="265.65" width="15.09" height="3.61"/><rect class="cls-53" x="1075.34" y="272.88" width="15.09" height="3.61"/><rect class="cls-53" x="1075.34" y="280.1" width="15.09" height="3.61"/><rect class="cls-54" x="672.84" y="292.15" width="3.02" height="113.85"/><path class="cls-55" d="M648.68,323.49l6.24,2.24,3.31-3.28L656,316.28l6.24,2.24,3.31-3.28-2.26-6.18,6.24,2.24,4.69-4.65a20.92,20.92,0,0,0-24.28,3.61,20.43,20.43,0,0,0-3.64,24.06l4.69-4.65Z"/><path class="cls-56" d="M699.42,323.49l-6.24,2.24-3.31-3.28,2.26-6.18-6.24,2.24-3.31-3.28,2.26-6.18-6.24,2.24-4.69-4.65a20.92,20.92,0,0,1,24.28,3.61,20.43,20.43,0,0,1,3.64,24.06l-4.69-4.65Z"/><path class="cls-57" d="M657.05,282.45l-2.26,6.18,3.31,3.28,6.24-2.24-2.26,6.18,3.31,3.28,6.24-2.24-2.26,6.18,4.69,4.65a20.43,20.43,0,0,0-3.64-24.06A20.92,20.92,0,0,0,646.13,280l4.69,4.65Z"/><path class="cls-58" d="M691,282.45l2.26,6.18L690,291.91l-6.24-2.24,2.26,6.18-3.31,3.28-6.24-2.24,2.26,6.18-4.69,4.65a20.43,20.43,0,0,1,3.64-24.06A20.92,20.92,0,0,1,702,280l-4.69,4.65Z"/><rect class="cls-59" x="609.48" y="317.45" width="3.02" height="88.55"/><path class="cls-60" d="M585.32,348.79l6.24,2.24,3.31-3.28-2.26-6.18,6.24,2.24,3.31-3.28-2.26-6.18,6.24,2.24,4.69-4.65a20.92,20.92,0,0,0-24.28,3.61,20.43,20.43,0,0,0-3.64,24.06l4.69-4.65Z"/><path class="cls-61" d="M636.06,348.79L629.83,351l-3.31-3.28,2.26-6.18-6.24,2.24-3.31-3.28,2.26-6.18-6.24,2.24L610.57,332a20.92,20.92,0,0,1,24.28,3.61,20.43,20.43,0,0,1,3.64,24.06L633.8,355Z"/><path class="cls-62" d="M593.69,307.75l-2.26,6.18,3.31,3.28L601,315l-2.26,6.18,3.31,3.28,6.24-2.24L606,328.36l4.69,4.65A20.43,20.43,0,0,0,607,309a20.92,20.92,0,0,0-24.28-3.61l4.69,4.65Z"/><path class="cls-63" d="M627.69,307.75l2.26,6.18-3.31,3.28L620.4,315l2.26,6.18-3.31,3.28-6.24-2.24,2.26,6.18L610.69,333A20.43,20.43,0,0,1,614.33,309a20.92,20.92,0,0,1,24.28-3.61L633.92,310Z"/></svg>
