<?xml version="1.0" encoding="UTF-8"?>
<svg width="35px" height="25px" viewBox="0 0 35 25" version="1.1" xmlns="http://www.w3.org/2000/svg" xmlns:xlink="http://www.w3.org/1999/xlink">
    <!-- Generator: Sketch 46.2 (44496) - http://www.bohemiancoding.com/sketch -->
    <title>Group 12</title>
    <desc>Created with Sketch.</desc>
    <defs></defs>
    <g id="Page-1" stroke="none" stroke-width="1" fill="none" fill-rule="evenodd">
        <g id="Desktop-HD-Copy-4" transform="translate(-120.000000, -510.000000)">
            <g id="Heder">
                <g id="Group-22" transform="translate(120.000000, 250.000000)">
                    <g id="Group-12" transform="translate(0.000000, 260.000000)">
                        <circle id="Oval-4" fill-opacity="0.3768399" fill="#FFFFFF" cx="22.5" cy="12.5" r="12.5"></circle>
                        <g id="Group-10" transform="translate(0.000000, 3.000000)" stroke="#FFFFFF" stroke-width="2">
                            <path d="M5.57778449,17 L26.1293153,17 L26.7278402,16.8307154 C28.6483901,16.2875143 30,14.526501 30,12.5 C30,10.0147186 27.9852814,8 25.5,8 C25.0304092,8 24.5716928,8.07160171 24.1345174,8.21062296 L23.0660052,8.5504085 L22.850174,7.45014059 C22.1199322,3.72750192 18.8409594,1 15,1 C11.5750792,1 8.56340552,3.17210812 7.44841343,6.35183303 L7.19248861,7.08167725 L6.42174301,7.01747961 C6.28213187,7.00585099 6.14148025,7 6,7 C3.23857625,7 1,9.23857625 1,12 C1,14.450866 2.77589109,16.5299314 5.16545589,16.9308244 L5.57778449,17 Z" id="Combined-Shape"></path>
                        </g>
                    </g>
                </g>
            </g>
        </g>
    </g>
</svg>