<?xml version="1.0"?>
<!--Icons from directory ""-->
<svg xmlns="http://www.w3.org/2000/svg" width="50" height="100" viewBox="0 0 50 100"><svg xmlns:xlink="http://www.w3.org/1999/xlink" height="50" width="50" version="1.1" viewBox="0 0 50 50" id="next-active" y="0"><title>Button Close</title><desc>Created with Sketch.</desc><g id="next-active-UI-KIt" fill-rule="evenodd" fill="none"><g id="next-active-Button-Close" transform="translate(25 25) rotate(180) translate(-25 -25)"><ellipse id="next-active-Oval-6" rx="25" ry="25" cy="25" cx="25" fill="#7B53C1"/><path id="next-active-Rectangle-29" fill="#fff" d="m17.55 24.864l-0.55 0.55 11.314 11.314 1.414-1.414-10.45-10.45 10.45-10.45-1.414-1.414-11.314 11.314 0.55 0.55z"/></g></g></svg><svg xmlns:xlink="http://www.w3.org/1999/xlink" height="50" width="50" version="1.1" viewBox="0 0 50 50" id="next" y="50"><title>Button Close</title><desc>Created with Sketch.</desc><g id="next-UI-KIt" fill-rule="evenodd" fill="none"><g id="next-Button-Close" transform="translate(25 25) rotate(180) translate(-25 -25)"><ellipse id="next-Oval-6" rx="25" ry="25" cy="25" cx="25" fill="#fff"/><path id="next-Rectangle-29" fill="#A09DB9" d="m17.55 24.864l-0.55 0.55 11.314 11.314 1.414-1.414-10.45-10.45 10.45-10.45-1.414-1.414-11.314 11.314 0.55 0.55z"/></g></g></svg></svg>
