<?xml version="1.0" encoding="UTF-8"?>
<svg width="32px" height="32px" viewBox="0 0 32 32" version="1.1" xmlns="http://www.w3.org/2000/svg" xmlns:xlink="http://www.w3.org/1999/xlink">
    <!-- Generator: Sketch 46.2 (44496) - http://www.bohemiancoding.com/sketch -->
    <title>bitcoin</title>
    <desc>Created with Sketch.</desc>
    <defs></defs>
    <g id="Design" stroke="none" stroke-width="1" fill="none" fill-rule="evenodd">
        <g id="Landing" transform="translate(-629.000000, -12706.000000)" fill-rule="nonzero" fill="#FFFFFF">
            <g id="Contacts" transform="translate(-275.000000, 12338.000000)">
                <g id="bitcoin" transform="translate(904.000000, 367.000000)">
                    <path d="M31.5173333,20.872 C29.3813333,29.4453333 20.7,34.6586667 12.128,32.52 C3.56,30.4 -1.65866667,21.7 0.482666667,13.14 C2.616,4.56 11.3,-0.657333333 19.8666667,1.47733333 C28.44,3.61733333 33.656,12.2973333 31.5173333,20.8746667 L31.5173333,20.872 L31.5173333,20.872 Z M23.0506667,14.7213333 C23.3706667,12.6013333 21.752,11.4546667 19.5306667,10.6813333 L20.2506667,7.81066667 L18.4973333,7.37066667 L17.7973333,10.18 C17.3373333,10.064 16.8573333,9.95733333 16.3786667,9.84666667 L17.08,7.01066667 L15.32,6.57066667 L14.6,9.45733333 C14.22,9.368 13.8466667,9.28133333 13.48,9.19066667 L11.06,8.59066667 L10.5933333,10.4666667 C10.5933333,10.4666667 11.8933333,10.7666667 11.8666667,10.7813333 C12.58,10.9626667 12.7066667,11.4293333 12.6866667,11.8026667 L10.7173333,19.696 C10.6173333,19.9173333 10.3973333,20.2373333 9.89866667,20.1146667 C9.91866667,20.1413333 8.61866667,19.7946667 8.61866667,19.7946667 L7.73866667,21.808 L10.0186667,22.376 L11.2586667,22.6986667 L10.5386667,25.6186667 L12.2986667,26.0546667 L13.0186667,23.1613333 C13.4986667,23.2946667 13.9586667,23.4146667 14.4186667,23.5253333 L13.7386667,26.3973333 L15.4986667,26.8373333 L16.2253333,23.9173333 C19.212,24.4866667 21.4653333,24.26 22.412,21.552 C23.172,19.3693333 22.372,18.112 20.7893333,17.2906667 C21.928,17.0333333 22.7893333,16.2773333 23.0293333,14.7173333 L23.0426667,14.7173333 L23.0506667,14.7213333 Z M19.0373333,20.348 C18.4986667,22.5346667 14.828,21.348 13.6373333,21.0546667 L14.5973333,17.188 C15.792,17.4946667 19.6066667,18.0813333 19.0373333,20.348 L19.0373333,20.348 Z M19.584,14.6946667 C19.0906667,16.6813333 16.0346667,15.6746667 15.044,15.428 L15.916,11.908 C16.908,12.148 20.0986667,12.6066667 19.5826667,14.6866667 L19.5826667,14.6946667 L19.584,14.6946667 Z" id="Shape"></path>
                </g>
            </g>
        </g>
    </g>
</svg>