<?xml version="1.0" encoding="UTF-8"?>
<svg width="32px" height="32px" viewBox="0 0 32 32" version="1.1" xmlns="http://www.w3.org/2000/svg" xmlns:xlink="http://www.w3.org/1999/xlink">
    <!-- Generator: Sketch 46.2 (44496) - http://www.bohemiancoding.com/sketch -->
    <title>facebook</title>
    <desc>Created with Sketch.</desc>
    <defs></defs>
    <g id="Design" stroke="none" stroke-width="1" fill="none" fill-rule="evenodd">
        <g id="Landing" transform="translate(-429.000000, -12648.000000)" fill="#FFFFFF">
            <g id="Contacts" transform="translate(-275.000000, 12338.000000)">
                <g id="facebook" transform="translate(704.000000, 310.000000)">
                    <path d="M30.234,0 L1.766,0 C0.79,0 0,0.79 0,1.766 L0,30.234 C0,31.21 0.79,32 1.766,32 L17.092,32 L17.092,19.608 L12.92,19.608 L12.92,14.78 L17.092,14.78 L17.092,11.214 C17.092,7.082 19.616,4.834 23.304,4.834 C25.07,4.834 26.588,4.962 27.03,5.022 L27.03,9.342 L24.47,9.342 C22.47,9.342 22.08,10.302 22.08,11.702 L22.08,14.782 L26.86,14.782 L26.24,19.622 L22.08,19.622 L22.08,32 L30.234,32 C31.21,32 32,31.21 32,30.234 L32,1.766 C32,0.79 31.21,0 30.234,0" id="Shape"></path>
                </g>
            </g>
        </g>
    </g>
</svg>