<?xml version="1.0" encoding="UTF-8"?>
<svg width="32px" height="32px" viewBox="0 0 32 32" version="1.1" xmlns="http://www.w3.org/2000/svg" xmlns:xlink="http://www.w3.org/1999/xlink">
    <!-- Generator: Sketch 46.2 (44496) - http://www.bohemiancoding.com/sketch -->
    <title>github</title>
    <desc>Created with Sketch.</desc>
    <defs></defs>
    <g id="Design" stroke="none" stroke-width="1" fill="none" fill-rule="evenodd">
        <g id="Landing" transform="translate(-629.000000, -12758.000000)" fill="#FFFFFF">
            <g id="Contacts" transform="translate(-275.000000, 12338.000000)">
                <g id="github" transform="translate(904.000000, 420.000000)">
                    <path d="M16,0.396 C7.16,0.396 0,7.56 0,16.396 C0,23.4666667 4.584,29.4626667 10.94,31.576 C11.74,31.7266667 12.0333333,31.232 12.0333333,30.8066667 C12.0333333,30.4266667 12.02,29.42 12.0133333,28.0866667 C7.56266667,29.052 6.624,25.94 6.624,25.94 C5.896,24.0933333 4.844,23.6 4.844,23.6 C3.39466667,22.608 4.956,22.628 4.956,22.628 C6.56266667,22.74 7.40666667,24.276 7.40666667,24.276 C8.83333333,26.7226667 11.152,26.016 12.0666667,25.6066667 C12.2106667,24.572 12.6226667,23.8666667 13.08,23.4666667 C9.52666667,23.0666667 5.792,21.6906667 5.792,15.56 C5.792,13.8133333 6.412,12.3866667 7.43866667,11.2666667 C7.25866667,10.8626667 6.71866667,9.236 7.57866667,7.032 C7.57866667,7.032 8.91866667,6.60266667 11.9786667,8.672 C13.2586667,8.316 14.6186667,8.14 15.9786667,8.132 C17.3386667,8.14 18.6986667,8.316 19.9786667,8.672 C23.0186667,6.60266667 24.3586667,7.032 24.3586667,7.032 C25.2186667,9.236 24.6786667,10.8626667 24.5186667,11.2666667 C25.5386667,12.3866667 26.1586667,13.8133333 26.1586667,15.56 C26.1586667,21.7066667 22.4186667,23.06 18.8586667,23.4533333 C19.4186667,23.9333333 19.9386667,24.9146667 19.9386667,26.4133333 C19.9386667,28.5546667 19.9186667,30.2746667 19.9186667,30.7946667 C19.9186667,31.2146667 20.1986667,31.7146667 21.0186667,31.5546667 C27.42,29.456 32,23.456 32,16.396 C32,7.56 24.836,0.396 16,0.396" id="Shape"></path>
                </g>
            </g>
        </g>
    </g>
</svg>