<?xml version="1.0" encoding="UTF-8"?>
<svg width="32px" height="27px" viewBox="0 0 32 27" version="1.1" xmlns="http://www.w3.org/2000/svg" xmlns:xlink="http://www.w3.org/1999/xlink">
    <!-- Generator: Sketch 46.2 (44496) - http://www.bohemiancoding.com/sketch -->
    <title>medium</title>
    <desc>Created with Sketch.</desc>
    <defs></defs>
    <g id="Design" stroke="none" stroke-width="1" fill="none" fill-rule="evenodd">
        <g id="Landing" transform="translate(-629.000000, -12597.000000)" fill-rule="nonzero" fill="#FFFFFF">
            <g id="Contacts" transform="translate(-275.000000, 12338.000000)">
                <g id="medium" transform="translate(904.000000, 259.000000)">
                    <path d="M9.93333333,0.9045 L17.1066667,16.7535 L17.3333333,16.7535 C18.48,14.148 19.4666667,11.475 20.5333333,8.829 C21.6,6.183 22.6666667,3.564 23.6666667,0.918 L31.2133333,0.918 C31.1157574,1.08161769 31.0089121,1.23938139 30.8933333,1.3905 C30.3333333,2.025 29.7866667,2.7405 29.1866667,3.294 C28.7486783,3.72940237 28.515723,4.33381228 28.5466667,4.9545 L28.5466667,22.5045 C28.5315895,22.9495334 28.7182012,23.3771445 29.0533333,23.6655 C29.64,24.192 30.2,24.7455 30.76,25.299 L31.3066667,25.866 L19.6133333,25.866 C19.7177477,25.7089495 19.833627,25.5600335 19.96,25.4205 C20.5066667,24.894 21.0533333,24.354 21.6266667,23.8545 C22.0214166,23.5232547 22.238827,23.0229638 22.2133333,22.5045 L22.2133333,9.8955 C22.2133333,9.3015 22.2133333,8.7075 22.3066667,8.127 L22.3066667,7.155 L22.1333333,7.155 C22.0266667,7.371 21.8933333,7.5735 21.8133333,7.803 L14.7466667,25.353 C14.6533333,25.596 14.5333333,25.8255 14.4133333,26.055 L14.2533333,26.055 L5.64,6.966 L5.45333333,6.966 L5.45333333,19.467 C5.4391317,20.0849052 5.64234142,20.6878001 6.02666667,21.168 C7.05333333,22.518 8.05333333,23.868 9.06666667,25.218 C9.2,25.3935 9.30666667,25.5825 9.49333333,25.839 L0.666666667,25.839 C0.8,25.6095 0.893333333,25.4475 1,25.3125 C2.05333333,23.895 3.12,22.464 4.18666667,21.06 C4.54205637,20.6132128 4.73085792,20.0540652 4.72,19.4805 L4.72,5.9805 C4.73807898,5.49162091 4.58190903,5.0124631 4.28,4.6305 C3.42666667,3.6045 2.66666667,2.4975 1.78666667,1.35 C1.69333333,1.215 1.61333333,1.0665 1.48,0.864 L9.93333333,0.9045 Z" id="Shape"></path>
                </g>
            </g>
        </g>
    </g>
</svg>