<?xml version="1.0" encoding="UTF-8"?>
<svg width="32px" height="32px" viewBox="0 0 32 32" version="1.1" xmlns="http://www.w3.org/2000/svg" xmlns:xlink="http://www.w3.org/1999/xlink">
    <!-- Generator: Sketch 46.2 (44496) - http://www.bohemiancoding.com/sketch -->
    <title>reddit</title>
    <desc>Created with Sketch.</desc>
    <defs></defs>
    <g id="Design" stroke="none" stroke-width="1" fill="none" fill-rule="evenodd">
        <g id="Landing" transform="translate(-629.000000, -12648.000000)">
            <g id="Contacts" transform="translate(-275.000000, 12338.000000)">
                <g id="reddit" transform="translate(904.000000, 309.000000)">
                    <path d="M31.5173333,20.872 C29.3813333,29.4453333 20.7,34.6586667 12.128,32.52 C3.56,30.4 -1.65866667,21.7 0.482666667,13.14 C2.616,4.56 11.3,-0.657333333 19.8666667,1.47733333 C28.44,3.61733333 33.656,12.2973333 31.5173333,20.8746667 L31.5173333,20.872 L31.5173333,20.872 Z" id="Path" fill="#FFFFFF"></path>
                    <path d="M5.204,18.049 C5.144,18.325 5.113,18.609 5.113,18.896 C5.113,22.339 9.515,25.145 14.927,25.145 C20.337,25.145 24.739,22.341 24.739,18.896 C24.739,18.622 24.71,18.35 24.657,18.087 L24.642,18.055 C24.621,18 24.613,17.945 24.613,17.89 C24.311,16.715 23.496,15.649 22.317,14.787 C22.272,14.771 22.229,14.748 22.191,14.717 C22.165,14.697 22.146,14.675 22.124,14.653 C20.332,13.419 17.768,12.645 14.928,12.645 C12.113,12.645 9.574,13.404 7.782,14.616 C7.768,14.634 7.753,14.649 7.733,14.665 C7.694,14.698 7.649,14.725 7.603,14.74 C6.397,15.602 5.561,16.677 5.249,17.863 C5.249,17.921 5.235,17.977 5.212,18.034 L5.204,18.049 L5.204,18.049 Z M14.977,23.49 C13.183,23.49 11.92,23.101 11.114,22.293 C10.941,22.119 10.941,21.836 11.114,21.661 C11.29,21.496 11.574,21.496 11.749,21.661 C12.379,22.29 13.434,22.604 14.977,22.604 C16.519,22.604 17.568,22.304 18.196,21.675 C18.361,21.511 18.646,21.511 18.825,21.675 C18.99,21.855 18.99,22.14 18.825,22.32 C18.016,23.128 16.76,23.518 14.963,23.518 L14.977,23.49 L14.977,23.49 Z M11.371,15.917 C10.457,15.917 9.694,16.682 9.694,17.594 C9.694,18.504 10.457,19.244 11.371,19.244 C12.285,19.244 13.022,18.504 13.022,17.594 C13.022,16.682 12.283,15.917 11.371,15.917 Z M18.604,15.917 C17.69,15.917 16.926,16.682 16.926,17.594 C16.926,18.504 17.69,19.244 18.604,19.244 C19.518,19.244 20.255,18.504 20.255,17.594 C20.255,16.682 19.516,15.917 18.604,15.917 Z M23.152,14.322 C24.189,15.155 24.952,16.143 25.341,17.226 C25.791,16.89 26.06,16.362 26.06,15.777 C26.06,14.775 25.245,13.961 24.242,13.961 C23.843,13.961 23.464,14.09 23.152,14.324 L23.152,14.322 L23.152,14.322 Z M5.711,13.963 C4.708,13.963 3.894,14.779 3.894,15.781 C3.894,16.324 4.133,16.829 4.538,17.17 C4.939,16.091 5.71,15.117 6.751,14.294 C6.449,14.084 6.088,13.965 5.712,13.965 L5.712,13.963 L5.711,13.963 Z M14.928,26.042 C9.022,26.042 4.219,22.837 4.219,18.9 C4.219,18.625 4.242,18.356 4.287,18.091 C3.494,17.598 3,16.729 3,15.777 C3,14.281 4.227,13.064 5.725,13.064 C6.399,13.064 7.028,13.31 7.522,13.746 C9.378,12.555 11.879,11.805 14.634,11.754 L16.446,6.23 L16.85,6.325 C16.85,6.325 16.866,6.325 16.866,6.327 L21.089,7.32 C21.433,6.522 22.227,5.96 23.154,5.96 C24.383,5.96 25.385,6.964 25.385,8.194 C25.385,9.426 24.382,10.428 23.154,10.428 C21.926,10.428 20.924,9.424 20.924,8.198 L17.073,7.286 L15.606,11.763 C18.256,11.868 20.653,12.617 22.45,13.784 C22.944,13.32 23.594,13.065 24.283,13.065 C25.781,13.065 27.001,14.278 27.001,15.776 C27.001,16.763 26.461,17.662 25.623,18.141 C25.652,18.396 25.682,18.635 25.682,18.89 C25.667,22.828 20.876,26.033 14.962,26.033 L14.928,26.042 L14.928,26.042 Z M23.107,6.855 C22.367,6.855 21.767,7.454 21.767,8.193 C21.767,8.931 22.367,9.533 23.107,9.533 C23.839,9.533 24.437,8.933 24.437,8.199 C24.437,7.466 23.839,6.867 23.09,6.867 L23.107,6.855 L23.107,6.855 Z" id="Shape" fill="#FFAA6F" fill-rule="nonzero"></path>
                </g>
            </g>
        </g>
    </g>
</svg>