<?xml version="1.0" encoding="UTF-8"?>
<svg width="32px" height="32px" viewBox="0 0 32 32" version="1.1" xmlns="http://www.w3.org/2000/svg" xmlns:xlink="http://www.w3.org/1999/xlink">
    <!-- Generator: Sketch 46.2 (44496) - http://www.bohemiancoding.com/sketch -->
    <title>slack</title>
    <desc>Created with Sketch.</desc>
    <defs></defs>
    <g id="Design" stroke="none" stroke-width="1" fill="none" fill-rule="evenodd">
        <g id="Landing" transform="translate(-429.000000, -12595.000000)" fill="#FFFFFF">
            <g id="Contacts" transform="translate(-275.000000, 12338.000000)">
                <g id="slack" transform="translate(704.000000, 257.000000)">
                    <polygon id="Shape" points="13.172 14.66 14.552 18.774 18.826 17.342 17.446 13.242 13.172 14.682"></polygon>
                    <path d="M25.1,18.74 L23.026,19.434 L23.746,21.58 C24.036,22.448 23.566,23.388 22.698,23.68 C22.498,23.74 22.318,23.77 22.118,23.764 C21.438,23.744 20.818,23.312 20.578,22.632 L19.858,20.488 L15.578,21.92 L16.298,24.064 C16.578,24.934 16.118,25.874 15.238,26.164 C15.038,26.228 14.858,26.254 14.658,26.25 C13.978,26.23 13.358,25.798 13.118,25.118 L12.398,22.958 L10.318,23.658 C10.118,23.718 9.938,23.738 9.738,23.738 C9.058,23.718 8.438,23.278 8.198,22.598 C7.898,21.718 8.378,20.778 9.238,20.498 L11.318,19.798 L10,15.68 L7.932,16.38 C7.744,16.444 7.552,16.47 7.362,16.466 C6.702,16.446 6.062,16.016 5.842,15.336 C5.562,14.47 6.022,13.53 6.902,13.236 L8.982,12.544 L8.262,10.404 C7.982,9.532 8.442,8.592 9.322,8.304 C10.202,8.01 11.142,8.484 11.422,9.348 L12.142,11.492 L16.4,10.06 L15.68,7.92 C15.4,7.06 15.86,6.12 16.732,5.82 C17.602,5.54 18.544,6 18.832,6.876 L19.552,9.036 L21.626,8.356 C22.494,8.064 23.434,8.536 23.726,9.396 C24.016,10.268 23.546,11.208 22.68,11.496 L20.604,12.196 L21.984,16.31 L24.052,15.622 C24.922,15.342 25.862,15.802 26.152,16.682 C26.444,17.562 25.972,18.502 25.112,18.782 L25.1,18.74 Z M30.66,11.6 C27.36,0.608 22.596,-1.96 11.6,1.34 C0.608,4.64 -1.96,9.4 1.34,20.4 C4.64,31.394 9.4,33.96 20.4,30.66 C31.394,27.36 33.96,22.6 30.66,11.6 L30.66,11.6 Z" id="Shape"></path>
                </g>
            </g>
        </g>
    </g>
</svg>