<?xml version="1.0" encoding="UTF-8"?>
<svg width="32px" height="27px" viewBox="0 0 32 27" version="1.1" xmlns="http://www.w3.org/2000/svg" xmlns:xlink="http://www.w3.org/1999/xlink">
    <!-- Generator: Sketch 47.1 (45422) - http://www.bohemiancoding.com/sketch -->
    <title>telegram</title>
    <desc>Created with Sketch.</desc>
    <defs></defs>
    <g id="Design" stroke="none" stroke-width="1" fill="none" fill-rule="evenodd">
        <g id="Landing" transform="translate(-1186.000000, -26.000000)">
            <g id="Menu">
                <g id="Group-20" transform="translate(20.000000, 20.000000)">
                    <g id="Header-Transparent">
                        <g id="icon-telegram-big" transform="translate(1166.000000, 6.000000)">
                            <g id="Shape">
                                <path d="M11.9893089,25.2375742 C11.0396661,25.2375742 11.2010341,24.8772715 10.8735104,23.9686969 L8.08091194,14.7335678 L29.5770951,1.91939236" fill="#EFEFEF" fill-rule="nonzero" opacity="0.699999988"></path>
                                <path d="M11.9893089,25.2375742 C12.7221333,25.2375742 13.0459196,24.9008105 13.4549577,24.5012105 L17.3633547,20.6824287 L12.488118,17.7283833" fill="#E6E6E6" fill-rule="nonzero"></path>
                                <path d="M12.4876295,17.7291196 L24.3007593,26.4989651 C25.6487898,27.2463496 26.6217119,26.8593905 26.9574921,25.2413787 L31.7660417,2.47227873 C32.2583532,0.488956909 31.0136509,-0.410584909 29.7240509,0.177720546 L1.48832568,11.1178751 C-0.43902699,11.8946651 -0.427790349,12.9751315 1.13700965,13.456566 L8.38293332,15.7290578 L25.1580173,5.09473964 C25.9499318,4.61220055 26.6767471,4.87162391 26.0802035,5.40361964" fill="#FFFFFF" fill-rule="nonzero"></path>
                            </g>
                        </g>
                    </g>
                </g>
            </g>
        </g>
    </g>
</svg>