<?xml version="1.0" encoding="UTF-8"?>
<svg width="32px" height="27px" viewBox="0 0 32 27" version="1.1" xmlns="http://www.w3.org/2000/svg" xmlns:xlink="http://www.w3.org/1999/xlink">
    <!-- Generator: Sketch 46.2 (44496) - http://www.bohemiancoding.com/sketch -->
    <title>twitter</title>
    <desc>Created with Sketch.</desc>
    <defs></defs>
    <g id="Design" stroke="none" stroke-width="1" fill="none" fill-rule="evenodd">
        <g id="Landing" transform="translate(-427.000000, -12706.000000)" fill="#FFFFFF">
            <g id="Contacts" transform="translate(-275.000000, 12338.000000)">
                <g id="twitter" transform="translate(702.000000, 368.000000)">
                    <path d="M32,4.076 C30.82,4.596 29.56,4.95 28.23,5.11 C29.584,4.296 30.626,3.01 31.116,1.478 C29.848,2.218 28.442,2.758 26.946,3.058 C25.75,1.778 24.046,0.978 22.154,0.978 C18.53,0.978 15.59,3.918 15.59,7.538 C15.59,8.058 15.65,8.558 15.76,9.038 C10.304,8.778 5.466,6.158 2.228,2.198 C1.66,3.16 1.34,4.28 1.34,5.5 C1.34,7.78 2.5,9.786 4.26,10.964 C3.184,10.93 2.17,10.634 1.286,10.144 L1.286,10.224 C1.286,13.404 3.546,16.06 6.552,16.664 C6,16.812 5.42,16.892 4.822,16.892 C4.402,16.892 4.002,16.852 3.602,16.776 C4.442,19.384 6.862,21.282 9.742,21.336 C7.502,23.096 4.662,24.144 1.602,24.144 C1.082,24.144 0.562,24.114 0.042,24.054 C2.962,25.914 6.402,27.002 10.122,27.002 C22.202,27.002 28.802,17.002 28.802,8.342 C28.802,8.062 28.802,7.782 28.782,7.502 C30.062,6.582 31.182,5.422 32.062,4.102 L32,4.076 Z" id="Shape"></path>
                </g>
            </g>
        </g>
    </g>
</svg>