<?xml version="1.0"?>
<svg width="1152" height="648" xmlns="http://www.w3.org/2000/svg" xmlns:svg="http://www.w3.org/2000/svg" preserveAspectRatio="xMidYMid meet">
 <g class="layer">
  <title>Layer 2</title>
  <rect id="svg_34" height="566.216229" width="1006.75678" y="30.378394" x="73.675704" stroke-linecap="null" stroke-linejoin="null" stroke-dasharray="null" stroke-width="5" stroke="#000000" fill="#aaffff"/>
 </g>
 <g class="layer">
  <title>Layer 1</title>
  <g id="svg_1" fill="#000000" transform="translate(0,648) scale(0.10000000149011612,-0.10000000149011612) ">
   <path id="svg_2" d="m9502.135132,5860.405396c-63,-22 -123,-56 -139,-80c-16,-21 -7,-55 17,-71c24,-15 27,-15 77,11c50,26 189,78 194,72c1,-1 11,-31 22,-67l20,-65l1,113l1,112l-62,-1c-39,0 -89,-10 -131,-24z"/>
   <path id="svg_3" d="m8891.135132,5859.405396c-11,-10 -16,-34 -16,-75c0,-58 0,-59 -36,-74c-20,-8 -58,-15 -85,-15c-53,0 -79,-18 -79,-54c0,-12 5,-27 12,-34c15,-15 142,-16 169,-2c18,10 19,7 19,-45l0,-55l-34,0c-25,0 -51,-12 -96,-46c-61,-46 -62,-47 -122,-40c-33,3 -80,15 -104,25l-44,20l6,58c8,83 8,83 48,76c44,-7 66,9 66,48c0,65 -81,91 -146,47c-57,-39 -69,-71 -68,-178c0,-52 2,-104 5,-114c3,-16 -6,-23 -56,-39c-80,-26 -242,-28 -276,-4c-62,43 -60,37 -27,104c35,71 31,107 -15,133c-24,13 -30,13 -54,0c-40,-23 -65,-63 -71,-115c-5,-45 -8,-49 -65,-86c-100,-65 -134,-51 -177,74c-21,60 -30,73 -54,82c-30,10 -29,11 -114,-94c-18,-23 -42,-41 -52,-41c-22,0 -57,54 -66,101c-4,19 -11,40 -17,47c-14,17 -53,15 -72,-5c-41,-41 24,-211 91,-239c61,-25 101,-18 155,27c34,29 49,36 49,25c0,-28 69,-94 117,-112c39,-15 52,-16 92,-5c25,7 67,25 92,42c25,16 48,29 51,29c4,0 25,-16 48,-35c53,-44 93,-55 206,-55c108,0 279,43 319,80c13,12 28,20 33,16c5,-3 41,-10 80,-16c89,-14 127,-4 191,49l48,40l23,-24c27,-29 71,-33 94,-9c13,12 16,40 16,144l0,128l43,21c23,11 68,26 100,33c55,13 57,14 43,33c-9,11 -16,32 -16,48c0,35 -28,36 -110,3l-60,-25l0,48c0,26 -5,52 -12,59c-17,17 -54,15 -72,-4z"/>
   <path id="svg_4" d="m6825.135132,5814.405396c-30,-11 -75,-24 -100,-30c-44,-10 -79,-27 -205,-103c-83,-50 -103,-87 -84,-154c15,-55 76,-117 152,-155c53,-27 219,-54 367,-59l65,-3l-107,-42c-83,-34 -120,-43 -165,-43c-63,0 -83,-11 -83,-45c0,-40 36,-60 104,-59c120,1 379,126 401,193c8,27 -19,88 -42,94c-10,3 -76,8 -148,12c-177,8 -292,24 -340,44c-43,19 -105,72 -105,90c0,6 19,23 43,37c23,14 58,37 77,49c19,13 69,33 110,44c41,11 93,27 115,35c22,8 65,15 96,16c61,0 79,11 79,50c0,14 -5,31 -12,38c-19,19 -154,14 -218,-9z"/>
   <path id="svg_5" d="m2966.135132,5759.405396c-30,-22 -28,-67 6,-92c14,-10 23,-24 19,-30c-3,-6 -36,-20 -71,-32c-72,-24 -118,-57 -140,-101c-17,-32 -19,-96 -5,-134c9,-23 6,-29 -26,-57c-19,-17 -42,-44 -50,-59c-16,-31 -19,-126 -5,-148c7,-11 0,-22 -28,-43c-21,-15 -56,-53 -77,-83c-36,-54 -38,-59 -45,-168c-4,-61 -6,-114 -4,-116c3,-2 -7,-12 -20,-23c-14,-11 -31,-39 -38,-63c-11,-40 -20,-49 -99,-99c-88,-54 -203,-145 -267,-208c-49,-48 -174,-244 -248,-388c-69,-133 -137,-311 -148,-384c-6,-40 -9,-44 -28,-37c-23,9 -107,-7 -143,-27c-28,-15 -90,-87 -149,-173c-27,-41 -66,-92 -86,-114c-42,-46 -117,-192 -145,-280c-17,-53 -19,-91 -18,-325c0,-245 2,-270 22,-328c12,-34 22,-72 22,-85c0,-12 11,-44 23,-72c13,-27 32,-75 42,-105c41,-124 116,-207 240,-265c84,-39 92,-45 109,-86c53,-124 69,-156 94,-189c15,-19 43,-61 62,-93c34,-56 100,-115 216,-192c45,-29 183,-86 314,-127c25,-8 122,-41 215,-72c215,-73 268,-79 757,-74l363,4l102,36c56,20 106,39 112,42c5,4 33,11 62,16c29,6 75,21 103,34c28,13 71,33 96,45c25,12 77,43 115,69c71,48 77,56 195,243c49,78 145,189 163,189c7,0 59,16 117,36c58,19 128,41 155,49c295,81 550,323 630,598c14,47 16,96 13,299c-4,271 -9,297 -74,403c-20,33 -54,105 -75,160c-42,109 -46,114 -198,237c-53,43 -98,72 -125,78c-22,6 -59,17 -81,25c-51,19 -148,19 -207,2l-44,-14l-25,86c-31,113 -78,247 -120,346c-19,44 -41,100 -48,125c-35,119 -130,384 -149,417c-15,27 -110,99 -155,118c-30,12 -135,81 -233,151c-38,27 -41,32 -36,65c2,20 -1,53 -8,73c-10,32 -9,40 10,71c12,19 28,35 35,35c21,0 55,49 55,79c0,14 -9,41 -20,58c-15,26 -32,36 -80,50c-53,16 -60,21 -60,44c0,70 -110,154 -193,147l-42,-3l-1,55c-4,205 -116,298 -377,314c-116,7 -137,12 -137,30c0,20 -53,63 -86,69c-20,4 -39,0 -53,-9zm240,-189c118,-7 200,-28 245,-62c30,-23 36,-34 62,-111c12,-38 1,-84 -30,-118c-13,-15 -18,-33 -16,-60c3,-36 1,-38 -37,-50c-22,-7 -96,-13 -165,-13c-69,-1 -141,-6 -160,-11c-19,-6 -88,-15 -153,-21c-116,-11 -118,-11 -142,13c-14,12 -25,32 -25,44c0,42 39,61 205,102c197,48 229,61 250,102c19,38 22,115 5,135c-7,8 -28,15 -46,15c-27,0 -35,-5 -40,-24c-3,-14 -3,-33 0,-44c12,-35 -28,-54 -192,-88c-13,-3 -39,1 -58,8c-73,26 -46,95 50,123c54,16 96,40 109,62c5,8 14,12 21,10c7,-3 60,-8 117,-12zm507,-385c68,-42 55,-72 -46,-110c-39,-16 -86,-37 -104,-48c-64,-39 -78,-41 -473,-71c-55,-4 -125,-15 -155,-24c-92,-27 -244,-74 -262,-82c-31,-13 -33,22 -3,65c60,87 92,98 330,120c66,7 147,15 180,20c33,5 103,9 155,9c143,2 256,41 306,106c14,19 29,35 33,35c3,0 21,-9 39,-20zm150,-169c21,-13 -49,-115 -108,-157c-38,-28 -49,-42 -52,-67c-2,-24 -11,-36 -33,-47c-16,-9 -41,-23 -56,-33c-14,-9 -71,-33 -128,-52c-110,-38 -152,-59 -216,-105c-62,-45 -136,-78 -232,-103c-87,-24 -89,-24 -183,-7c-52,9 -106,21 -120,27c-14,7 -45,18 -70,25c-53,16 -70,42 -77,128c-5,53 -3,61 20,84c14,14 37,26 49,26c13,0 33,7 45,15c24,17 247,87 331,104c29,6 74,11 100,11c65,0 285,19 352,30c30,5 87,26 125,45c68,35 195,82 225,84c8,0 21,-3 28,-8zm283,-581c4,0 30,-14 58,-31c45,-28 53,-39 75,-98c13,-36 42,-116 65,-178l41,-112l-25,-25c-14,-14 -25,-31 -25,-38c0,-8 -21,-34 -46,-58c-25,-25 -50,-53 -55,-62c-5,-10 -5,-88 1,-200c8,-166 12,-191 40,-266c45,-122 40,-211 -13,-238c-27,-15 -36,-15 -94,1c-34,10 -82,32 -106,49c-23,17 -54,40 -69,49c-16,10 -28,21 -28,25c0,4 16,17 35,29c40,27 75,88 75,134c0,26 -9,41 -46,73c-26,23 -63,55 -82,72l-36,32l-8,168c-4,97 -15,200 -25,242c-14,64 -22,78 -57,108c-85,73 -151,67 -265,-24l-74,-59l-156,-5c-86,-3 -168,-10 -182,-16c-38,-15 -99,-71 -111,-101c-7,-18 -6,-64 3,-146c11,-111 11,-126 -7,-185c-19,-64 -20,-65 -79,-94c-98,-48 -208,-34 -251,32c-27,41 -31,176 -9,259c20,75 15,171 -12,212c-14,22 -14,24 -1,13c11,-8 17,-9 20,-2c1,5 73,28 158,49c174,44 215,58 380,125c192,79 325,143 463,226c63,37 128,85 158,117c28,29 55,53 60,53c6,0 7,5 4,10c-4,6 44,-24 106,-65c62,-41 116,-75 120,-75zm-1850,-250c7,0 49,-62 49,-72c0,-3 -32,6 -70,21c-73,27 -92,49 -74,88c4,10 6,22 5,27c-1,4 17,-8 40,-28c24,-20 46,-36 50,-36zm-345,-439c0,-11 -5,-19 -10,-18c-5,1 -16,-9 -23,-23c-11,-20 -13,-21 -11,-5c1,11 -1,25 -5,32c-5,7 -1,10 12,6c11,-3 21,2 24,11c8,21 13,20 13,-3zm84,-93c0,-5 -13,-8 -30,-8c-33,0 -36,4 -18,24c10,10 17,11 30,2c10,-6 18,-14 18,-18zm-137,7c-3,-9 -8,-14 -10,-11c-3,3 -2,9 2,15c9,16 15,13 8,-4zm-9,-46c-3,-5 -1,-9 5,-9c5,0 12,6 14,13c3,7 6,5 6,-5c1,-10 -4,-18 -11,-18c-9,0 -9,-3 0,-12c15,-15 15,-28 1,-28c-5,0 -7,5 -3,12c5,7 0,9 -14,6c-19,-5 -21,-2 -19,32c1,29 5,36 14,28c7,-6 10,-14 7,-19zm-2,-64c4,-5 5,-18 2,-29c-4,-12 -2,-16 5,-12c7,5 9,1 5,-8c-3,-9 -10,-13 -15,-10c-5,3 -9,-12 -10,-33c-1,-69 -16,-84 -20,-21c-2,31 -1,54 4,51c10,-6 9,5 -3,27c-18,34 10,65 32,35zm32,-162c6,-44 4,-53 -9,-53c-11,0 -15,12 -15,48c0,27 3,52 7,55c9,10 9,8 17,-50zm-211,12c-3,-9 -8,-14 -10,-11c-3,3 -2,9 2,15c9,16 15,13 8,-4zm124,-23c2,-22 11,-43 23,-53c19,-17 19,-17 -3,-24l-22,-8l24,-4c13,-3 28,0 34,6c19,19 44,12 76,-19c26,-26 34,-29 51,-20c11,6 20,15 20,20c0,17 19,11 30,-10c8,-15 8,-18 -3,-14c-7,2 -24,0 -38,-6c-24,-10 -24,-10 4,-5c36,7 34,0 -3,-14c-17,-5 -28,-6 -25,-1c3,5 -4,11 -15,15c-11,3 -20,10 -20,15c0,4 -11,7 -25,5c-16,-1 -25,3 -25,11c0,8 -5,14 -11,14c-5,0 -8,-3 -6,-7c3,-5 -17,-8 -43,-8c-36,0 -46,3 -39,12c7,7 6,13 -3,16c-7,2 -5,3 5,2c9,-2 17,1 17,6c0,5 -6,9 -12,10c-9,0 -9,2 -2,5c8,3 9,17 3,41c-6,31 -5,53 4,53c1,0 3,-17 4,-38zm30,-39c-3,-10 -5,-4 -5,12c0,17 2,24 5,18c2,-7 2,-21 0,-30zm188,-24c-28,-11 -85,-11 -85,0c0,11 45,18 80,12c22,-4 23,-5 5,-12zm185,1c0,-5 -4,-10 -10,-10c-5,0 -10,5 -10,10c0,6 5,10 10,10c6,0 10,-4 10,-10zm-90,-20c13,-9 13,-11 0,-20c-22,-14 -67,-12 -73,4c-3,8 -3,17 0,20c10,9 56,7 73,-4zm93,-45c4,-8 2,-17 -3,-20c-6,-4 -10,-4 -10,-1c0,2 -3,11 -6,20c-3,9 -2,16 4,16c5,0 12,-7 15,-15zm-138,-14c-3,-5 -1,-12 5,-16c5,-3 10,-1 10,5c0,6 4,9 9,5c5,-3 12,-1 16,5c10,16 19,12 31,-14c11,-23 9,-24 -21,-28c-24,-3 -31,0 -28,9c4,9 0,11 -11,7c-10,-4 -15,-13 -12,-20c10,-25 -3,-15 -19,15c-14,27 -13,30 3,34c9,3 18,5 20,6c2,0 1,-3 -3,-8zm105,-1c0,-5 -4,-10 -10,-10c-5,0 -10,5 -10,10c0,6 5,10 10,10c6,0 10,-4 10,-10zm24,-66c5,-14 4,-15 -9,-4c-17,14 -19,20 -6,20c5,0 12,-7 15,-16zm50,-15c-3,-5 -1,-9 4,-9c6,0 13,7 16,16c3,8 10,13 16,9c5,-3 2,-13 -8,-23c-13,-14 -21,-16 -34,-8c-22,13 -24,38 -3,30c8,-4 12,-10 9,-15zm123,-14c-10,-18 -11,-18 -15,-2c-2,9 -7,17 -12,17c-5,0 -7,-8 -5,-18c2,-11 -3,-19 -11,-19c-8,0 -14,4 -14,9c0,4 5,8 11,8c5,0 7,5 3,11c-4,8 -9,8 -17,0c-16,-16 -30,-13 -15,3c7,7 29,13 49,12c34,-1 36,-3 26,-21zm57,-30c-5,-20 -9,-23 -15,-13c-12,18 -11,31 1,23c6,-3 10,2 10,11c0,10 2,15 5,12c4,-3 3,-18 -1,-33zm24,-21c-14,-14 -15,-14 -13,8c3,33 4,33 17,20c10,-9 9,-16 -4,-28zm112,-11c0,-1 -10,-7 -21,-14c-13,-6 -19,-7 -15,-1c3,6 0,12 -6,15c-7,2 -1,4 14,3c16,0 28,-2 28,-3zm37,-25c2,-17 0,-19 -6,-9c-5,8 -16,11 -25,8c-9,-4 -16,-4 -16,-1c0,2 10,9 23,14c12,5 22,9 22,9c1,1 2,-9 2,-21zm56,5c-7,-2 -21,-2 -30,0c-10,3 -4,5 12,5c17,0 24,-2 18,-5zm12,-23c4,-7 -3,-8 -22,-4c-38,9 -42,14 -10,14c14,0 29,-5 32,-10zm710,-30c4,-6 11,-7 17,-4c7,5 8,2 3,-6c-5,-9 -2,-11 11,-7c11,4 29,1 41,-6c23,-13 23,-13 3,-30c-22,-18 -28,-9 -7,12c10,11 9,13 -6,8c-11,-4 -16,-3 -12,3c7,12 3,12 -20,4c-13,-5 -14,-8 -3,-15c9,-6 9,-9 1,-9c-6,0 -15,5 -18,10c-3,6 -11,10 -16,10c-6,0 -7,-5 -3,-12c5,-7 3,-8 -6,-3c-10,6 -10,11 3,20c25,18 9,25 -20,10c-18,-10 -32,-11 -45,-4c-21,11 -24,21 -4,13c8,-3 17,-1 21,5c8,14 52,14 60,1zm490,-300c155,-16 318,-45 410,-74c67,-21 91,-24 164,-20c173,11 225,9 281,-9c66,-22 243,-107 236,-114c-6,-7 17,-32 25,-27c6,4 12,-50 12,-106c-1,-20 -9,-58 -18,-85c-13,-36 -18,-87 -20,-180c-1,-73 -8,-150 -15,-175c-8,-25 -13,-48 -12,-52c1,-5 -3,-8 -9,-8c-5,0 -8,-4 -5,-8c6,-11 -41,-38 -50,-29c-13,13 -31,175 -25,232c14,142 0,242 -49,350c-32,72 -42,81 -101,89c-104,15 -219,-36 -339,-150c-98,-92 -108,-99 -170,-109c-54,-9 -118,-50 -132,-84c-6,-15 -14,-94 -18,-178c-7,-140 -10,-155 -36,-205c-20,-37 -40,-58 -65,-70c-33,-17 -40,-17 -87,-3c-28,9 -57,22 -65,30c-8,7 -17,46 -21,87c-13,130 -50,176 -156,197c-75,15 -128,39 -134,60c-2,9 -7,39 -11,66c-9,64 -67,174 -125,237c-63,69 -92,71 -241,24c-63,-21 -136,-48 -164,-61c-27,-13 -73,-27 -102,-33c-45,-8 -57,-6 -84,10c-47,28 -130,39 -212,28c-137,-20 -208,-74 -252,-192c-66,-178 -65,-177 -114,-206c-64,-37 -171,-37 -285,2c-96,33 -128,54 -151,102c-16,34 -16,39 5,117c46,167 22,271 -81,355c-28,23 -56,42 -62,42c-5,0 -5,5 2,13c6,8 7,18 3,22c-4,5 -2,5 5,1c6,-3 14,-2 18,4c9,15 107,58 188,81c64,19 104,22 347,26c151,2 462,7 690,11c517,9 882,6 1025,-8zm-2328,-126c-3,-3 -12,-4 -19,-1c-8,3 -5,6 6,6c11,1 17,-2 13,-5zm983,-1489c0,-2 -9,-9 -20,-15c-16,-9 -18,-8 -14,5c5,13 34,22 34,10zm43,-15c8,-11 16,-18 19,-15c2,3 5,-2 5,-10c0,-10 -4,-12 -12,-5c-7,5 -14,7 -17,4c-3,-3 -5,3 -4,13c0,10 -5,17 -11,16c-7,-2 -13,2 -13,7c0,17 18,11 33,-10zm64,-3c-1,-5 4,-12 12,-15c8,-2 11,0 7,6c-3,6 1,9 11,8c9,-2 17,-10 19,-19c1,-10 -3,-14 -14,-10c-13,3 -13,1 2,-11c11,-9 15,-16 9,-16c-7,0 -15,5 -18,11c-4,6 -14,8 -22,5c-8,-3 -11,-1 -8,5c4,6 0,18 -9,28c-13,15 -14,18 -2,18c8,0 14,-5 13,-10zm1075,6c-10,-4 -10,-8 0,-21c11,-14 9,-14 -8,1c-23,19 -45,24 -26,5c7,-7 12,-16 12,-22c0,-5 -7,-1 -15,10c-11,15 -15,16 -16,4c-1,-8 -1,-18 0,-22c0,-5 -3,-8 -9,-8c-13,0 -13,27 0,35c6,4 8,10 6,14c-3,4 12,7 32,8c20,0 31,-2 24,-4zm-102,-33c0,-5 -8,-10 -17,-10c-15,0 -15,-2 -4,-9c10,-7 8,-9 -10,-9c-13,0 -35,-3 -49,-8c-23,-7 -24,-6 -11,9c7,10 28,21 45,26c42,12 46,13 46,1zm-280,-28c0,-8 -435,-5 -470,2c-8,2 94,4 228,5c133,0 242,-3 242,-7zm164,0c2,-4 -12,-6 -32,-4c-56,5 -62,10 -15,11c23,1 44,-3 47,-7z"/>
   <path id="svg_6" d="m1855.135132,3540.405396c0,-5 4,-16 9,-23c6,-11 10,-10 15,4c3,9 4,19 1,22c-3,3 -5,-1 -5,-9c0,-11 -2,-11 -10,1c-5,8 -10,11 -10,5z"/>
   <path id="svg_7" d="m2141.135132,3220.405396c-3,-8 -1,-15 4,-15c6,0 10,7 10,15c0,8 -2,15 -4,15c-2,0 -6,-7 -10,-15z"/>
   <path id="svg_8" d="m3351.135132,2996.405396c-4,-5 3,-7 14,-4c23,6 26,13 6,13c-8,0 -17,-4 -20,-9z"/>
   <path id="svg_9" d="m4910.135132,1835.405396c-3,-5 -2,-10 4,-10c5,0 13,5 16,10c3,6 2,10 -4,10c-5,0 -13,-4 -16,-10z"/>
   <path id="svg_10" d="m7665.135132,4935.405396c-36,-39 -132,-70 -216,-70c-40,0 -84,-8 -119,-21c-46,-17 -59,-27 -76,-61c-15,-30 -19,-52 -15,-78c6,-36 5,-37 -44,-57c-59,-25 -68,-49 -47,-122c15,-50 14,-51 -17,-111l-31,-60l-52,0c-29,0 -83,-9 -120,-21c-87,-26 -249,-97 -286,-123c-56,-40 -160,-142 -217,-211c-80,-98 -103,-146 -106,-225c-2,-36 -12,-96 -23,-135c-12,-38 -21,-95 -21,-125c0,-39 -15,-98 -51,-205c-118,-354 -143,-516 -99,-648c36,-108 82,-147 227,-193c160,-51 336,-42 419,21l34,26l0,-248c0,-209 4,-261 20,-333c11,-47 20,-120 20,-163c0,-124 80,-334 146,-386c49,-38 122,-22 194,44l25,23l79,-24c45,-13 105,-24 138,-24c46,0 58,-3 58,-16c0,-9 15,-31 34,-50c31,-31 39,-34 93,-34c50,0 66,5 115,36c32,20 60,45 64,56c5,18 15,19 237,14c128,-2 256,-8 285,-11c37,-5 57,-3 69,6c8,8 29,12 45,10c16,-1 86,3 155,9c95,9 142,19 193,40c37,15 96,38 131,50c35,13 97,46 137,74c40,28 87,60 103,71c153,103 172,120 205,185c18,36 47,109 64,163l32,98l-5,590c-4,532 -6,592 -21,608c-9,10 -50,120 -91,245c-78,235 -81,243 -155,341c-52,69 -50,66 -154,220c-43,64 -94,128 -114,143c-19,15 -56,46 -83,69c-55,48 -178,129 -229,151c-67,30 -413,28 -491,-3c-24,-9 -30,17 -18,77c26,129 -76,219 -264,235c-80,7 -86,14 -68,82c14,55 9,74 -25,90c-33,15 -32,15 -64,-19zm-10,-180c27,-54 52,-67 142,-74c127,-11 188,-42 188,-97c0,-31 -11,-42 -62,-59c-31,-12 -44,-11 -95,5c-114,36 -174,22 -159,-38c5,-22 16,-28 73,-42c122,-30 141,-32 187,-25c51,8 66,-2 86,-54c13,-36 -6,-70 -47,-80c-42,-11 -73,-34 -73,-56c0,-28 -56,-33 -293,-28c-181,5 -209,8 -272,29c-64,23 -70,28 -73,54c-2,17 -12,39 -23,51c-19,20 -19,21 4,42l23,22l37,-26c41,-28 84,-29 100,-3c17,28 0,64 -43,88c-47,26 -100,69 -100,81c0,13 63,31 111,32c24,0 84,0 132,-1c105,-3 137,11 137,59c0,41 -28,54 -82,40c-78,-22 -208,7 -208,45c0,24 36,35 139,44c55,5 108,14 118,20c28,16 31,14 53,-29zm667,-402c33,-36 53,-69 53,-90c0,-15 -64,55 -85,95c-21,37 -6,34 32,-5zm416,-98c29,-25 69,-58 90,-74c22,-16 71,-77 113,-142c41,-62 79,-116 84,-119c6,-4 10,-11 10,-17c0,-16 -46,-1 -157,53c-86,41 -104,53 -109,76c-18,82 -26,101 -51,125c-16,15 -60,36 -103,49l-75,22l33,14c33,14 36,17 46,66l7,28l30,-18c17,-10 54,-38 82,-63zm-435,-15c-3,-3 -9,2 -12,12c-6,14 -5,15 5,6c7,-7 10,-15 7,-18zm-64,-11c10,-27 7,-42 -13,-47c-25,-6 -51,10 -51,33c0,30 53,42 64,14zm-1469,-189c34,-27 84,-53 141,-74c137,-50 198,-61 340,-61c147,1 333,-8 345,-16c8,-4 102,-12 191,-16c22,-1 35,-5 31,-11c-3,-6 -1,-7 5,-3c6,3 86,7 178,8c173,1 262,15 340,55c30,15 33,15 65,-5c19,-11 50,-23 70,-27c30,-6 43,-16 69,-56c17,-27 40,-53 50,-59c11,-6 20,-26 24,-54c7,-42 5,-48 -27,-80c-43,-42 -53,-89 -32,-148c17,-50 19,-111 5,-139c-9,-16 -14,-17 -33,-8c-34,18 -38,30 -31,92c5,52 3,61 -24,105c-17,26 -37,64 -45,84c-19,46 -50,65 -78,46c-33,-21 -57,-111 -57,-215c0,-126 -31,-212 -48,-135c-25,114 -75,199 -144,241c-40,25 -51,38 -64,79c-21,61 -33,72 -88,79c-75,8 -86,12 -105,45c-36,60 -144,95 -206,67c-13,-6 -32,-24 -42,-41l-18,-31l-12,30c-18,43 -75,83 -116,82c-19,0 -47,3 -64,6c-24,5 -42,-1 -93,-34c-34,-23 -69,-41 -76,-41c-7,0 -39,9 -71,20c-85,29 -106,26 -156,-20c-37,-35 -45,-38 -58,-26c-43,39 -122,26 -166,-26c-20,-23 -25,-40 -23,-72c5,-95 0,-112 -46,-158c-63,-65 -77,-98 -82,-194c-6,-129 -52,-309 -68,-264c-66,188 -75,232 -78,410c-4,154 -7,181 -26,224c-26,58 -28,96 -6,139c25,48 104,145 173,210c69,66 65,66 156,-8zm1695,34c0,-6 -4,-7 -10,-4c-5,3 -10,11 -10,16c0,6 5,7 10,4c6,-3 10,-11 10,-16zm215,-159c4,-6 1,-18 -6,-26c-11,-13 -14,-13 -27,0c-8,8 -11,19 -8,25c9,14 33,14 41,1zm481,-198c13,-29 24,-56 24,-60c0,-5 -23,-9 -50,-11c-47,-2 -51,0 -61,26c-10,26 -6,90 8,138c5,17 8,17 30,-10c14,-17 36,-54 49,-83zm-1516,-46c0,-2 -7,-7 -16,-10c-8,-3 -12,-2 -9,4c6,10 25,14 25,6zm1207,-58c-3,-8 -6,-5 -6,6c-1,11 2,17 5,13c3,-3 4,-12 1,-19zm-924,-69c47,-18 61,-29 72,-56c8,-18 18,-33 22,-33c4,-1 19,-10 32,-21c19,-15 26,-34 32,-87c4,-37 12,-87 19,-112c17,-65 7,-148 -22,-176c-28,-27 -126,-59 -230,-75c-106,-16 -191,0 -252,48c-24,19 -47,41 -50,48c-3,8 -23,23 -44,34c-47,24 -56,42 -38,76c10,19 11,36 3,69c-13,59 -4,100 41,175c37,65 81,101 152,128c51,20 190,10 263,-18zm-539,-27c3,-5 -1,-9 -9,-9c-8,0 -12,4 -9,9c3,4 7,8 9,8c2,0 6,-4 9,-8zm-17,-36c-3,-7 0,-19 6,-25c9,-9 8,-11 -5,-6c-10,4 -18,9 -18,10c0,9 13,35 17,35c3,0 3,-6 0,-14zm-177,-38c0,-18 -2,-19 -17,-7c-11,10 -14,10 -9,2c4,-7 3,-13 -3,-13c-5,0 -9,9 -8,19c1,12 6,17 16,13c10,-4 12,-1 6,8c-5,9 -4,11 3,6c7,-4 12,-16 12,-28zm180,-23c-5,-6 -8,-15 -5,-18c3,-4 2,-5 -2,-2c-13,10 -10,43 4,38c9,-4 10,-9 3,-18zm-322,-65c42,-49 72,-105 72,-134c0,-9 -10,-24 -21,-35c-18,-17 -21,-28 -17,-71c4,-42 2,-53 -11,-57c-9,-2 -36,-13 -60,-24c-28,-13 -54,-18 -72,-14c-17,4 -40,0 -61,-11c-38,-20 -156,-23 -201,-5c-24,10 -26,13 -16,32c10,19 17,21 57,15c136,-20 144,-19 202,11c41,21 61,40 79,73c33,58 33,138 1,200c-12,24 -26,57 -31,72c-7,26 -7,27 14,13c12,-8 41,-37 65,-65zm200,51c12,-7 4,-8 -28,-4c-43,6 -44,5 -30,-13c14,-18 14,-18 -6,-1c-11,9 -25,14 -29,10c-5,-5 -4,0 3,9c14,17 58,17 90,-1zm1715,-86c-32,-40 -38,-42 -47,-18c-5,11 0,23 12,33c11,8 28,30 38,48l19,34l3,-31c2,-22 -5,-41 -25,-66zm316,30c15,-42 23,-97 28,-180c6,-130 -3,-263 -18,-248c-5,5 -18,46 -30,92c-28,112 -44,146 -84,187c-20,20 -35,45 -35,58c0,45 37,109 76,132c21,13 39,22 40,21c1,-1 12,-29 23,-62zm-2039,18c0,-12 -2,-12 -15,1c-8,8 -15,17 -15,20c0,3 7,3 15,0c8,-4 15,-13 15,-21zm0,-42c0,9 3,10 8,3c4,-7 16,-14 27,-17c18,-4 18,-5 -2,-7c-34,-4 -37,-4 -53,-15c-13,-7 -13,-6 -2,7c9,11 10,18 2,23c-5,3 -10,12 -10,18c0,7 7,3 15,-7c11,-14 15,-16 15,-5zm97,-7c-3,-3 -12,-4 -19,-1c-8,3 -5,6 6,6c11,1 17,-2 13,-5zm13,-32c0,-4 -22,-7 -49,-7c-27,0 -47,3 -44,8c6,9 93,9 93,-1zm1730,-388c14,-41 3,-61 -23,-42c-13,10 -15,22 -11,50c8,44 18,42 34,-8zm252,-160c5,-45 8,-201 5,-359c-4,-273 -5,-282 -32,-360c-15,-43 -37,-100 -50,-126c-25,-49 -95,-109 -127,-109c-10,0 -26,-9 -35,-20c-10,-11 -32,-25 -50,-31c-18,-6 -32,-15 -30,-22c3,-14 -99,-83 -136,-92c-31,-8 -36,8 -12,39c22,30 29,120 15,217c-7,49 -10,92 -7,95c3,4 59,12 124,18c167,18 207,44 214,141c7,110 -15,147 -113,185c-32,12 -62,28 -68,36c-16,19 17,73 50,81c37,9 50,22 50,53c0,63 12,91 41,97c47,9 70,43 76,115c6,67 47,148 65,130c6,-6 14,-45 20,-88zm-358,-116c-8,-29 -10,-31 -23,-23c-8,4 -8,12 -1,26c15,27 33,24 24,-3zm-1669,-112c4,-109 -7,-124 -77,-106c-27,8 -42,19 -48,36c-20,51 -7,144 19,144c5,0 13,-28 18,-62c6,-46 12,-63 23,-63c10,0 16,12 18,35c1,19 5,55 8,79c5,43 6,43 21,21c10,-13 17,-48 18,-84zm949,23c-4,-7 -12,4 -20,27c-18,52 -17,55 7,17c11,-18 17,-38 13,-44zm87,-39c19,0 8,-19 -23,-39c-18,-11 -37,-16 -41,-12c-13,13 23,63 40,57c8,-4 19,-6 24,-6zm245,-187c-10,-10 -19,5 -10,18c6,11 8,11 12,0c2,-7 1,-15 -2,-18zm-256,-182c0,-30 -11,-51 -26,-51c-9,0 -14,12 -14,35c0,28 4,35 20,35c13,0 20,-7 20,-19zm-466,-11c-3,-3 -9,-5 -13,-5c-20,0 -61,-66 -69,-111c-6,-27 -10,-38 -11,-24c0,14 3,40 8,58c6,20 6,32 0,32c-5,0 -10,-10 -10,-22c-1,-17 -2,-19 -6,-5c-2,9 -9,17 -14,17c-5,0 -9,7 -9,16c0,9 5,12 12,8c8,-5 9,0 6,14c-4,12 -2,20 3,16c5,-3 9,-1 9,4c0,4 22,8 49,8c28,0 47,-3 45,-6zm171,0c-3,-5 -11,-10 -16,-10c-6,0 -7,5 -4,10c3,6 11,10 16,10c6,0 7,-4 4,-10zm520,-6c14,-9 34,-31 45,-49c20,-32 27,-75 13,-75c-16,1 -87,56 -106,82c-35,47 -3,76 48,42zm-610,-4c-11,-5 -27,-9 -35,-9c-9,0 -8,4 5,9c11,5 27,9 35,9c9,0 8,-4 -5,-9zm41,-5c-11,-8 -25,-15 -30,-15c-6,1 0,7 14,15c32,19 40,18 16,0zm-381,-59c-18,-13 -27,-54 -15,-66c3,-3 2,-25 -1,-50l-6,-45l-2,45c-2,25 -4,58 -6,74c-2,32 12,55 34,56c11,0 9,-4 -4,-14zm109,-5c8,-13 -4,-42 -15,-35c-12,7 -12,44 0,44c6,0 12,-4 15,-9zm-769,-21c-3,-5 -1,-18 5,-29c7,-13 7,-22 0,-26c-5,-3 -10,-1 -10,5c0,6 -5,8 -12,4c-10,-6 -10,-5 -1,8c7,8 10,18 7,21c-6,6 3,27 12,27c3,0 2,-4 -1,-10zm685,-10c0,-5 -4,-10 -10,-10c-5,0 -10,5 -10,10c0,6 5,10 10,10c6,0 10,-4 10,-10zm-620,-50c0,-10 -9,-20 -19,-23c-12,-3 -21,-16 -24,-33c-4,-29 -4,-29 -6,3c-1,42 17,83 35,76c8,-3 14,-13 14,-23zm746,4c2,-54 5,-65 12,-60c4,3 9,-11 9,-30c1,-19 -3,-34 -8,-34c-5,0 -9,-4 -9,-10c0,-5 6,-8 13,-6c6,1 9,1 4,-1c-4,-3 -4,-10 0,-16c4,-7 -1,-6 -10,2c-20,16 -23,41 -4,41c8,0 7,4 -3,10c-8,5 -12,10 -8,10c4,0 0,16 -8,35c-17,43 -19,88 -2,83c7,-3 13,-13 14,-24zm-715,-67c-19,-19 -23,1 -10,40l14,38l3,-34c2,-18 -1,-38 -7,-44zm655,-2c-21,-16 -20,-62 2,-106c18,-36 18,-36 -6,-58c-18,-16 -23,-29 -20,-51c2,-16 1,-27 -3,-24c-4,2 -5,-13 -2,-33c3,-21 10,-39 14,-41c4,-2 5,-10 2,-18c-3,-8 1,-14 11,-14c9,0 15,6 14,13c-2,6 3,12 11,12c17,0 24,-32 9,-42c-7,-3 -8,-1 -4,5c4,7 2,12 -3,12c-6,0 -11,-6 -11,-13c0,-19 -32,-34 -62,-30c-14,2 -30,-2 -34,-8c-4,-8 -3,-9 4,-5c8,5 10,2 6,-8c-4,-11 0,-16 11,-16c9,0 13,4 10,10c-3,5 0,7 8,4c8,-3 20,2 27,11c16,19 31,20 24,0c-4,-8 -10,-12 -15,-9c-8,5 -13,-9 -10,-29c0,-4 -2,-6 -6,-5c-5,1 -17,-2 -28,-8c-25,-13 -45,-12 -46,1c0,6 -4,15 -8,20c-5,6 -2,25 6,43c11,27 17,31 28,22c23,-19 30,8 28,99c-2,49 2,89 8,97c6,7 10,51 10,98c0,47 4,88 9,91c6,3 10,16 11,28c0,19 2,18 11,-7c9,-24 8,-31 -6,-41zm-46,31c0,-14 -4,-28 -10,-31c-5,-3 -10,-39 -11,-78c-1,-40 -5,-110 -9,-157c-7,-72 -8,-64 -4,50c5,164 13,240 25,240c5,0 9,-11 9,-24zm140,9c0,-12 -19,-12 -23,0c-4,9 -1,12 9,8c7,-3 14,-7 14,-8zm-670,-10c0,-7 -7,-18 -15,-25c-13,-10 -15,-9 -15,12c0,15 6,25 15,25c8,0 15,-6 15,-12zm1050,-20c0,-18 -5,-25 -19,-25c-26,0 -36,17 -21,35c19,23 40,18 40,-10zm-1100,-101c0,-47 -4,-73 -10,-69c-5,3 -10,37 -10,76c0,39 4,69 10,69c6,0 10,-32 10,-76zm670,22c0,-3 -4,-8 -10,-11c-5,-3 -10,-1 -10,4c0,6 5,11 10,11c6,0 10,-2 10,-4zm-723,-38c-3,-7 -5,-2 -5,12c0,14 2,19 5,13c2,-7 2,-19 0,-25zm114,1c6,-13 7,-19 1,-15c-6,3 -12,0 -15,-6c-2,-7 -4,-1 -3,14c1,34 2,34 17,7zm871,-39c38,-76 35,-81 -12,-19c-40,54 -51,84 -27,77c6,-2 24,-28 39,-58zm-239,44c3,-3 3,-12 0,-20c-4,-11 -7,-11 -19,1c-8,7 -14,16 -14,19c0,8 25,8 33,0zm544,-15c16,-16 5,-39 -17,-39c-23,0 -34,16 -26,35c6,18 28,19 43,4zm303,-11c0,-34 -118,-138 -158,-138c-24,0 19,60 78,106c55,44 80,54 80,32zm-833,-23c0,-8 -4,-15 -9,-15c-4,0 -8,-21 -8,-46c0,-25 -4,-43 -8,-40c-5,3 -15,-6 -22,-19c-13,-25 -40,-35 -40,-15c0,6 5,10 10,10c17,0 11,58 -7,69c-14,8 -11,9 13,5c31,-6 46,8 43,40c-1,6 18,24 27,26c0,0 1,-7 1,-15zm-768,-34c14,-14 16,-21 8,-25c-7,-2 -4,-5 6,-5c18,-1 23,-16 8,-26c-13,-7 -10,-45 4,-45c16,0 43,20 27,20c-10,0 -10,3 0,14c11,12 14,12 21,0c4,-8 5,-19 2,-24c-3,-6 0,-10 8,-10c8,0 18,-7 21,-16c5,-14 4,-15 -9,-4c-12,10 -15,10 -15,-3c0,-8 -9,-17 -20,-20c-13,-3 -20,0 -20,9c0,8 -2,14 -4,14c-2,0 -13,3 -23,7c-17,7 -17,6 0,-11c17,-17 14,-42 -4,-30c-5,3 -7,9 -4,14c3,5 1,11 -4,15c-6,3 -7,13 -4,22c5,12 2,15 -9,11c-19,-8 -20,22 -1,41c12,11 12,15 1,22c-7,5 -9,9 -5,9c4,0 3,9 -3,20c-14,25 -6,26 19,1zm78,-23c-3,-7 -5,-2 -5,12c0,14 2,19 5,13c2,-7 2,-19 0,-25zm500,10c-3,-8 -6,-5 -6,6c-1,11 2,17 5,13c3,-3 4,-12 1,-19zm-610,-3c0,-8 -4,-12 -9,-9c-5,3 -6,10 -3,15c9,13 12,11 12,-6zm610,-82c-3,-10 -5,-2 -5,17c0,19 2,27 5,18c2,-10 2,-26 0,-35zm0,-55c-3,-7 -5,-2 -5,12c0,14 2,19 5,13c2,-7 2,-19 0,-25zm-493,-9c-2,-4 2,-10 8,-13c7,-3 4,-4 -7,-3c-11,1 -19,-3 -18,-10c2,-8 -7,-12 -21,-11c-15,1 -23,8 -21,18c1,9 11,14 24,13c12,-2 20,1 17,5c-3,5 1,9 9,9c8,0 12,-4 9,-8z"/>
   <path id="svg_11" d="m7695.135132,3533.405396c-14,-6 -42,-17 -62,-25c-77,-32 -122,-108 -119,-203c3,-84 33,-159 81,-197c31,-24 152,-55 219,-55c95,0 149,17 192,60c63,64 62,167 -5,286c-39,70 -81,104 -158,132c-47,16 -112,17 -148,2z"/>
   <path id="svg_12" d="m7780.135132,2105.405396c-3,-5 -1,-10 4,-10c6,0 11,5 11,10c0,6 -2,10 -4,10c-3,0 -8,-4 -11,-10z"/>
   <path id="svg_13" d="m7798.135132,2096.405396c-15,-13 -19,-21 -10,-24c7,-2 18,2 25,9c7,8 9,14 5,14c-4,0 -1,5 7,10c8,5 11,10 5,10c-5,-1 -20,-9 -32,-19z"/>
   <path id="svg_14" d="m7601.135132,1476.405396c-4,-6 -2,-11 4,-11c7,0 10,-6 7,-14c-7,-17 30,-13 47,5c8,9 6,9 -9,1c-16,-9 -22,-7 -31,10c-7,14 -14,17 -18,9z"/>
   <path id="svg_15" d="m7740.135132,1665.405396c3,-5 8,-10 11,-10c2,0 4,5 4,10c0,6 -5,10 -11,10c-5,0 -7,-4 -4,-10z"/>
   <path id="svg_16" d="m7008.135132,1646.405396c-10,-16 -9,-20 3,-25c9,-3 12,-2 9,5c-4,5 -1,16 5,24c7,8 8,15 4,15c-5,0 -15,-9 -21,-19z"/>
   <path id="svg_17" d="m7050.135132,1525.405396c3,-5 8,-10 11,-10c2,0 4,5 4,10c0,6 -5,10 -11,10c-5,0 -7,-4 -4,-10z"/>
   <polyline id="svg_18" points="112.8648938443042,391.1892129981517 112.86489384430419,390.23718594931256 112.86489384430419,389.2829066481697 112.86489384430419,388.26128500314167 112.86489384430419,387.59844715011747 112.86489384430419,386.8504741600076 112.86489384430419,385.7838074689024 112.86489384430419,384.9608344770743 112.86489384430419,384.0648885106012 112.86489384430419,383.39101462128815 112.86489384430419,382.2126362159118 112.86489384430419,381.31714069989954 112.86489384430419,380.3784019396533 112.86489384430419,379.9063298567655 112.86489384430419,378.98380731310704 112.86511906953459,377.73380728446824 112.8709749255246,377.0193928536858 112.91354249406744,376.0829063457434 113.09011907468957,374.9729964104042 113.34147043179965,374.1561044997964 113.54056953546032,373.59349187429376 113.83246143403979,372.6955188807472 114.05205603366554,371.7009242633653 114.1389929725943,370.9829062288967 114.1880920728183,370.2432665723111 114.21444342477339,369.14056384434423 114.21624522661648,368.1103836405615 114.21624522661648,367.1982214575007 114.21624522661648,366.407680898848 114.21624522661648,365.35677997386983 114.21624522661648,364.6684916698121 114.21624522661648,363.7279511077228 114.21624522661648,362.81083396959355 114.21624522661648,362.11353665632043 114.21624522661648,360.95317626937486 114.21624522661648,360.26488796531714 114.21624522661648,359.2261492027797 114.21624522661648,358.5207437812127 114.21624522661648,357.43470772029434 114.21624522661648,356.5428158079683 114.21624522661648,355.6684914636123 114.21624522661648,354.70272567571976 114.21624522661648,353.94056349609565 114.21624522661648,352.9657886989877 114.21624522661648,352.0000229110952 114.21624522661648,351.29619406614086 114.21647045184687,350.2142120593695 114.23065964136114,349.5189417731699 114.29349748063865,348.75069851232536 114.5160200082594,347.67524803723506 114.83426325879397,346.8360588288192 115.138767770275,346.22704980585706 115.52975877022403,345.55317591654403 116.30115518429398,344.37434706070695 116.60723627238771,343.9315542577693 116.9322362798338,343.4671398327146 117.62277683619538,342.4842569273128 117.98020927681699,341.97119385249493 118.3403444202032,341.44731996661847 118.69912821220711,340.91533797244824 119.72773183937717,339.2977703678204 120.04687599083326,338.7603829681209 120.35520933123084,338.2284009739506 120.94484898437977,337.19146401325634 121.22885799989575,336.6919144522615 121.78201116572225,335.74416668279986 122.32435352049023,334.88290540180617 122.86309227157207,334.1225450240251 123.3910202115954,333.4486711347121 123.89732652950175,332.83966211175 124.37120041423259,332.27389633302187 124.99800223039512,331.4599323504092 125.51894818827648,330.67749990005035 125.96692117151301,329.99236474921804 126.64687614204647,329.2576800477009 127.6144437317821,329.02704941178627 128.20633563723487,328.5443917430704 128.69732663947497,327.94416650409335 129.05295727825347,327.0000223383178 129.08471403573782,326.04686916332685 129.17840773157815,325.3189412187213 129.53156089282243,324.07209434330787 129.679759094416,323.6403375766591 130.0464257694834,322.6308780940718 130.25948883742797,322.06128348642716 130.48876812196028,321.4538510400778 130.73156092031573,320.8126348091706 130.98516452972967,320.1416888478526 131.24687624743748,319.4450672102706 131.78381319667625,317.9910131229026 132.0538582479083,317.2421392318712 132.3225519477581,316.4865085839282 132.5885429448432,315.7308779359853 132.8504798877814,314.9820040449539 133.10701142519036,314.2466436677456 133.59845287789125,312.8434904824446 133.83066009041858,312.18921118817514 134.26129073091545,311.0090309809557 134.64507452349213,310.02704897647544 134.82683128441312,309.6002471648951 135.19034480625515,308.8412381384964 135.58088535574342,308.1633101950364 136.2883178043839,307.18020206440417 136.8739034033859,306.48290475113106 137.51354305768038,305.7639858157409 137.83674126328341,305.4065533751193 138.45611064684323,304.71601281875775 139.21624579939387,303.80182360862347 139.7459755412603,302.92254430919894 " opacity="0.5" stroke-linecap="round" stroke-linejoin="null" stroke-dasharray="null" stroke-width="5" stroke="#000000" fill="none"/>
   <polyline id="svg_19" points="139.89192149055003,302.00002176554045 140.86331790920218,301.02862534688825 141.32773233425684,300.5642109218336 141.8732278422502,300.01871541384025 142.81984948555998,299.0720937705305 143.1642188628192,298.7277243932712 143.88809275327782,298.0038505028126 144.26489456371257,297.62704869237785 145.04147115808138,296.85047209800905 145.4385432392508,296.4534000168396 146.64867840211144,295.243264853979 147.05408381680513,294.8376342140549 147.45948923149882,294.4306522227485 148.2703000608862,293.60722878045954 148.6757054755799,293.18808462671234 149.48651630496727,292.32817469710096 149.89192171966096,291.88470621847216 150.70273254904833,290.9639854766568 151.10791273851163,290.4847061863967 151.912867711909,289.4964178754656 152.30993979307843,288.99281426032394 152.7016064687186,288.4865079424176 153.08651638744723,287.9802016245112 153.83066054864054,286.978399799757 154.53156146559982,286.0090304081783 155.18561553463897,285.0865078645198 155.5025074337912,284.63876010651364 156.1362912320957,283.7567781043245 156.46129123954177,283.31713845461223 156.7971020580464,282.87479610213535 157.90993992138056,281.5045258004707 158.32773272374544,281.0256969606713 158.765795796845,280.5387600125781 159.2173723837677,280.0491203617203 160.1340390714362,279.0833545738278 160.5856156583589,278.6180392478516 161.02367873145846,278.17164284122777 162.18921929870282,277.00002119276303 162.50746254923735,276.6817779422285 163.25948959349415,275.9297508979717 163.79259771381635,275.3966427776495 164.4847148467906,274.70272384283214 165.08494008576764,274.027048151676 " opacity="0.5" stroke-linecap="round" stroke-linejoin="null" stroke-dasharray="null" stroke-width="5" stroke="#000000" fill="none"/>
   <polyline id="svg_20" points="165.56759775448353,272.27029135467006 169.4385437891171,270.48425527771394 169.96759785529235,270.2612822996324 171.11894923302242,269.77479580199997 171.73313843628335,269.5112822824491 172.367597910279,269.2342552490751 173.01827360086236,268.9437147018779 173.68111145388653,268.63966064085764 175.02705743066954,267.99101197734774 175.7085889778157,267.6455164739366 176.425255660902,267.28110205117304 177.21219261586853,266.8923633035279 178.1045349786554,266.4738948254718 179.13741788520275,266.0202912114757 180.34597647145074,265.52614705601013 181.7653458733394,264.98605695354604 183.43066122680892,264.394615498554 187.63967033225097,263.0360569088694 190.23651723859442,262.2615073415741 193.11714793522347,261.4342550703686 196.21399485302246,260.56916496045835 199.4594904228758,259.6811018770487 202.78606707566792,258.78493068534533 206.12615724228309,257.89551625055344 209.4121933536058,257.02772343787854 212.57660784052044,256.1964171125261 218.2703016646629,254.70272338461024 220.67976117932574,254.06668733400193 222.7892206871152,253.5063269608031 224.62300451291298,253.0162368594845 226.20543698160068,252.5910116245169 227.5608424180599,252.22524585037104 228.71354514717228,251.91353413151768 229.68786949381945,251.65047106242756 230.508139782883,251.43065123757142 " opacity="0.5" stroke-linecap="round" stroke-linejoin="null" stroke-dasharray="null" stroke-width="5" stroke="#000000" fill="none"/>
  </g>
 </g>
</svg>