<svg xmlns="http://www.w3.org/2000/svg" width="300" height="301" viewBox="0 0 300 301"><g fill="none" fill-rule="evenodd"><circle cx="150" cy="150.5" r="150" fill="#C1ACF1"/><path fill="#9274E3" d="M94.973 185.871c23.046-39.68 77.233-46.508 105.517 0 28.284 46.508 17.137 50.768-.934 50.768H99.701c-21.737 0-27.775-11.086-4.728-50.768z"/><path fill="#F3F6FA" d="M93.868 82.702h110.378a12 12 0 0 1 11.267 7.87c7.234 19.735 10.851 40.466 10.851 62.195 0 21.43-5.132 44.275-15.396 68.534a18 18 0 0 1-16.578 10.986h-90.247a18 18 0 0 1-16.294-10.35c-11.065-23.57-16.597-46.627-16.597-69.17 0-22.782 3.83-43.638 11.493-62.567a12 12 0 0 1 11.123-7.498z"/><path fill="#D9E0E8" d="M85.195 86.843l3.633-6.797 9.423-10.345 6.732-5.696 6.472-3.106h74.305l8.025 3.106L200 69.701l6.214 7.508 5.178 8.026 1.294 3.107-2.977-3.107-4.66-1.682H92.686c-2.313.71-3.6 1.064-3.858 1.064-.26 0-1.47.742-3.633 2.226z"/><path fill="#98A3AD" d="M145.948 65.248h-11.89a3 3 0 0 0-2.834 2.017l-3.027 8.727a2 2 0 0 0 1.89 2.656h41.782a2 2 0 0 0 1.933-2.516l-2.312-8.658a3 3 0 0 0-2.898-2.226h-22.644z"/><path fill="#B8C7D0" d="M146.558 69.702h-12.347l-3.014 8.946H168a2 2 0 0 0 1.953-2.429l-1.43-6.517h-21.964z"/><path fill="#AD81FF" d="M147.48 78.648L147.842 58l1.49-1.91c.006-.356 1.275-.17 3.809.559.39 0 1.436 2.42 1.45 2.947l.592 19.05"/><path fill="#DCE1EC" d="M94.42 82.702h3.832c-26.675 45.68-19.405 98.225-5.745 135.443 2.768 7.544 12.088 12.333 22.574 13.369-4.228.154-8.616.001-13.165-.46a18 18 0 0 1-14.063-9.434c-10.6-19.865-15.9-41.158-15.9-63.878 0-22.954 3.704-45.262 11.113-66.923a12 12 0 0 1 11.354-8.117z"/><path fill="#B8C2D0" d="M85.43 86.492l5.054-7.47 7.767-9.32 6.732-5.697 6.472-3.106h15.665c-12.773.95-22.481 8.5-29.126 22.654-2.935.258-4.705.258-5.308 0-1.923.553-3.013.83-3.272.83-.26 0-1.587.702-3.985 2.109z"/><path fill="#826CE7" d="M147.48 78.648L147.842 58l1.49-1.91c.006-.356 1.275-.17 3.809.559-2.087-.157-2.818.86-2.862 3.746-.023 1.526-.013 7.61.03 18.252"/><g stroke="#2A2825" stroke-width="1.5"><path d="M84.492 88.25c6.601-13.464 18.738-27.642 30.984-27.642h32.485m7.26 0h27.5c12.25 0 22.525 12.46 31.263 28.123"/><path d="M147.48 78.648l.332-20.579a2 2 0 0 1 1.995-1.967l2.804-.007a2 2 0 0 1 2.004 1.945l.569 20.608"/><path d="M146.983 65.248H134.06a3 3 0 0 0-2.835 2.017l-3.488 10.055a1 1 0 0 0 .945 1.328h44.49a1 1 0 0 0 .967-1.258l-2.648-9.916a3 3 0 0 0-2.898-2.226h-13.399"/><path d="M146.924 69.402h-12.322a.52.52 0 0 0-.492.374l-2.669 8.604m38.905 0l-1.914-8.56a.523.523 0 0 0-.505-.418h-12.711m-61.348 14.05a11.25 11.25 0 0 0-10.428 7.03c-7.625 18.836-11.438 39.597-11.438 62.285 0 22.252 4.963 45.013 14.894 68.29a17.25 17.25 0 0 0 15.867 10.48h91.848a17.25 17.25 0 0 0 15.923-10.616c10.056-24.138 15.08-46.855 15.08-68.154 0-21.641-3.602-42.286-10.806-61.937a11.25 11.25 0 0 0-10.562-7.378H93.868z"/></g><g transform="translate(87.379 96.628)"><path fill="#B8C7D0" d="M19.832.744h83.622a10 10 0 0 1 9.49 6.846c6.28 18.899 9.42 37.408 9.42 55.528 0 18.303-4 36.603-12 54.9a10 10 0 0 1-9.163 5.994h-79.72a10 10 0 0 1-9.116-5.887C4.452 100.588.495 82.253.495 63.118c0-18.994 3.314-37.592 9.94-55.795a10 10 0 0 1 9.397-6.58z"/><path fill="#CE59D4" d="M22.39 122.718a4.66 4.66 0 1 0 9.32 0h.001m59.765 0a4.66 4.66 0 0 0 9.32 0"/><path fill="#2A2825" d="M19.717 6.471h83.847a10 10 0 0 1 9.447 6.72c6.235 17.954 9.352 35.54 9.352 52.756 0 17.412-3.98 34.82-11.942 52.225a10 10 0 0 1-9.094 5.84H21.353a10 10 0 0 1-9.044-5.732C4.433 101.595.495 84.15.495 65.947c0-18.051 3.292-35.728 9.875-53.032a10 10 0 0 1 9.347-6.444z"/><path fill="#AD81FF" d="M25.375 117.188h3.178a1 1 0 0 1 1 1v1.588a2.589 2.589 0 1 1-5.178 0v-1.588a1 1 0 0 1 1-1z"/><rect width="5.178" height="5.178" x="24.931" y="6.731" fill="#AD81FF" rx="1"/><path fill="#AD81FF" d="M94.281 117.188h3.178a1 1 0 0 1 1 1v1.588a2.589 2.589 0 1 1-5.178 0v-1.588a1 1 0 0 1 1-1z"/><rect width="5.178" height="5.178" x="93.078" y="6.731" fill="#AD81FF" rx="1"/></g><g stroke="#2A2825"><path stroke-width="1.5" d="M107.21 98.122a9.25 9.25 0 0 0-8.691 6.085c-6.597 18.122-9.895 36.633-9.895 55.538 0 19.029 3.934 37.26 11.803 54.7a9.25 9.25 0 0 0 8.432 5.445h79.721a9.25 9.25 0 0 0 8.475-5.545c7.96-18.203 11.937-36.402 11.937-54.6 0-18.037-3.126-36.466-9.38-55.29a9.25 9.25 0 0 0-8.779-6.333h-83.622z"/><path d="M109.77 219.346a4.66 4.66 0 1 0 9.32 0m59.765 0a4.66 4.66 0 1 0 9.32 0"/></g><path stroke="#2A2825" stroke-linecap="square" stroke-width="1.5" d="M112.691 107.41h76.945m-77.414-3.597h76.945m-76.945 111.409h76.945"/><path fill="#FFF" d="M161.721 153.12c-.796 6.023 3.44 11.55 9.462 12.346 6.022.797 11.55-3.44 12.346-9.462.796-6.022-3.44-11.549-9.462-12.345-6.022-.797-11.55 3.44-12.346 9.462"/><path fill="#FF618A" d="M162.859 153.872a8.683 8.683 0 1 0 17.217 2.277 8.683 8.683 0 0 0-17.217-2.277"/><path fill="#2A2825" d="M164.708 154.44a6.947 6.947 0 1 0 13.773 1.82 6.947 6.947 0 0 0-13.773-1.82"/><path fill="#FFF" d="M172.453 148.83a3.473 3.473 0 1 0 6.887.91 3.473 3.473 0 0 0-6.887-.91m-31.924 4.769c.796 6.022-3.44 11.55-9.462 12.346-6.022.796-11.55-3.44-12.346-9.462-.796-6.022 3.44-11.55 9.462-12.346 6.022-.796 11.55 3.44 12.346 9.462"/><path fill="#FF618A" d="M138.812 153.85a8.683 8.683 0 1 1-17.216 2.277 8.683 8.683 0 0 1 17.216-2.277"/><path fill="#2A2825" d="M136.963 154.418a6.947 6.947 0 1 1-13.773 1.821 6.947 6.947 0 0 1 13.773-1.821"/><path fill="#FFF" d="M137.902 149.308a3.473 3.473 0 1 1-6.886.91 3.473 3.473 0 0 1 6.886-.91"/><path d="M108.45 109.996a6 6 0 0 0-5.655 3.993c-5.559 15.663-8.337 31.66-8.337 48.003 0 16.414 3.357 32.13 10.076 47.163a6 6 0 0 0 5.478 3.552h77.252a6 6 0 0 0 5.507-3.617c6.801-15.715 10.197-31.41 10.197-47.098 0-15.594-2.62-31.537-7.864-47.834a6 6 0 0 0-5.712-4.162H108.45zm91.809 24.358H97.338m105.452 26.184H94.17m105.457 27.252H97.337m17.353-77.86v102.274m22.474-103.096v102.82m23.49-102.421v102.82m22.474-102.457v103.014" stroke="#ABB3D0" stroke-width="4"/><path d="M109.77 101.806a5.178 5.178 0 0 1 10.356 0h-10.357zm68.098-.518a5.178 5.178 0 0 1 10.356 0c-2.46.518-4.272.776-5.437.776s-2.805-.258-4.919-.776z" fill="#F17BDD"/><path d="M109.77 101.806l.647-3.366c1.901-1.42 3.131-2.175 3.689-2.265.558-.091 2.003.47 4.337 1.682-1.77-.56-3.215-.453-4.337.324-1.122.777-1.726 2.136-1.812 4.078l-2.525-.453zm68.098 0l.647-3.366c1.902-1.42 3.132-2.175 3.69-2.265.558-.091 2.003.47 4.336 1.682-1.769-.56-3.214-.453-4.336.324-1.122.777-1.726 2.136-1.813 4.078l-2.524-.453z" fill="#CE59D4"/><path d="M109.77 101.288a5.178 5.178 0 0 1 10.356 0c-1.209.518-2.935.776-5.179.776s-3.97-.258-5.178-.776zm68.098 0a5.178 5.178 0 0 1 10.356 0c-1.208.518-2.934.776-5.178.776-2.244 0-3.97-.258-5.178-.776z" stroke="#2A2825"/></g></svg>