<?xml version="1.0" encoding="UTF-8"?>
<svg width="70px" height="70px" viewBox="0 0 70 70" version="1.1" xmlns="http://www.w3.org/2000/svg" xmlns:xlink="http://www.w3.org/1999/xlink">
    <!-- Generator: Sketch 46.2 (44496) - http://www.bohemiancoding.com/sketch -->
    <title>Group 96</title>
    <desc>Created with Sketch.</desc>
    <defs>
        <linearGradient x1="69.2630302%" y1="84.4945714%" x2="28.9297013%" y2="16.9158893%" id="linearGradient-1">
            <stop stop-color="#32BDE3" offset="0%"></stop>
            <stop stop-color="#6574D7" offset="100%"></stop>
        </linearGradient>
    </defs>
    <g id="Design" stroke="none" stroke-width="1" fill="none" fill-rule="evenodd">
        <g id="Group-96">
            <rect id="Rectangle-26" x="0" y="0" width="70" height="70"></rect>
            <g id="Group-5">
                <path d="M70,35 C70,54.33 54.33,70 35,70 C15.67,70 0,54.33 0,35 C0,15.67 15.67,0 35,0 C54.33,0 70,15.67 70,35" id="Fill-3"></path>
                <path d="M70,35 C70,54.33 54.33,70 35,70 C15.67,70 0,54.33 0,35 C0,15.67 15.67,0 35,0 C54.33,0 70,15.67 70,35" id="Fill-3"></path>
                <path d="M70,35 C70,54.33 54.33,70 35,70 C15.67,70 0,54.33 0,35 C0,15.67 15.67,0 35,0 C54.33,0 70,15.67 70,35" id="Fill-3"></path>
                <path d="M16.6714,43.8203 C16.3814,43.3623 16.5254,42.7303 16.9834,42.4403 L49.1254,22.1713 C49.2864,22.0693 49.4684,22.0203 49.6504,22.0203 C49.9854,22.0203 50.3174,22.1853 50.5044,22.4833 L67.1414,48.8623 C68.1824,46.4533 68.9544,43.9023 69.4324,41.2473 L55.5804,19.2833 C53.5214,16.0183 49.1894,15.0353 45.9254,17.0953 L45.0794,17.6293 L42.4124,13.3993 C41.5284,11.9993 39.6764,11.5783 38.2744,12.4633 C36.8724,13.3463 36.4534,15.1993 37.3374,16.6003 L40.0044,20.8303 L19.7044,33.6323 L17.0374,29.4023 C16.1544,28.0023 14.3004,27.5813 12.8994,28.4663 C11.4974,29.3493 11.0784,31.2023 11.9624,32.6033 L14.6294,36.8323 L13.7824,37.3663 C10.5184,39.4243 9.5374,43.7573 11.5964,47.0213 L25.2054,68.6003 C27.7474,69.3403 30.4054,69.8083 33.1504,69.9503 L16.6714,43.8203 Z" id="Fill-5" fill="url(#linearGradient-1)"></path>
                <path d="M31.9336,43.6523 L31.0876,44.1863 C29.6866,45.0713 29.2676,46.9233 30.1526,48.3253 C30.7226,49.2293 31.6966,49.7233 32.6916,49.7233 C33.2396,49.7233 33.7936,49.5743 34.2906,49.2603 L35.1366,48.7263 C36.5376,47.8413 36.9566,45.9893 36.0716,44.5883 C35.1876,43.1853 33.3346,42.7693 31.9336,43.6523" id="Fill-7" fill="#499DDE"></path>
                <path d="M44.6226,35.6504 L43.7766,36.1834 C42.3756,37.0674 41.9556,38.9204 42.8396,40.3214 C43.4096,41.2264 44.3836,41.7214 45.3796,41.7214 C45.9266,41.7214 46.4796,41.5724 46.9766,41.2594 L47.8226,40.7264 C49.2246,39.8424 49.6436,37.9904 48.7606,36.5884 C47.8776,35.1864 46.0246,34.7694 44.6226,35.6504" id="Fill-9" fill="#499DDE"></path>
                <path d="M40.4697,57.1855 L39.6237,57.7185 C38.2227,58.6025 37.8027,60.4555 38.6867,61.8565 C39.2567,62.7615 40.2307,63.2565 41.2267,63.2565 C41.7737,63.2565 42.3267,63.1075 42.8237,62.7945 L43.6697,62.2615 C45.0717,61.3775 45.4907,59.5255 44.6077,58.1235 C43.7237,56.7215 41.8727,56.3035 40.4697,57.1855" id="Fill-11" fill="#3DADE0"></path>
                <path d="M53.9146,55.2559 C54.4616,55.2559 55.0166,55.1069 55.5136,54.7919 L56.3596,54.2579 C57.7606,53.3729 58.1786,51.5209 57.2936,50.1189 C56.4086,48.7189 54.5566,48.2989 53.1556,49.1859 L52.3096,49.7199 C50.9086,50.6049 50.4906,52.4569 51.3746,53.8589 C51.9456,54.7619 52.9196,55.2559 53.9146,55.2559" id="Fill-13" fill="#3DADE0"></path>
            </g>
        </g>
    </g>
</svg>