<?xml version="1.0" encoding="UTF-8"?>
<svg width="70px" height="70px" viewBox="0 0 70 70" version="1.1" xmlns="http://www.w3.org/2000/svg" xmlns:xlink="http://www.w3.org/1999/xlink">
    <!-- Generator: Sketch 46.2 (44496) - http://www.bohemiancoding.com/sketch -->
    <title>Page 1</title>
    <desc>Created with Sketch.</desc>
    <defs>
        <linearGradient x1="50%" y1="100%" x2="50%" y2="0%" id="linearGradient-1">
            <stop stop-color="#32BDE3" offset="0%"></stop>
            <stop stop-color="#6574D7" offset="100%"></stop>
        </linearGradient>
    </defs>
    <g id="Design" stroke="none" stroke-width="1" fill="none" fill-rule="evenodd">
        <g id="Page-1">
            <path d="M70,35 C70,54.33 54.33,70 35,70 C15.67,70 0,54.33 0,35 C0,15.67 15.67,0 35,0 C54.33,0 70,15.67 70,35" id="Fill-1"></path>
            <path d="M35,46 C27.832,46 22,40.168 22,33 C22,25.832 27.832,20 35,20 C42.168,20 48,25.832 48,33 C48,40.168 42.168,46 35,46 M65.444,24 C60.928,24 56.71,25.578 53.389,28.305 C51.291,20.096 43.854,14 35,14 C26.165,14 18.741,20.07 16.625,28.252 C13.308,25.544 9.113,24 4.622,24 C3.622,24 2.648,24.101 1.689,24.25 C1.014,26.343 0.535,28.523 0.264,30.767 C1.628,30.28 3.091,30 4.622,30 C9.636,30 14.117,32.802 16.316,37.313 C16.446,37.58 16.567,37.852 16.679,38.128 C16.702,38.186 16.738,38.235 16.765,38.291 C17.904,42.209 20.272,45.599 23.424,48.032 C17.703,50.11 12.693,53.682 8.868,58.274 C10.204,59.773 11.668,61.153 13.241,62.404 C18.379,56.063 26.222,52 35,52 C43.778,52 51.621,56.063 56.759,62.404 C58.332,61.153 59.796,59.773 61.132,58.274 C57.307,53.682 52.297,50.11 46.576,48.032 C49.663,45.649 52.007,42.352 53.172,38.536 C53.251,38.404 53.329,38.272 53.388,38.126 C55.386,33.189 60.119,30 65.444,30 C66.949,30 68.388,30.27 69.733,30.742 C69.461,28.502 68.981,26.328 68.307,24.24 C67.371,24.097 66.42,24 65.444,24" id="Fill-3" fill="url(#linearGradient-1)"></path>
        </g>
    </g>
</svg>