<?xml version="1.0" encoding="UTF-8"?>
<svg width="70px" height="70px" viewBox="0 0 70 70" version="1.1" xmlns="http://www.w3.org/2000/svg" xmlns:xlink="http://www.w3.org/1999/xlink">
    <!-- Generator: Sketch 46.2 (44496) - http://www.bohemiancoding.com/sketch -->
    <title>Group 27</title>
    <desc>Created with Sketch.</desc>
    <defs>
        <linearGradient x1="50%" y1="92.6003575%" x2="50%" y2="6.04805901%" id="linearGradient-1">
            <stop stop-color="#32BDE3" offset="0%"></stop>
            <stop stop-color="#6574D7" offset="100%"></stop>
        </linearGradient>
    </defs>
    <g id="Design" stroke="none" stroke-width="1" fill="none" fill-rule="evenodd">
        <g id="Group-27">
            <path d="M70,35 C70,54.33 54.33,70 35,70 C15.67,70 0,54.33 0,35 C0,15.67 15.67,0 35,0 C54.33,0 70,15.67 70,35" id="Fill-1"></path>
            <path d="M45.8127,52.3113 C47.2477,50.2123 48.0907,47.6743 48.0907,44.9413 C48.0907,38.5783 43.9847,34.2203 35.8877,31.9903 C31.4517,30.7683 29.2017,28.7333 29.2017,25.9413 C29.2017,22.6653 31.8437,20.0003 35.0907,20.0003 C38.3377,20.0003 40.9797,22.6653 40.9797,25.9413 C40.9797,27.5983 42.3237,28.9413 43.9797,28.9413 C45.6367,28.9413 46.9797,27.5983 46.9797,25.9413 C46.9797,20.3993 43.1957,15.7403 38.0907,14.4003 L38.0907,12.0003 C38.0907,10.3423 36.7477,9.0003 35.0907,9.0003 C33.4337,9.0003 32.0907,10.3423 32.0907,12.0003 L32.0907,14.4003 C26.9857,15.7403 23.2017,20.3993 23.2017,25.9413 C23.2017,31.6013 27.1407,35.8033 34.2947,37.7753 C41.2047,39.6773 42.0907,42.6043 42.0907,44.9413 C42.0907,48.8343 38.9507,52.0003 35.0907,52.0003 C31.2307,52.0003 28.0907,48.8343 28.0907,44.9413 C28.0907,43.2843 26.7477,41.9413 25.0907,41.9413 C23.4337,41.9413 22.0907,43.2843 22.0907,44.9413 C22.0907,47.6743 22.9347,50.2123 24.3687,52.3113 C17.9987,52.6733 11.7967,53.3663 5.8357,54.3483 C7.1237,56.2853 8.5947,58.0893 10.2327,59.7283 C18.1607,58.6013 26.5157,58.0003 35.0907,58.0003 C43.6087,58.0003 51.9087,58.5923 59.7897,59.7053 C61.4257,58.0643 62.8957,56.2593 64.1807,54.3213 C58.2707,53.3543 52.1247,52.6703 45.8127,52.3113" id="Fill-31" fill="url(#linearGradient-1)"></path>
        </g>
    </g>
</svg>