<?xml version="1.0" encoding="UTF-8"?>
<svg width="70px" height="70px" viewBox="0 0 70 70" version="1.1" xmlns="http://www.w3.org/2000/svg" xmlns:xlink="http://www.w3.org/1999/xlink">
    <!-- Generator: Sketch 46.2 (44496) - http://www.bohemiancoding.com/sketch -->
    <title>Group 28</title>
    <desc>Created with Sketch.</desc>
    <defs>
        <linearGradient x1="50%" y1="92.6003575%" x2="50%" y2="6.04805901%" id="linearGradient-1">
            <stop stop-color="#32BDE3" offset="0%"></stop>
            <stop stop-color="#6574D7" offset="100%"></stop>
        </linearGradient>
    </defs>
    <g id="Design" stroke="none" stroke-width="1" fill="none" fill-rule="evenodd">
        <g id="Group-28">
            <path d="M70,35 C70,54.33 54.33,70 35,70 C15.67,70 0,54.33 0,35 C0,15.67 15.67,0 35,0 C54.33,0 70,15.67 70,35" id="Fill-17"></path>
            <path d="M44.1406,12.8008 L44.1306,12.8008 L44.1406,12.8008 Z M29.6266,58.1448 C29.9686,56.1148 29.1586,53.5888 27.7006,52.1368 L15.3476,39.8268 L32.3396,37.3038 C34.3956,36.9978 36.5426,35.4168 37.4466,33.5458 L44.9996,17.9008 L52.5536,33.5458 C53.4566,35.4168 55.6046,36.9978 57.6616,37.3048 L69.7526,39.1008 C69.9106,37.7548 69.9996,36.3878 69.9996,34.9998 C69.9996,34.3498 69.9796,33.7048 69.9446,33.0628 L58.5766,31.3758 C58.3966,31.3278 58.0396,31.0668 57.9556,30.9368 L48.5716,11.4978 C47.8346,9.9698 46.4996,9.0588 44.9996,9.0588 C43.4996,9.0588 42.1646,9.9698 41.4286,11.4978 L32.0586,30.9078 C31.9596,31.0668 31.6036,31.3278 31.4566,31.3688 L10.5366,34.4768 C8.8796,34.7228 7.6136,35.7138 7.1476,37.1278 C6.6826,38.5418 7.1126,40.0918 8.2986,41.2748 L23.4476,56.3668 C23.5746,56.5228 23.7196,56.9758 23.7096,57.1508 L21.9766,67.4858 C23.8336,68.2308 25.7656,68.8268 27.7646,69.2468 L29.6266,58.1448 Z" id="Fill-19" fill="url(#linearGradient-1)"></path>
        </g>
    </g>
</svg>